<svg xmlns="http://www.w3.org/2000/svg" xmlns:xlink="http://www.w3.org/1999/xlink" viewBox="0 0 400 300"><defs><filter id="AI_GaussianBlur_7" name="AI_GaussianBlur_7"><feGaussianBlur stdDeviation="7"/></filter><clipPath id="clip-path"><path d="M183,177.8v.82c0,11-7.3,22.07-21.8,30.5-29.19,17-76.68,17-106.06,0C40.35,200.59,33,189.38,33,178.19v-.81c0,11.19,7.35,22.39,22.14,30.93,29.38,17,76.87,17,106.06,0C175.71,199.88,183,188.85,183,177.8Z" fill="none"/></clipPath></defs><title>400x300_Image_Placeholders_05</title><g style="isolation:isolate"><g id="Layer_1" data-name="Layer 1"><rect width="400" height="300" fill="#1b1464"/></g><g id="Layer_2" data-name="Layer 2"><path d="M229,210C309,170,415,46,415,46c43.24,4.42,43,174.89,43,212v61.82c0,40.44-38.52,73.22-86,73.22H74c-47.51,0-86-32.78-86-73.22V227.53C-39,86,149,250,229,210Z" fill="#060451"/></g><g id="Layer_5" data-name="Layer 5"><g filter="url(#AI_GaussianBlur_7)" style="mix-blend-mode:screen"><polygon points="425.75 97.02 322.86 156.82 202.28 87.2 305.17 27.4 425.75 97.02" fill="#005d9a"/><polygon points="425.75 97.02 425.73 106.8 322.83 166.6 322.86 156.82 425.75 97.02" fill="#00395e"/><polygon points="322.86 156.82 322.83 166.6 202.25 96.98 202.28 87.2 322.86 156.82" fill="#00416b"/></g><g style="isolation:isolate"><polygon points="411.56 66.61 317.13 121.5 206.46 57.6 300.9 2.72 411.56 66.61" fill="#348ac9"/><polygon points="411.56 66.61 411.54 76.4 317.1 131.28 317.13 121.5 411.56 66.61" fill="#20557b"/><polygon points="317.13 121.5 317.1 131.28 206.43 67.39 206.46 57.6 317.13 121.5" fill="#24618c"/></g><g filter="url(#AI_GaussianBlur_7)" style="mix-blend-mode:screen"><polygon points="207.57 192.61 113.12 247.5 2.46 183.6 96.9 128.72 207.57 192.61" fill="#00d1d1"/><polygon points="207.57 192.61 207.54 202.4 113.1 257.28 113.12 247.5 207.57 192.61" fill="teal"/><polygon points="113.12 247.5 113.1 257.28 2.43 193.39 2.46 183.6 113.12 247.5" fill="#009292"/></g><g filter="url(#AI_GaussianBlur_7)"><path d="M160.86,146.87c29.38,17,29.54,44.47.34,61.44s-76.68,17-106.06,0-29.54-44.47-.35-61.44S131.48,129.91,160.86,146.87Z" fill="#dadada"/><g style="isolation:isolate"><g clip-path="url(#clip-path)"><g style="isolation:isolate"><path d="M183,177.8v.82c0,11-7.3,22.07-21.8,30.5-13.55,7.88-31,12.1-48.84,12.66V221c17.79-.57,35.28-4.79,48.83-12.66,14.51-8.43,21.77-19.46,21.8-30.51" fill="#858585"/><path d="M112.37,221v.81c-4,.13-7.93.07-11.88-.16v-.82c3.94.24,7.92.29,11.88.17" fill="#8a8a8a"/><path d="M100.49,220.8v.82c-3.26-.2-6.51-.52-9.72-1v-.82c3.21.45,6.46.77,9.73,1" fill="#8f8f8f"/><path d="M90.76,219.84v.82q-4.38-.6-8.64-1.52v-.81c2.84.6,5.72,1.11,8.64,1.51" fill="#949494"/><path d="M82.12,218.33v.81Q78,218.26,74,217.07v-.82q4,1.19,8.15,2.08" fill="#999"/><path d="M74,216.25v.82c-2.75-.82-5.44-1.74-8-2.77v-.81c2.6,1,5.28,1.95,8,2.76" fill="#9e9e9e"/><path d="M65.94,213.49v.81a81.28,81.28,0,0,1-8.44-3.87v-.82a82.3,82.3,0,0,0,8.44,3.88" fill="#a3a3a3"/><path d="M57.5,209.61v.82c-.8-.42-1.59-.86-2.36-1.31a63.47,63.47,0,0,1-7.59-5.1v-.81a63.71,63.71,0,0,0,7.58,5.1c.77.45,1.56.88,2.36,1.3" fill="#a8a8a8"/><path d="M47.56,203.21V204c-6.85-5.4-11.28-11.5-13.29-17.81v-.82c2,6.31,6.45,12.42,13.3,17.82" fill="#adadad"/><path d="M34.26,185.39v.82a25.83,25.83,0,0,1-1.26-8v-.81a25.77,25.77,0,0,0,1.26,8" fill="#a8a8a8"/></g></g></g></g><g style="isolation:isolate"><polygon points="207.57 152.61 113.13 207.5 2.46 143.6 96.9 88.72 207.57 152.61" fill="#005d9a"/><polygon points="207.57 152.61 207.54 162.4 113.1 217.28 113.13 207.5 207.57 152.61" fill="#00395e"/><polygon points="113.13 207.5 113.1 217.28 2.43 153.38 2.46 143.6 113.13 207.5" fill="#00416b"/></g><ellipse cx="140" cy="160.25" rx="1.5" ry="1.25" transform="translate(-56.43 78.42) rotate(-26.24)"/><ellipse cx="311" cy="68.25" rx="1.5" ry="1.25" transform="translate(1.87 144.54) rotate(-26.24)"/><g filter="url(#AI_GaussianBlur_7)"><polygon points="139.43 154.66 137.98 152.03 322.52 49.26 323.96 51.89 139.43 154.66" fill="#fff"/></g><polyline points="140 160 139.87 150.94 311.64 54.27 311 68" fill="none" stroke="#fff" stroke-miterlimit="10"/></g></g></svg>