<svg xmlns="http://www.w3.org/2000/svg" viewBox="0 0 400 300"><defs><filter id="a"><feGaussianBlur stdDeviation="7"/></filter><clipPath id="b"><path d="M147.76 194.25c-14.22 8.27-21.34 19.08-21.37 29.92l.12-40.76c0-10.83 7.15-21.65 21.37-29.91 28.63-16.64 75.2-16.64 104 0 14.42 8.32 21.66 19.22 21.71 30.13q0 20.38-.11 40.76c-.06-10.91-7.3-21.81-21.72-30.14-28.76-16.63-75.36-16.64-104 0z" fill="none"/></clipPath><clipPath id="c"><path d="M163 203c-11.17 6.49-15.87 13.74-15.89 20.72l.12-40.76c0-7 4.72-14.22 15.89-20.72 24.28-14.11 54.93-10.49 73.41.18 6.93 4 12.15 9 14.69 14.41l-.12 40.76c-2.53-5.42-7.75-10.41-14.68-14.41-18.51-10.63-49.16-14.25-73.42-.18z" fill="none"/></clipPath><clipPath id="d"><path d="M178.2 211.83c-6.57 3.81-9.34 8.08-9.35 12.18l.12-40.76c0-4.1 2.77-8.36 9.34-12.18 14.29-8.3 32.32-6.18 43.19.1 5.87 3.39 9.66 8 9.64 12.81l-.14 40.76c0-4.82-3.77-9.42-9.64-12.81-10.85-6.28-28.88-8.4-43.16-.1z" fill="none"/></clipPath><clipPath id="e"><path d="M252.79 225a17.13 17.13 0 0 0-1.71-7.37l.12-40.76a17.27 17.27 0 0 1 1.71 7.37c-.04 12.23-.09 28.53-.12 40.76z" fill="none"/></clipPath><clipPath id="f"><path d="M231.14 184l-.14 40.74c0 4.1-2.78 8.37-9.35 12.19-14.28 8.3-32.31 6.17-43.18-.1-5.88-3.39-9.66-8-9.65-12.82l.12-40.75c0 4.82 3.77 9.42 9.64 12.81 10.87 6.28 28.9 8.4 43.18.1 6.61-3.82 9.37-8.09 9.38-12.17z" fill="none"/></clipPath><clipPath id="g"><path d="M252.91 184.24l-.12 40.76c0 7-4.72 14.23-15.89 20.73-24.28 14.11-54.93 10.49-73.41-.18-10-5.76-16.42-13.58-16.4-21.78l.12-40.76c0 8.2 6.41 16 16.39 21.78 18.49 10.67 49.14 14.29 73.41.18 11.18-6.5 15.88-13.76 15.9-20.73z" fill="none"/></clipPath><clipPath id="h"><path d="M273.6 183.83l-.11 40.76c0 10.83-7.15 21.64-21.38 29.91-28.62 16.64-75.19 16.64-104 0-14.5-8.37-21.74-19.36-21.71-30.33l.12-40.76c0 11 7.21 22 21.71 30.33 28.82 16.64 75.38 16.64 104 0 14.22-8.26 21.34-19.08 21.37-29.91z" fill="none"/></clipPath><clipPath id="i"><path d="M273.49 224.59v-.2q.06-20.38.11-40.76a.67.67 0 0 1 0 .2c-.03 12.23-.08 28.53-.11 40.76z" fill="none"/></clipPath><clipPath id="j"><path d="M295.06 183.89l-.12 40.76c0 14-9.23 28-27.61 38.64-37 21.49-97.12 21.49-134.34 0-18.73-10.82-28.08-25-28-39.18l.11-40.76c0 14.17 9.31 28.37 28 39.18 37.22 21.49 97.38 21.49 134.35 0 18.37-10.68 27.55-24.65 27.61-38.64z" fill="none"/></clipPath><filter id="k"><feGaussianBlur stdDeviation="4"/></filter><clipPath id="l"><path d="M198.31 97.94l4.23-2.46a6.28 6.28 0 0 1 2.83 4.91l-4.23 2.45a6.25 6.25 0 0 0-2.83-4.9z" fill="none"/></clipPath><clipPath id="m"><path d="M198.31 97.94l4.23-2.46a6.23 6.23 0 0 1 2.83 4.91l-4.23 2.45a6.23 6.23 0 0 0-2.83-4.9z" fill="none"/></clipPath><clipPath id="n"><path d="M231.77 179.07l4.23-2.46c0 4.34 2.33 6.78 6.11 9l-4.23 2.39c-3.78-2.15-6.12-4.59-6.11-8.93z" fill="none"/></clipPath></defs><g style="isolation:isolate"><path fill="#ff7bac" d="M0 0h400v300H0z" data-name="Layer 1"/><path d="M84.28 154.83l297.94 30.43C425.46 189.68 458 220.89 458 258v61.82c0 40.44-38.52 73.22-86 73.22H74c-47.51 0-86-32.78-86-73.22v-92.29c0-43.9 45.07-77.93 96.28-72.7z" fill="#ed1e79" data-name="Layer 2"/><g data-name="Layer 5"><g filter="url(#a)"><path fill="#005d9a" d="M425.75 97.02l-102.89 59.8L202.28 87.2l102.89-59.8 120.58 69.62z"/><path fill="#00395e" d="M425.75 97.02l-.02 9.78-102.9 59.8.03-9.78 102.89-59.8z"/><path fill="#00416b" d="M322.86 156.82l-.03 9.78-120.58-69.62.03-9.78 120.58 69.62z"/></g><g style="isolation:isolate"><g style="isolation:isolate" clip-path="url(#b)"><path d="M273.6 183.83l-.11 40.76a25.08 25.08 0 0 0-.28-3.77l.12-40.76a23.82 23.82 0 0 1 .27 3.77" fill="#8f4560"/><path d="M273.33 180.06l-.12 40.76a30.6 30.6 0 0 0-7.63-15.56l.11-40.76a30.62 30.62 0 0 1 7.64 15.56" fill="#8a425d"/><path d="M265.69 164.5l-.11 40.76a54.24 54.24 0 0 0-13.81-11c-28.81-16.63-75.37-16.64-104 0-14.22 8.27-21.34 19.08-21.37 29.92l.12-40.76c0-10.83 7.15-21.65 21.37-29.91 28.63-16.64 75.2-16.64 104 0a53.77 53.77 0 0 1 13.8 11" fill="#854059"/></g><g style="isolation:isolate" clip-path="url(#c)"><path d="M252.73 181.85l-.11 40.76a21.52 21.52 0 0 0-5.41-10.8l.11-40.76a21.39 21.39 0 0 1 5.41 10.8" fill="#801041"/><path d="M247.32 171.05l-.11 40.76a42.83 42.83 0 0 0-10.81-8.59c-18.49-10.67-49.14-14.29-73.42-.18-11.17 6.49-15.87 13.75-15.89 20.72l.12-40.76c0-7 4.72-14.22 15.89-20.72 24.28-14.11 54.93-10.49 73.41.18a42.66 42.66 0 0 1 10.81 8.59" fill="#7b103f"/></g><g style="isolation:isolate" clip-path="url(#d)"><path d="M231.14 184l-.14 40.74a9.57 9.57 0 0 0-.11-1.41l.12-40.75a9.32 9.32 0 0 1 .1 1.4" fill="#770b32"/><path d="M231 182.58l-.12 40.75a12.6 12.6 0 0 0-3.18-6.35l.12-40.76a12.63 12.63 0 0 1 3.18 6.36" fill="#720b31"/><path d="M227.86 176.22l-.12 40.78a25 25 0 0 0-6.35-5c-10.88-6.28-28.91-8.4-43.19-.1-6.57 3.82-9.34 8.08-9.35 12.18l.12-40.75c0-4.11 2.77-8.37 9.34-12.19 14.29-8.3 32.32-6.18 43.19.1a25 25 0 0 1 6.36 5.05" fill="#6e0a2f"/></g><g style="isolation:isolate" clip-path="url(#e)"><path d="M252.91 184.24l-.12 40.76a17.21 17.21 0 0 0-.17-2.38l.11-40.76a15.92 15.92 0 0 1 .18 2.39" fill="#851144"/><path d="M252.73 181.85l-.11 40.76a21.52 21.52 0 0 0-5.41-10.8l.11-40.76a21.39 21.39 0 0 1 5.41 10.8" fill="#801041"/></g><g style="isolation:isolate" clip-path="url(#f)"><path d="M231.14 184l-.14 40.74c0 4.1-2.78 8.37-9.35 12.19-14.28 8.3-32.31 6.17-43.18-.1a24.88 24.88 0 0 1-6.36-5.06l.11-40.76a25 25 0 0 0 6.36 5.06c10.87 6.28 28.9 8.4 43.18.1 6.58-3.82 9.34-8.09 9.35-12.19" fill="#5d0629"/><path d="M172.25 191l-.11 40.76a12.52 12.52 0 0 1-3.18-6.35l.11-40.76a12.6 12.6 0 0 0 3.18 6.35" fill="#60062b"/><path d="M169.07 184.66l-.07 40.76a9.46 9.46 0 0 1-.11-1.41l.12-40.75a9.32 9.32 0 0 0 .1 1.4" fill="#64062c"/></g><g style="isolation:isolate" clip-path="url(#g)"><path d="M252.91 184.24l-.12 40.76c0 7-4.72 14.23-15.89 20.73-24.28 14.11-54.93 10.49-73.41-.18a42.66 42.66 0 0 1-10.81-8.55l.11-40.76a42.61 42.61 0 0 0 10.81 8.59c18.49 10.67 49.14 14.29 73.41.18 11.18-6.49 15.88-13.75 15.9-20.72" fill="#6e0a2f"/><path d="M152.79 196.19l-.11 40.81a21.39 21.39 0 0 1-5.41-10.8l.11-40.76a21.52 21.52 0 0 0 5.41 10.8" fill="#720b31"/><path d="M147.38 185.39l-.11 40.76a15.92 15.92 0 0 1-.18-2.39l.12-40.76a17.35 17.35 0 0 0 .17 2.39" fill="#770b32"/></g><g style="isolation:isolate" clip-path="url(#h)"><path d="M273.6 183.83l-.11 40.76c0 10.83-7.15 21.64-21.38 29.91-28.62 16.64-75.19 16.64-104 0a53.88 53.88 0 0 1-13.79-11l.11-40.75a54 54 0 0 0 13.8 11c28.82 16.64 75.38 16.64 104 0 14.22-8.26 21.34-19.08 21.37-29.91" fill="#7b103f"/><path d="M134.42 202.75l-.11 40.75a30.62 30.62 0 0 1-7.64-15.56l.11-40.76a30.77 30.77 0 0 0 7.64 15.57" fill="#801041"/><path d="M126.78 187.18l-.11 40.76a25.18 25.18 0 0 1-.28-3.77l.12-40.76a25.07 25.07 0 0 0 .27 3.77" fill="#851144"/></g><g clip-path="url(#i)"><path d="M273.6 183.83l-.11 40.76a25.08 25.08 0 0 0-.28-3.77l.12-40.76a23.82 23.82 0 0 1 .27 3.77" fill="#8f4560"/></g><path d="M221.5 171.17c10.87 6.27 14.59 16.69.29 25s-32.31 6.18-43.18-.1-14.59-16.7-.3-25 32.32-6.18 43.19.1z" fill="#a10a48"/><path d="M236.51 162.46c18.48 10.66 24.81 28.38.5 42.5s-54.92 10.49-73.41-.18-24.8-28.37-.5-42.5 54.9-10.49 73.41.18zm-57.9 33.61c10.87 6.28 28.9 8.4 43.18.1s10.58-18.73-.29-25-28.9-8.4-43.19-.1-10.57 18.72.3 25" fill="#c01251"/><path d="M251.89 153.5c28.82 16.63 29 43.6.34 60.24s-75.19 16.64-104 0-29-43.61-.34-60.24 75.19-16.64 104 0zm-88.29 51.28c18.49 10.67 49.14 14.29 73.41.18s18-31.84-.5-42.5-49.13-14.29-73.41-.18-18 31.84.5 42.5" fill="#d71b6e"/><g style="isolation:isolate" clip-path="url(#j)"><path d="M295.06 183.89l-.12 40.76c0 14-9.23 28-27.61 38.64-37 21.49-97.12 21.49-134.34 0a69.78 69.78 0 0 1-17.82-14.21l.11-40.76a69.92 69.92 0 0 0 17.82 14.21c37.22 21.49 97.38 21.49 134.35 0 18.37-10.68 27.57-24.65 27.61-38.64" fill="#854059"/><path d="M115.28 208.32l-.11 40.76c-5.54-6.34-8.83-13.18-9.87-20.1l.12-40.76c1 6.92 4.32 13.76 9.86 20.1" fill="#8a425d"/><path d="M105.42 188.22L105.3 229a31.91 31.91 0 0 1-.35-4.87l.11-40.76a33.26 33.26 0 0 0 .36 4.87" fill="#8f4560"/></g><path d="M267 144.71c37.22 21.49 37.42 56.33.44 77.82s-97.13 21.49-134.35 0-37.41-56.33-.44-77.82 97.15-21.49 134.35 0zm-118.79 69c28.82 16.64 75.38 16.64 104 0s28.48-43.61-.34-60.24-75.38-16.64-104 0-28.48 43.61.34 60.24" fill="#e76f9c"/></g><g filter="url(#k)"><path fill="#00395e" d="M201.14 102.84l4.23-2.45-.24 84.77-4.23 2.46.24-84.78z"/><path fill="#06a" d="M-91.13-69.17l4.23-2.46L202.54 95.48l-4.23 2.46L-91.13-69.17z"/><path d="M198.31 97.94a6.25 6.25 0 0 1 2.83 4.9l-.24 84.78-5.68-3.28.23-81.52-286.6-165.46v-6.53z" fill="#003b61"/><g style="isolation:isolate" clip-path="url(#l)"><path d="M198.31 97.94l4.23-2.46-4.19 2.52" fill="#0071bc"/><path d="M198.35 98l4.23-2.45a2.9 2.9 0 0 1 .29.19l-4.23 2.46-.29-.2" fill="#006fb8"/><path d="M198.64 98.16l4.23-2.46.18.13-4.23 2.46-.18-.13" fill="#006cb4"/><path d="M198.82 98.29l4.23-2.46.12.1-4.23 2.46-.12-.1" fill="#006ab1"/><path d="M198.94 98.39l4.23-2.46.1.09-4.27 2.46-.1-.09" fill="#0068ad"/><path d="M199 98.48l4.27-2.48.09.08-4.22 2.46-.1-.08" fill="#0066a9"/><path d="M199.14 98.56l4.22-2.46.09.08-4.23 2.46-.08-.08" fill="#0063a5"/><path d="M199.22 98.64l4.23-2.46.08.08-4.23 2.46-.08-.08" fill="#0061a2"/><path d="M199.3 98.72l4.23-2.46.08.08-4.23 2.46-.08-.08" fill="#005f9e"/><path d="M199.38 98.8l4.23-2.46a.3.3 0 0 0 .08.08l-4.23 2.46-.08-.08" fill="#005d9a"/><path d="M199.46 98.88l4.23-2.46.07.09-4.23 2.49-.07-.09" fill="#005a96"/><path d="M199.53 99l4.23-2.46.08.09-4.23 2.45a.6.6 0 0 1-.08-.08" fill="#005893"/><path d="M199.61 99.05l4.23-2.45.08.09-4.23 2.46-.08-.1" fill="#00568f"/><path d="M199.69 99.15l4.23-2.46.08.1-4.23 2.46-.08-.1" fill="#00548b"/><path d="M199.77 99.25l4.23-2.46.08.11-4.23 2.46a.76.76 0 0 0-.08-.11" fill="#005187"/><path d="M199.85 99.36l4.23-2.46.09.12-4.23 2.46-.09-.12" fill="#004f84"/><path d="M199.94 99.48l4.23-2.48.09.13-4.26 2.48-.09-.13" fill="#004d80"/><path d="M200 99.61l4.23-2.46.09.14-4.23 2.45-.09-.13" fill="#004b7c"/><path d="M200.12 99.74l4.23-2.45.1.15-4.23 2.46-.1-.16" fill="#004878"/><path d="M200.22 99.9l4.23-2.46.09.16-4.23 2.46-.09-.16" fill="#004675"/><path d="M200.31 100.06l4.23-2.46.11.19-4.23 2.46-.11-.19" fill="#004471"/><path d="M200.42 100.25l4.23-2.46.1.21-4.22 2.45c0-.07-.07-.14-.11-.2" fill="#00426d"/><path d="M200.53 100.45l4.22-2.45.12.24-4.23 2.46c0-.08-.07-.16-.11-.25" fill="#003f69"/><path d="M200.64 100.7l4.23-2.46c0 .11.09.21.13.32l-4.23 2.44a3.05 3.05 0 0 0-.13-.32" fill="#003d66"/><path d="M200.77 101l4.23-2.44a5.28 5.28 0 0 1 .37 1.83l-4.23 2.45a5.05 5.05 0 0 0-.37-1.82" fill="#003b62"/></g></g><g style="isolation:isolate"><path fill="#6a0a2d" d="M201.14 102.84l4.23-2.45-.24 84.77-4.23 2.46.24-84.78z"/><path fill="#c01251" d="M-91.13-69.17l4.23-2.46L202.54 95.48l-4.23 2.46L-91.13-69.17z"/><path d="M198.31 97.94a6.23 6.23 0 0 1 2.83 4.9l-.24 84.78-5.67-3.28.23-81.52-286.6-165.46v-6.53z" fill="#6e0a2f"/><g style="isolation:isolate" clip-path="url(#m)"><path d="M198.31 97.94l4.23-2.46-4.19 2.52" fill="#d4145a"/><path d="M198.35 98l4.23-2.46.3.2-4.23 2.46-.3-.2" fill="#d01458"/><path d="M198.65 98.16l4.23-2.46.17.13-4.23 2.46-.17-.13" fill="#cc1356"/><path d="M198.82 98.29l4.23-2.46.12.1-4.23 2.46-.12-.1" fill="#c71355"/><path d="M198.94 98.39l4.23-2.46.11.09-4.23 2.46-.11-.09" fill="#c31253"/><path d="M199.05 98.48l4.23-2.48.09.08-4.23 2.46-.09-.08" fill="#bf1251"/><path d="M199.14 98.56l4.23-2.46.08.08-4.22 2.46-.09-.08" fill="#bb124f"/><path d="M199.23 98.64l4.22-2.46.08.08-4.22 2.46-.08-.08" fill="#b6114d"/><path d="M199.31 98.72l4.22-2.46.08.08-4.23 2.46-.07-.08" fill="#b2114c"/><path d="M199.38 98.8l4.23-2.46.08.09-4.23 2.45-.08-.08" fill="#ae104a"/><path d="M199.46 98.88l4.23-2.45a.6.6 0 0 1 .08.08L199.54 99l-.08-.09" fill="#aa1048"/><path d="M199.54 99l4.23-2.46.07.09-4.23 2.46-.07-.09" fill="#a51046"/><path d="M199.61 99.06l4.23-2.46a.39.39 0 0 1 .08.1l-4.22 2.45-.09-.09" fill="#a10f44"/><path d="M199.7 99.15l4.22-2.45a.39.39 0 0 1 .08.1l-4.22 2.45a.39.39 0 0 1-.08-.1" fill="#9d0f43"/><path d="M199.78 99.25L204 96.8l.09.11-4.23 2.45a.44.44 0 0 1-.08-.11" fill="#990e41"/><path d="M199.86 99.36l4.23-2.45a.44.44 0 0 1 .08.11L200 99.48l-.09-.12" fill="#940e3f"/><path d="M200 99.48l4.17-2.48a.77.77 0 0 1 .09.13L200 99.61l-.09-.13" fill="#900e3d"/><path d="M200 99.61l4.22-2.46.1.14-4.23 2.46-.09-.14" fill="#8c0d3b"/><path d="M200.13 99.75l4.23-2.46.09.15-4.23 2.46-.09-.15" fill="#880d3a"/><path d="M200.22 99.9l4.23-2.46.1.16-4.23 2.46a1.4 1.4 0 0 0-.1-.16" fill="#830c38"/><path d="M200.32 100.06l4.23-2.46c0 .07.07.13.1.19l-4.23 2.46a1.74 1.74 0 0 0-.1-.19" fill="#7f0c36"/><path d="M200.42 100.25l4.23-2.46a2.12 2.12 0 0 1 .11.21l-4.23 2.46a2.12 2.12 0 0 0-.11-.21" fill="#7b0c34"/><path d="M200.53 100.46l4.23-2.46a2.56 2.56 0 0 1 .11.24l-4.22 2.46-.12-.24" fill="#770b32"/><path d="M200.65 100.7l4.22-2.46.14.32-4.23 2.44c0-.11-.09-.21-.13-.32" fill="#720b31"/><path d="M200.78 101l4.22-2.44a5.27 5.27 0 0 1 .36 1.83l-4.23 2.45a5.26 5.26 0 0 0-.36-1.82" fill="#6e0a2f"/></g></g><g style="mix-blend-mode:hard-light"><g style="isolation:isolate"><path fill="#797979" d="M201.14 102.84l4.23-2.45-.24 84.77-4.23 2.46.24-84.78z"/><path fill="#dbdbdb" d="M-91.13-69.17l4.23-2.46L202.54 95.48l-4.23 2.46L-91.13-69.17z"/><path d="M198.31 97.94a6.25 6.25 0 0 1 2.83 4.9l-.24 84.78-1.42-.82-.48-81.41c0-4.34-2.33-6.78-6.11-9l-284-163.93v-1.64z" fill="#7d7d7d"/><g style="isolation:isolate" clip-path="url(#l)"><path d="M198.31 97.94l4.23-2.46-4.19 2.52" fill="#f2f2f2"/><path d="M198.35 98l4.23-2.45a2.9 2.9 0 0 1 .29.19l-4.23 2.46-.29-.2" fill="#ededed"/><path d="M198.64 98.16l4.23-2.46.18.13-4.23 2.46-.18-.13" fill="#e8e8e8"/><path d="M198.82 98.29l4.23-2.46.12.1-4.23 2.46-.12-.1" fill="#e3e3e3"/><path d="M198.94 98.39l4.23-2.46.1.09-4.27 2.46-.1-.09" fill="#dfdfdf"/><path d="M199 98.48l4.27-2.48.09.08-4.22 2.46-.1-.08" fill="#dadada"/><path d="M199.14 98.56l4.22-2.46.09.08-4.23 2.46-.08-.08" fill="#d5d5d5"/><path d="M199.22 98.64l4.23-2.46.08.08-4.23 2.46-.08-.08" fill="#d0d0d0"/><path d="M199.3 98.72l4.23-2.46.08.08-4.23 2.46-.08-.08" fill="#cbcbcb"/><path d="M199.38 98.8l4.23-2.46a.3.3 0 0 0 .08.08l-4.23 2.46-.08-.08" fill="#c6c6c6"/><path d="M199.46 98.88l4.23-2.46.07.09-4.23 2.49-.07-.09" fill="#c2c2c2"/><path d="M199.53 99l4.23-2.46.08.09-4.23 2.45a.6.6 0 0 1-.08-.08" fill="#bdbdbd"/><path d="M199.61 99.05l4.23-2.45.08.09-4.23 2.46-.08-.1" fill="#b8b8b8"/><path d="M199.69 99.15l4.23-2.46.08.1-4.23 2.46-.08-.1" fill="#b3b3b3"/><path d="M199.77 99.25l4.23-2.46.08.11-4.23 2.46a.76.76 0 0 0-.08-.11" fill="#aeaeae"/><path d="M199.85 99.36l4.23-2.46.09.12-4.23 2.46-.09-.12" fill="#a9a9a9"/><path d="M199.94 99.48l4.23-2.48.09.13-4.26 2.48-.09-.13" fill="#a5a5a5"/><path d="M200 99.61l4.23-2.46.09.14-4.23 2.45-.09-.13" fill="#a0a0a0"/><path d="M200.12 99.74l4.23-2.45.1.15-4.23 2.46-.1-.16" fill="#9b9b9b"/><path d="M200.22 99.9l4.23-2.46.09.16-4.23 2.46-.09-.16" fill="#969696"/><path d="M200.31 100.06l4.23-2.46.11.19-4.23 2.46-.11-.19" fill="#919191"/><path d="M200.42 100.25l4.23-2.46.1.21-4.22 2.45c0-.07-.07-.14-.11-.2" fill="#8c8c8c"/><path d="M200.53 100.45l4.22-2.45.12.24-4.23 2.46c0-.08-.07-.16-.11-.25" fill="#888"/><path d="M200.64 100.7l4.23-2.46c0 .11.09.21.13.32l-4.23 2.44a3.05 3.05 0 0 0-.13-.32" fill="#838383"/><path d="M200.77 101l4.23-2.44a5.28 5.28 0 0 1 .37 1.83l-4.23 2.45a5.05 5.05 0 0 0-.37-1.82" fill="#7e7e7e"/></g></g></g><g filter="url(#k)"><path fill="#00395e" d="M235.54 100.11l4.23-2.46-.23 81.53-4.23 2.45.23-81.52z"/><path fill="#06a" d="M229.87 96.83l4.23-2.45 5.67 3.27-4.23 2.46-5.67-3.28z"/><path d="M235.54 100.11l-.23 81.52 286.6 165.47v6.52L232.46 186.51a6.23 6.23 0 0 1-2.83-4.9l.24-84.78z" fill="#003b61"/><path fill="#06a" d="M235.31 181.63l4.23-2.45 286.6 165.46-4.23 2.46-286.6-165.47z"/></g><g style="isolation:isolate"><path fill="#6a0a2d" d="M235.54 100.11l4.23-2.46-.23 81.53-4.23 2.45.23-81.52z"/><path fill="#c01251" d="M229.87 96.83l4.23-2.45 5.67 3.27-4.23 2.46-5.67-3.28z"/><path d="M235.54 100.11l-.23 81.52 286.6 165.47v6.52L232.46 186.51a6.23 6.23 0 0 1-2.83-4.9l.24-84.78z" fill="#6e0a2f"/><path fill="#c01251" d="M235.31 181.63l4.23-2.45 286.6 165.46-4.23 2.46-286.6-165.47z"/></g><g style="mix-blend-mode:hard-light"><g style="isolation:isolate"><g style="isolation:isolate" clip-path="url(#n)"><path d="M231.77 179.07l4.23-2.46a9.52 9.52 0 0 0 .57 3.37l-4.23 2.46a9.52 9.52 0 0 1-.57-3.37" fill="#7e7e7e"/><path d="M232.34 182.44l4.23-2.46c.05.12.1.25.16.37l-4.23 2.46c-.06-.12-.11-.25-.16-.37" fill="#838383"/><path d="M232.5 182.81l4.23-2.46c0 .1.09.2.13.29l-4.23 2.46c0-.1-.09-.19-.13-.29" fill="#888"/><path d="M232.63 183.1l4.23-2.46c0 .08.08.16.13.24l-4.23 2.46c0-.08-.09-.16-.13-.24" fill="#8c8c8c"/><path d="M232.76 183.34l4.23-2.46a.94.94 0 0 0 .12.22l-4.23 2.46-.12-.22" fill="#919191"/><path d="M232.88 183.56l4.23-2.46.11.19-4.22 2.46-.11-.19" fill="#969696"/><path d="M233 183.75l4.23-2.46.12.19-4.23 2.45-.12-.18" fill="#9b9b9b"/><path d="M233.11 183.93l4.23-2.45.11.16-4.23 2.46a1.63 1.63 0 0 1-.11-.17" fill="#a0a0a0"/><path d="M233.22 184.1l4.23-2.46a.91.91 0 0 0 .11.16l-4.23 2.46-.11-.16" fill="#a5a5a5"/><path d="M233.33 184.26l4.23-2.46.11.16-4.22 2.46-.12-.16" fill="#a9a9a9"/><path d="M233.45 184.42l4.22-2.46.12.15-4.23 2.45a1.34 1.34 0 0 1-.11-.14" fill="#aeaeae"/><path d="M233.56 184.56l4.23-2.45a1.71 1.71 0 0 1 .11.14l-4.23 2.46-.11-.15" fill="#b3b3b3"/><path d="M233.67 184.71l4.23-2.46.12.14-4.23 2.46-.12-.14" fill="#b8b8b8"/><path d="M233.79 184.85l4.23-2.46.12.14-4.23 2.47-.12-.14" fill="#bdbdbd"/><path d="M233.91 185l4.23-2.46.13.14-4.27 2.45-.13-.14" fill="#c2c2c2"/><path d="M234 185.13l4.23-2.46.13.14-4.23 2.46-.13-.14" fill="#c6c6c6"/><path d="M234.17 185.27l4.23-2.46.15.15-4.23 2.46-.15-.15" fill="#cbcbcb"/><path d="M234.32 185.42l4.23-2.46.14.15-4.22 2.45-.15-.14" fill="#d0d0d0"/><path d="M234.47 185.56l4.22-2.45.19.18-4.23 2.45-.18-.18" fill="#d5d5d5"/><path d="M234.65 185.74l4.23-2.45.2.18-4.23 2.45-.2-.18" fill="#dadada"/><path d="M234.85 185.92l4.23-2.45.27.23-4.23 2.46-.27-.24" fill="#dfdfdf"/><path d="M235.12 186.16l4.23-2.46.35.28-4.23 2.46-.35-.28" fill="#e3e3e3"/><path d="M235.47 186.44l4.23-2.44.58.43-4.23 2.46-.58-.43" fill="#e8e8e8"/><path d="M236.05 186.87l4.23-2.46a18.72 18.72 0 0 0 1.58 1l-4.23 2.46c-.56-.34-1.09-.68-1.58-1" fill="#ededed"/><path d="M237.63 187.9l4.23-2.46.25.15-4.23 2.41a2 2 0 0 1-.25-.14" fill="#f2f2f2"/></g><path fill="#797979" d="M231.29 97.66l4.23-2.46.48 81.41-4.23 2.46-.48-81.41z"/><path fill="#dbdbdb" d="M229.87 96.83l4.23-2.45 1.42.82-4.23 2.46-1.42-.83z"/><path d="M231.29 97.65l.48 81.42c0 4.34 2.33 6.78 6.11 9l284 164v1.63L232.46 186.51a6.23 6.23 0 0 1-2.83-4.9l.24-84.78z" fill="#7d7d7d"/><path fill="#dbdbdb" d="M237.88 188.04l4.23-2.45 284.02 163.94-4.23 2.46-284.02-163.95z"/></g></g><g style="isolation:isolate"><path fill="#348ac9" d="M416.56 96.61l-94.43 54.89-110.67-63.9 94.44-54.88 110.66 63.89z"/><path fill="#20557b" d="M416.56 96.61l-.02 9.79-94.44 54.88.03-9.78 94.43-54.89z"/><path fill="#24618c" d="M322.13 151.5l-.03 9.78-110.67-63.89.03-9.79 110.67 63.9z"/></g><g filter="url(#a)"><path fill="#00d1d1" d="M156.57 166.61L62.13 221.5l-110.67-63.9 94.44-54.88 110.67 63.89z"/><path fill="teal" d="M156.57 166.61l-.03 9.79-94.44 54.88.03-9.78 94.44-54.89z"/><path fill="#009292" d="M62.13 221.5l-.03 9.78-110.67-63.9.03-9.78 110.67 63.9z"/></g><g style="isolation:isolate"><path fill="#005d9a" d="M156.57 166.61L62.13 221.5l-110.67-63.9 94.44-54.88 110.67 63.89z"/><path fill="#00395e" d="M156.57 166.61l-.03 9.79-94.44 54.88.03-9.78 94.44-54.89z"/><path fill="#00416b" d="M62.13 221.5l-.03 9.78-110.67-63.9.03-9.78 110.67 63.9z"/></g></g></g></svg>