<svg xmlns="http://www.w3.org/2000/svg" viewBox="0 0 400 300"><defs><clipPath id="a"><path d="M294.38 265.39v-.82a35.69 35.69 0 0 1 10.82-9.22v.81a35.71 35.71 0 0 0-10.82 9.23z" fill="none"/></clipPath><clipPath id="b"><path d="M294.38 265.39l-.52.71v-.81q.24-.36.51-.72v.71a.41.41 0 0 1 .01.11z" fill="none"/></clipPath><clipPath id="c"><path d="M292.72 267.92v-.81c.35-.62.73-1.22 1.15-1.82v.81c-.42.6-.81 1.21-1.15 1.82z" fill="none"/></clipPath><clipPath id="d"><path d="M378.56 256.16c-20.32-11.73-53.17-11.73-73.36 0v-.81c20.19-11.74 53-11.74 73.36 0 10.23 5.91 15.33 13.66 15.31 21.4v.81c.02-7.75-5.09-15.5-15.31-21.4z" fill="none"/></clipPath><clipPath id="e"><path d="M292.72 267.92a18.91 18.91 0 0 0-2.59 9.34v-.82a18.88 18.88 0 0 1 2.59-9.33v.68a.57.57 0 0 1 0 .13z" fill="none"/></clipPath><clipPath id="f"><path d="M315.93 262.36c-7.1 4.13-10.66 9.53-10.67 14.94v-.81c0-5.41 3.57-10.82 10.68-14.95 14.3-8.31 37.56-8.31 52 0 7.24 4.18 10.86 9.67 10.84 15.15v.82c0-5.48-3.6-11-10.85-15.15-14.43-8.36-37.69-8.31-52 0z" fill="none"/></clipPath><clipPath id="g"><path d="M326.67 268.56c-4.64 2.69-6.59 5.7-6.6 8.59v-.81c0-2.9 1.95-5.91 6.59-8.6 10.07-5.85 22.79-4.35 30.45.07 4.14 2.39 6.81 5.63 6.8 9v.82c0-3.4-2.66-6.64-6.8-9-7.66-4.43-20.37-5.93-30.44-.07z" fill="none"/></clipPath><clipPath id="h"><path d="M363.92 276.84v.82c0 2.89-2 5.9-6.59 8.6-10.08 5.85-22.79 4.35-30.46-.07-4.14-2.39-6.8-5.64-6.8-9v-.81c0 3.4 2.66 6.64 6.8 9 7.66 4.43 20.38 5.93 30.45.07 4.68-2.7 6.59-5.71 6.6-8.61z" fill="none"/></clipPath><clipPath id="i"><path d="M378.74 276.69v.82c0 5.41-3.57 10.81-10.68 14.94-14.3 8.31-37.56 8.32-52 0-7.24-4.18-10.86-9.67-10.84-15.15v-.81c0 5.48 3.6 11 10.85 15.15 14.39 8.31 37.65 8.31 51.95 0 7.15-4.13 10.71-9.54 10.72-14.95z" fill="none"/></clipPath><clipPath id="j"><path d="M393.87 276.73v.82c0 7.64-5.05 15.27-15.08 21.1-20.19 11.73-53 11.73-73.35 0-10.23-5.9-15.33-13.65-15.31-21.39v-.82c0 7.74 5.09 15.49 15.31 21.4 20.32 11.73 53.16 11.73 73.35 0 10.03-5.84 15.06-13.46 15.08-21.11z" fill="none"/></clipPath><clipPath id="k"><path d="M409 276.78v.81c0 9.87-6.52 19.73-19.48 27.26-26.07 15.15-68.5 15.15-94.74 0-13.21-7.63-19.78-17.64-19.78-27.63v-.82c0 10 6.57 20 19.78 27.63 26.25 15.16 68.67 15.16 94.75 0 12.95-7.53 19.47-17.38 19.47-27.25z" fill="none"/></clipPath><clipPath id="l"><path d="M103.57 123.05c-9.92-5.73-26.37-7.67-39.41-.1v-.81c13-7.58 29.49-5.64 39.41.09z" fill="none"/></clipPath><clipPath id="m"><path d="M99.07 130.61a13.32 13.32 0 0 0-3.56-2.89v-.81a13.16 13.16 0 0 1 3.57 2.89z" fill="none"/></clipPath><clipPath id="n"><path d="M100.15 132.27a7.84 7.84 0 0 0-1.08-1.66v-.81a7.93 7.93 0 0 1 1.07 1.66z" fill="none"/></clipPath><clipPath id="o"><path d="M72.33 127.67c-2.88 1.67-4.4 3.5-4.86 5.32v-.82c.46-1.81 2-3.64 4.86-5.32 7.67-4.45 17.34-3.31 23.18.06v.81c-5.84-3.37-15.51-4.51-23.18-.05z" fill="none"/></clipPath><clipPath id="p"><path d="M64.16 123c-6 3.49-8.52 7.38-8.53 11.13v-.82c0-3.74 2.54-7.64 8.53-11.12z" fill="none"/></clipPath><clipPath id="q"><path d="M67.47 133a4.7 4.7 0 0 0-.16 1.22v-.81a4.72 4.72 0 0 1 .16-1.23v.41c0 .12.01.26 0 .41z" fill="none"/></clipPath><clipPath id="r"><path d="M56 118.24c-7.64 4.43-11.46 10.24-11.48 16v-.81a13.6 13.6 0 0 1 .69-4.25c1.42-4.33 5-8.46 10.78-11.81 15.37-8.93 40.37-8.93 55.84 0 7.73 4.47 11.62 10.32 11.65 16.17v.82c0-5.86-3.92-11.71-11.66-16.17-15.47-8.89-40.46-8.89-55.82.05z" fill="none"/></clipPath><clipPath id="s"><path d="M123.48 133.7v.82c0 5.81-3.84 11.62-11.47 16.06-15.37 8.93-40.37 8.93-55.84 0-7.79-4.5-11.67-10.4-11.66-16.29v-.81c0 5.89 3.87 11.79 11.65 16.28 15.47 8.93 40.47 8.93 55.84 0 7.64-4.43 11.47-10.24 11.48-16.06z" fill="none"/></clipPath><clipPath id="t"><path d="M123.48 134.52z" fill="none"/></clipPath><clipPath id="u"><path d="M100.69 134.6a5.55 5.55 0 0 0-.54-2.33v-.81a5.48 5.48 0 0 1 .54 2.33z" fill="none"/></clipPath><clipPath id="v"><path d="M112.37 134.74c0-4.4-3.44-8.6-8.8-11.69v-.82c5.36 3.09 8.82 7.29 8.8 11.69z" fill="none"/></clipPath><clipPath id="w"><path d="M100.69 133.79v.81c0 2.2-1.49 4.49-5 6.55-7.67 4.45-17.35 3.31-23.18-.06-3.16-1.82-5.19-4.29-5.18-6.88v-.81c0 2.59 2 5.06 5.18 6.87 5.84 3.37 15.51 4.52 23.18.06 3.51-2.05 4.99-4.33 5-6.54z" fill="none"/></clipPath><clipPath id="x"><path d="M112.37 133.92v.82c0 3.75-2.53 7.64-8.53 11.12-13 7.58-29.49 5.64-39.41-.09-5.36-3.1-8.81-7.29-8.8-11.69v-.82c0 4.4 3.45 8.6 8.8 11.69 9.93 5.73 26.38 7.67 39.41.1 6-3.49 8.52-7.38 8.53-11.13z" fill="none"/></clipPath><clipPath id="y"><path d="M135 133.74v.81c0 7.51-5 15-14.82 20.75-19.86 11.53-52.15 11.53-72.13 0-10-5.81-15.07-13.43-15-21v-.82c0 7.61 5 15.23 15 21 20 11.54 52.28 11.54 72.13 0C130 148.75 135 141.25 135 133.74z" fill="none"/></clipPath><clipPath id="z"><path d="M87.94 42.35l1.41-.82c-1.67 1-2.71 3-2.71 6-.07 73.43.48 85.09-.66 85.75l-1.41.82c1.14-.66.59-12.32.66-85.75 0-2.96 1.04-5.03 2.71-6z" fill="none"/></clipPath><clipPath id="A"><path d="M85.48 40.27l1.41-.81c.3-.18.62-.34 1-.55a1 1 0 0 0 .17-.1l-1.41.82-.17.1z" fill="none"/></clipPath><clipPath id="B"><path d="M86.82 39.53l1.41-.82c2.66-1.55 3.41-1.69 27.39 12.16l-1.41.82C90.23 37.84 89.48 38 86.82 39.53z" fill="none"/></clipPath><clipPath id="C"><path d="M114.21 51.69l1.41-.82c14 8.09 36 21 70.89 41.12l-1.41.82c-34.92-20.16-56.88-33.03-70.89-41.12z" fill="none"/></clipPath><clipPath id="D"><path d="M186.67 93.83l-1.41.81c.33-.19-.16-1-.16-1.83l1.41-.82c0 .79.49 1.64.16 1.84z" fill="none"/></clipPath><clipPath id="E"><path d="M239.77 121.48l1.41-.82c34.92 20.16 56.88 32.64 70.89 40.73l-1.41.82c-14.01-8.09-35.97-20.57-70.89-40.73z" fill="none"/></clipPath><clipPath id="F"><path d="M310.66 162.21l1.41-.82c25 14.43 24.75 14.91 27.73 20.07 4.51 7.82 3.35 1.83 2.9 97l-1.4.82c.44-95.19 1.6-89.2-2.91-97-2.98-5.16-2.74-5.64-27.73-20.07z" fill="none"/></clipPath><clipPath id="G"><path d="M47.52 266.9c-5 2.89-7.07 6.12-7.08 9.23v-.81c0-3.11 2.1-6.35 7.08-9.24 10.83-6.29 24.49-4.68 32.73.08a15.6 15.6 0 0 1 6.55 6.43v.81a15.58 15.58 0 0 0-6.55-6.4c-8.25-4.78-21.91-6.39-32.73-.1z" fill="none"/></clipPath><clipPath id="H"><path d="M36 260.24c-7.64 4.44-11.46 10.24-11.48 16.06v-.82c0-5.81 3.84-11.62 11.47-16.06 15.37-8.93 40.37-8.93 55.84 0 5.12 3 8.56 6.53 10.3 10.3v.82c-1.75-3.78-5.18-7.34-10.3-10.3-15.47-8.93-40.47-8.93-55.83 0z" fill="none"/></clipPath><clipPath id="I"><path d="M102.13 270.54a.75.75 0 0 1 0-.15v-.67a14 14 0 0 1 1.35 6v.81a14 14 0 0 0-1.35-5.99z" fill="none"/></clipPath><clipPath id="J"><path d="M24.46 253.58C13.68 259.85 8.28 268 8.26 276.25v-.81c0-8.21 5.42-16.41 16.2-22.67 21.7-12.61 57-12.62 78.83 0 11 6.35 16.48 14.68 16.46 23v.81c0-8.32-5.46-16.65-16.45-23-21.85-12.58-57.14-12.58-78.84 0z" fill="none"/></clipPath><clipPath id="K"><path d="M87.56 276.69a7.72 7.72 0 0 0-.76-3.29v-.81a7.5 7.5 0 0 1 .76 3.28z" fill="none"/></clipPath><clipPath id="L"><path d="M87.56 275.87v.82c0 3.11-2.1 6.34-7.08 9.23-10.83 6.29-24.49 4.68-32.73-.07-4.45-2.57-7.32-6.06-7.31-9.72v-.81c0 3.65 2.86 7.14 7.31 9.71 8.24 4.76 21.9 6.37 32.73.08 4.98-2.9 7.07-6.11 7.08-9.24z" fill="none"/></clipPath><clipPath id="M"><path d="M103.48 275.71v.81c0 5.82-3.84 11.62-11.47 16.06-15.37 8.93-40.37 8.93-55.84 0-7.78-4.49-11.67-10.39-11.66-16.28v-.82c0 5.89 3.87 11.79 11.65 16.29 15.47 8.93 40.47 8.93 55.84 0 7.65-4.44 11.47-10.25 11.48-16.06z" fill="none"/></clipPath><clipPath id="N"><path d="M119.75 275.75v.82c0 8.21-5.42 16.41-16.2 22.67-21.69 12.61-57 12.61-78.83 0-11-6.35-16.47-14.67-16.45-23v-.81c0 8.31 5.47 16.64 16.46 23 21.84 12.61 57.13 12.61 78.83 0 10.77-6.27 16.16-14.43 16.19-22.68z" fill="none"/></clipPath><clipPath id="O"><path d="M136 275.8v.82c0 10.6-7 21.19-20.92 29.28-28 16.29-73.62 16.29-101.83 0C-.94 297.71-8 287-8 276.21v-.82c0 10.74 7.06 21.5 21.25 29.7 28.21 16.28 73.8 16.28 101.83 0C129 297 136 286.4 136 275.8z" fill="none"/></clipPath><clipPath id="P"><path d="M161.65 117.66l3.52-2a2.7 2.7 0 0 1 2.61.32l-3.53 2a2.69 2.69 0 0 0-2.6-.32z" fill="none"/></clipPath><clipPath id="Q"><path d="M170.35 124.34l-3.53 2a2.48 2.48 0 0 0 1-2.31 7.39 7.39 0 0 0-3.54-6.09l3.53-2a7.37 7.37 0 0 1 3.53 6.09 2.48 2.48 0 0 1-.99 2.31z" fill="none"/></clipPath><clipPath id="R"><path d="M95.34 162.21l-1.41-.81c14-8.1 36-20.58 70.89-40.74l1.41.82c-34.92 20.16-56.88 32.64-70.89 40.73z" fill="none"/></clipPath><clipPath id="S"><path d="M64.71 279.3l-1.41-.82c-.45-95.19-1.6-89.2 2.91-97 3-5.16 2.73-5.64 27.72-20.06l1.41.81c-25 14.43-24.75 14.91-27.73 20.07-4.5 7.8-3.35 1.81-2.9 97z" fill="none"/></clipPath></defs><g style="isolation:isolate"><path fill="#2e3192" d="M0 0h400v300H0z" data-name="Layer 1"/><path fill="#222e7f" d="M0 202l400-102v200H0v-98z" data-name="Layer 2"/><g data-name="Layer 5"><g style="mix-blend-mode:screen"><g style="isolation:isolate"><g style="isolation:isolate" clip-path="url(#a)"><path d="M316.57 250.35v.81a59.12 59.12 0 0 0-11.37 5l-.63.38v-.82l.63-.37a58.77 58.77 0 0 1 11.37-5" fill="#130e48"/><path d="M304.57 255.72v.82a39.71 39.71 0 0 0-6.57 4.86v-.81a40.31 40.31 0 0 1 6.57-4.87" fill="#130e46"/><path d="M298 260.59v.81a30.32 30.32 0 0 0-3.22 3.46v-.81a30.39 30.39 0 0 1 3.22-3.46" fill="#120e44"/><path d="M294.78 264.05v.81a24.79 24.79 0 0 0-2.09 3.1v-.82a24.6 24.6 0 0 1 2.08-3.09" fill="#120d42"/></g><g clip-path="url(#b)"><path d="M294.78 264.05v.81a24.79 24.79 0 0 0-2.09 3.1v-.82a24.6 24.6 0 0 1 2.08-3.09" fill="#120d42"/></g><g clip-path="url(#c)"><path d="M294.78 264.05v.81a24.79 24.79 0 0 0-2.09 3.1v-.82a24.6 24.6 0 0 1 2.08-3.09" fill="#120d42"/></g><g style="isolation:isolate" clip-path="url(#d)"><path d="M393.87 276.73v.82c0-7.74-5.09-15.49-15.31-21.39a56.73 56.73 0 0 0-7.48-3.59v-.81a56.69 56.69 0 0 1 7.48 3.58c10.22 5.91 15.33 13.66 15.31 21.39" fill="#0e0a34"/><path d="M371.08 251.76v.81c-2-.8-4.14-1.51-6.3-2.12v-.82c2.16.62 4.27 1.33 6.3 2.13" fill="#0f0b36"/><path d="M364.78 249.63v.82q-2.65-.76-5.41-1.33v-.81q2.76.57 5.41 1.32" fill="#0f0b38"/><path d="M359.37 248.31v.81a78.75 78.75 0 0 0-5.14-.89v-.82c1.73.25 3.45.54 5.14.9" fill="#100c3a"/><path d="M354.23 247.41v.82q-2.5-.36-5-.57v-.81c1.69.14 3.37.32 5 .56" fill="#100c3c"/><path d="M349.19 246.85v.81c-1.7-.14-3.41-.23-5.11-.27v-.82c1.71.05 3.41.14 5.11.28" fill="#110c3e"/><path d="M344.08 246.57v.82h-5.32v-.81c1.76-.06 3.54-.07 5.31 0" fill="#110d40"/><path d="M338.77 246.6v.81q-2.88.1-5.75.39v-.8q2.87-.28 5.76-.38" fill="#120d42"/><path d="M333 247v.82q-3.35.33-6.62.92v-.82q3.27-.59 6.62-.92" fill="#120e44"/><path d="M326.39 247.9v.82a75.36 75.36 0 0 0-9.82 2.44v-.81a75.37 75.37 0 0 1 9.82-2.45" fill="#130e46"/><path d="M316.57 250.35v.81a59.12 59.12 0 0 0-11.37 5l-.63.38v-.82l.63-.37a58.77 58.77 0 0 1 11.37-5" fill="#130e48"/></g><g style="isolation:isolate" clip-path="url(#e)"><path d="M294.78 264.05v.81a24.79 24.79 0 0 0-2.09 3.1v-.82a24.6 24.6 0 0 1 2.08-3.09" fill="#120d42"/><path d="M292.7 267.14v.86a22.46 22.46 0 0 0-1.38 3v-.82a21.16 21.16 0 0 1 1.38-2.95" fill="#110d40"/><path d="M291.32 270.09v.82a18.21 18.21 0 0 0-.83 2.92V273a17.54 17.54 0 0 1 .84-2.92" fill="#110c3e"/><path d="M290.48 273v.82a16.69 16.69 0 0 0-.34 3V276a17.67 17.67 0 0 1 .34-3" fill="#100c3c"/><path d="M290.14 276v1.27-.82-.45" fill="#100c3a"/></g><g style="isolation:isolate" clip-path="url(#f)"><path d="M378.74 276.69v.82c0-5.48-3.6-11-10.85-15.15a39.32 39.32 0 0 0-5.3-2.55V259a40.47 40.47 0 0 1 5.3 2.54c7.24 4.18 10.86 9.67 10.84 15.15" fill="#18194c"/><path d="M362.6 259v.81c-1.43-.56-2.92-1.06-4.46-1.5v-.82c1.53.44 3 .94 4.46 1.51" fill="#191a4f"/><path d="M358.14 257.49v.82c-1.25-.36-2.53-.67-3.83-.94v-.82c1.3.27 2.58.59 3.84.94" fill="#1a1b52"/><path d="M354.3 256.55v.82c-1.2-.25-2.41-.46-3.64-.63v-.82c1.23.17 2.45.39 3.64.63" fill="#1b1c55"/><path d="M350.66 255.92v.82c-1.18-.17-2.37-.3-3.57-.4v-.82c1.2.1 2.39.23 3.57.4" fill="#1c1d58"/><path d="M347.09 255.52v.82c-1.2-.1-2.41-.17-3.62-.2v-.81c1.21 0 2.42.09 3.62.19" fill="#1d1e5b"/><path d="M343.47 255.33v.81h-3.76v-.81h3.76" fill="#1d1f5d"/><path d="M339.71 255.35v.81c-1.37 0-2.73.14-4.07.27v-.81c1.35-.14 2.71-.23 4.07-.27" fill="#1e2060"/><path d="M335.64 255.62v.81c-1.59.16-3.15.38-4.69.66v-.82c1.54-.28 3.11-.5 4.69-.65" fill="#1f2163"/><path d="M331 256.27v.82a51.68 51.68 0 0 0-7 1.73V258a53.23 53.23 0 0 1 7-1.73" fill="#202266"/><path d="M324 258v.82a41.06 41.06 0 0 0-8.06 3.54l-.44.26v-.81l.45-.27A41.91 41.91 0 0 1 324 258" fill="#212369"/><path d="M315.49 261.81v.81a28.61 28.61 0 0 0-4.66 3.45v-.82a28.05 28.05 0 0 1 4.65-3.44" fill="#202266"/><path d="M310.84 265.25v.82a20.71 20.71 0 0 0-2.28 2.45v-.82a22.39 22.39 0 0 1 2.28-2.45" fill="#1f2163"/><path d="M308.56 267.7v.82a17.56 17.56 0 0 0-1.47 2.2v-.82a17.3 17.3 0 0 1 1.48-2.2" fill="#1e2060"/><path d="M307.08 269.9v.82a14 14 0 0 0-1 2.08v-.8a14.58 14.58 0 0 1 1-2.09" fill="#1d1f5d"/><path d="M306.1 272v.81a13.45 13.45 0 0 0-.6 2.07v-.81a11.86 11.86 0 0 1 .59-2.07" fill="#1d1e5b"/><path d="M305.51 274.06v.81a12.63 12.63 0 0 0-.24 2.11v-.82a13.67 13.67 0 0 1 .25-2.1" fill="#1c1d58"/><path d="M305.26 276.16" fill="#1b1c55"/></g><g style="isolation:isolate" clip-path="url(#g)"><path d="M363.92 276.84v.82c0-3.4-2.66-6.64-6.8-9a26.88 26.88 0 0 0-3.49-1.68v-.81a25.62 25.62 0 0 1 3.49 1.67c4.14 2.39 6.81 5.63 6.8 9" fill="#003b62"/><path d="M353.63 266.14v.86c-.91-.35-1.86-.68-2.84-1v-.81c1 .28 1.93.6 2.84 1" fill="#003d66"/><path d="M350.79 265.18v.82q-1.14-.32-2.34-.57v-.81q1.2.24 2.34.57" fill="#003f69"/><path d="M348.45 264.61v.81c-.69-.14-1.4-.27-2.11-.37v-.81c.72.1 1.42.22 2.11.37" fill="#00426d"/><path d="M346.34 264.24v.81c-.66-.09-1.32-.17-2-.22V264c.67.06 1.34.13 2 .23" fill="#004471"/><path d="M344.35 264v.82c-.64-.05-1.29-.09-1.94-.11v-.81c.65 0 1.29 0 1.93.1" fill="#004675"/><path d="M342.42 263.91v.81h-2v-.81h2" fill="#004878"/><path d="M340.44 263.92v.81c-.7 0-1.41.07-2.11.14v-.81c.7-.07 1.41-.12 2.11-.14" fill="#004b7c"/><path d="M338.33 264.06v.81c-.83.09-1.66.2-2.48.35v-.81c.82-.15 1.65-.27 2.48-.35" fill="#004d80"/><path d="M335.85 264.41v.81a31 31 0 0 0-3.88 1v-.81a28.22 28.22 0 0 1 3.88-1" fill="#004f84"/><path d="M332 265.38v.81a27.82 27.82 0 0 0-5.3 2.37l-.34.19v-.81l.33-.2a27.16 27.16 0 0 1 5.3-2.36" fill="#005187"/><path d="M326.34 267.94v.81a18.82 18.82 0 0 0-3.14 2.32v-.82a18.91 18.91 0 0 1 3.15-2.31" fill="#004f84"/><path d="M323.19 270.25v.82a11.22 11.22 0 0 0-1.35 1.44v-.82a12.59 12.59 0 0 1 1.34-1.44" fill="#004d80"/><path d="M321.85 271.69v.82a10.54 10.54 0 0 0-.81 1.2v-.82a9.48 9.48 0 0 1 .82-1.2" fill="#004b7c"/><path d="M321 272.89v.82a7.91 7.91 0 0 0-.52 1.11V274a7.91 7.91 0 0 1 .52-1.11" fill="#004878"/><path d="M320.51 274v.82a6.86 6.86 0 0 0-.31 1.07v-.81a8.76 8.76 0 0 1 .31-1.08" fill="#004675"/><path d="M320.2 275.08v.81a6.86 6.86 0 0 0-.12 1.09v-.81a6.61 6.61 0 0 1 .12-1.09" fill="#004471"/><path d="M320.08 276.17v1-1" fill="#00426d"/></g><g style="isolation:isolate" clip-path="url(#h)"><path d="M363.92 276.84" fill="#186383"/><path d="M363.92 277v.82a6.75 6.75 0 0 1-.13 1.09v-.81a5.9 5.9 0 0 0 .13-1.1" fill="#196788"/><path d="M363.79 278.11v.81a6.27 6.27 0 0 1-.31 1.08v-.82a7.48 7.48 0 0 0 .3-1.07" fill="#196a8c"/><path d="M363.49 279.18v.82a8.37 8.37 0 0 1-.52 1.1v-.81a9.23 9.23 0 0 0 .52-1.11" fill="#1a6d91"/><path d="M363 280.29v.81a8.51 8.51 0 0 1-.81 1.21v-.82a9.48 9.48 0 0 0 .82-1.2" fill="#1b7195"/><path d="M362.15 281.49v.82a13.55 13.55 0 0 1-1.34 1.44v-.82a12.65 12.65 0 0 0 1.34-1.44" fill="#1c749a"/><path d="M360.81 282.93v.82a19.34 19.34 0 0 1-3.15 2.31v-.81a20 20 0 0 0 3.15-2.32" fill="#1d789e"/><path d="M357.66 285.25v.81l-.33.2a27.51 27.51 0 0 1-5.31 2.36v-.82a27.51 27.51 0 0 0 5.31-2.36l.33-.19" fill="#1e7ba3"/><path d="M352 287.8v.82a29.2 29.2 0 0 1-3.87 1v-.81a29.25 29.25 0 0 0 3.87-1" fill="#1d789e"/><path d="M348.15 288.78v.81c-.83.15-1.66.27-2.48.35v-.82c.83-.08 1.65-.19 2.48-.34" fill="#1c749a"/><path d="M345.67 289.12v.82c-.71.07-1.41.12-2.11.14v-.82c.7 0 1.4-.07 2.11-.14" fill="#1b7195"/><path d="M343.56 289.26v.82h-2v-.82h2" fill="#1a6d91"/><path d="M341.58 289.27v.82c-.65 0-1.3 0-1.94-.11v-.81c.64.05 1.28.09 1.93.1" fill="#196a8c"/><path d="M339.65 289.17v.83c-.67-.05-1.33-.13-2-.22V289c.65.09 1.32.16 2 .22" fill="#196788"/><path d="M337.66 289v.81c-.72-.1-1.42-.22-2.12-.37v-.81c.7.14 1.4.26 2.12.37" fill="#186383"/><path d="M335.54 288.58v.81c-.79-.16-1.58-.35-2.34-.57V288c.76.22 1.54.41 2.33.58" fill="#17607f"/><path d="M333.21 288v.82c-1-.28-1.92-.6-2.83-1v-.81c.91.35 1.86.67 2.84.95" fill="#165c7a"/><path d="M330.37 287.05v.81a26.34 26.34 0 0 1-3.5-1.67c-4.14-2.39-6.8-5.64-6.8-9v-.81c0 3.4 2.66 6.64 6.8 9a26.88 26.88 0 0 0 3.49 1.68" fill="#155976"/></g><g style="isolation:isolate" clip-path="url(#i)"><path d="M378.74 276.69v1.14-1.14" fill="#00426d"/><path d="M378.74 277v.82a12.63 12.63 0 0 1-.24 2.11v-.82a12.51 12.51 0 0 0 .24-2.11" fill="#004471"/><path d="M378.5 279.12v.82a13.4 13.4 0 0 1-.59 2.07v-.82a12.84 12.84 0 0 0 .6-2.07" fill="#004675"/><path d="M377.9 281.19v.81a14 14 0 0 1-1 2.08v-.81a14.58 14.58 0 0 0 1-2.09" fill="#004878"/><path d="M376.92 283.28v.81a16.62 16.62 0 0 1-1.48 2.2v-.81a17.3 17.3 0 0 0 1.48-2.2" fill="#004b7c"/><path d="M375.44 285.48v.81a20.71 20.71 0 0 1-2.28 2.45v-.81a22.39 22.39 0 0 0 2.28-2.45" fill="#004d80"/><path d="M373.16 287.93v.81a28.94 28.94 0 0 1-4.65 3.45v-.82a28.48 28.48 0 0 0 4.65-3.44" fill="#004f84"/><path d="M368.51 291.37v.82l-.45.26A41 41 0 0 1 360 296v-.81a41.91 41.91 0 0 0 8.05-3.54l.45-.27" fill="#005187"/><path d="M360 295.18v.82a53.24 53.24 0 0 1-7 1.74v-.82a53.23 53.23 0 0 0 7-1.73" fill="#004f84"/><path d="M353.05 296.91v.82c-1.54.27-3.1.49-4.69.65v-.82c1.58-.15 3.14-.37 4.68-.65" fill="#004d80"/><path d="M348.37 297.56v.82c-1.34.13-2.7.22-4.07.27v-.82q2.06-.06 4.08-.27" fill="#004b7c"/><path d="M344.29 297.83v.82c-1.25 0-2.51.05-3.76 0v-.82h3.76" fill="#004878"/><path d="M340.53 297.85v.82c-1.21 0-2.42-.1-3.62-.2v-.81c1.2.1 2.41.16 3.62.19" fill="#004675"/><path d="M336.91 297.66v.81c-1.2-.1-2.39-.23-3.57-.4v-.81c1.18.17 2.37.3 3.57.4" fill="#004471"/><path d="M333.34 297.26v.81c-1.23-.17-2.45-.38-3.64-.63v-.81c1.2.24 2.41.46 3.64.63" fill="#00426d"/><path d="M329.7 296.63v.81c-1.3-.27-2.58-.58-3.84-.94v-.81c1.25.35 2.53.67 3.83.94" fill="#003f69"/><path d="M325.87 295.69v.81c-1.53-.43-3-.94-4.46-1.5v-.82a46.68 46.68 0 0 0 4.46 1.51" fill="#003d66"/><path d="M321.41 294.18v.82a40.51 40.51 0 0 1-5.3-2.55c-7.24-4.18-10.86-9.67-10.84-15.15v-.81c0 5.48 3.6 11 10.85 15.15a39.28 39.28 0 0 0 5.3 2.54" fill="#003b62"/></g><path d="M367.9 261.54c14.39 8.31 14.46 21.79.16 30.1s-37.56 8.31-51.95 0-14.47-21.79-.17-30.1 37.56-8.31 51.96 0zm-41 23.83c7.66 4.43 20.38 5.93 30.45.07s7.46-13.2-.21-17.63-20.38-5.92-30.45-.07-7.46 13.21.21 17.63" fill="#0061a2"/><path d="M378.56 255.34c20.32 11.74 20.42 30.76.23 42.5s-53 11.73-73.35 0-20.43-30.76-.24-42.49 53.04-11.74 73.36-.01zm-62.45 36.3c14.39 8.31 37.65 8.31 51.95 0s14.23-21.79-.16-30.1-37.66-8.31-52 0-14.23 21.79.17 30.1" fill="#282a7e"/><path d="M343.75 289.26l1-.06c.35 0 .69-.05 1-.09l.52-.06c.68-.08 1.37-.19 2.05-.32l.52-.1c.34-.07.68-.14 1-.23l1-.26a27.67 27.67 0 0 0 6.4-2.7 16.05 16.05 0 0 0 5.09-4.31c.14-.19.27-.39.4-.59a7.64 7.64 0 0 0 .47-.89c0-.1.09-.2.13-.3s.15-.4.21-.6.06-.2.08-.29a5.7 5.7 0 0 0 .17-.9 6.59 6.59 0 0 0-.16-2.34c-.05-.2-.1-.39-.16-.58s-.07-.19-.11-.28-.15-.38-.24-.57l-.13-.28c-.1-.19-.2-.37-.31-.55a6.49 6.49 0 0 0-.36-.55l-.19-.27a10.52 10.52 0 0 0-.87-1.05l-.25-.26a18.32 18.32 0 0 0-4-3 27.17 27.17 0 0 0-5.23-2.3l-.89-.27-.91-.25-.93-.23c-1.09-.25-2.22-.45-3.36-.6-.5-.06-1-.11-1.49-.15l-1-.07c-.84 0-1.69-.05-2.54 0h-1a29.16 29.16 0 0 0-13.07 3.79c-4.57 2.66-6.53 5.62-6.59 8.47a5.81 5.81 0 0 0 0 .59 7.33 7.33 0 0 0 .26 1.46c.09.28.19.57.31.85s.17.38.26.56a10.67 10.67 0 0 0 1.27 1.9l.23.27.47.51c.34.34.69.67 1.07 1a19.56 19.56 0 0 0 2.92 2 26.61 26.61 0 0 0 4.79 2.15l.88.29c1 .32 2.12.59 3.23.82.48.09 1 .18 1.44.25l1 .14c.5.06 1 .11 1.49.15l1 .07h1.5c.6.06 1.12.05 1.63.03z" fill="#2393c3"/><g style="isolation:isolate" clip-path="url(#j)"><path d="M393.87 276.73v1.28-.82-.46" fill="#1b1c55"/><path d="M393.86 277.19v.81a17.67 17.67 0 0 1-.34 3v-.81a17.78 17.78 0 0 0 .34-3" fill="#1c1d58"/><path d="M393.52 280.17v.83a19.35 19.35 0 0 1-.84 2.92v-.81a17.54 17.54 0 0 0 .84-2.92" fill="#1d1e5b"/><path d="M392.68 283.09v.81a20.15 20.15 0 0 1-1.38 3v-.9a20.64 20.64 0 0 0 1.38-3" fill="#1d1f5d"/><path d="M391.3 286v.81a23.74 23.74 0 0 1-2.09 3.1v-.81a24.44 24.44 0 0 0 2.09-3.1" fill="#1e2060"/><path d="M389.21 289.14v.86a28.68 28.68 0 0 1-3.22 3.46v-.81a30.2 30.2 0 0 0 3.21-3.46" fill="#1f2163"/><path d="M386 292.6v.81a40.31 40.31 0 0 1-6.57 4.87v-.82a40.28 40.28 0 0 0 6.57-4.86" fill="#202266"/><path d="M379.43 297.46v.82l-.63.37a58.51 58.51 0 0 1-11.37 5v-.82a58.66 58.66 0 0 0 11.36-5l.64-.38" fill="#212369"/><path d="M312.93 301.42v.82a56.73 56.73 0 0 1-7.48-3.59c-10.23-5.9-15.33-13.65-15.31-21.39v-.82c0 7.74 5.09 15.49 15.31 21.4a56.23 56.23 0 0 0 7.49 3.58" fill="#18194c"/></g><path d="M389.22 249.15c26.25 15.15 26.39 39.72.31 54.88s-68.5 15.16-94.75 0-26.39-39.72-.31-54.88 68.53-15.15 94.75 0zm-83.78 48.69c20.32 11.73 53.16 11.73 73.35 0s20.09-30.76-.23-42.5-53.17-11.73-73.36 0-20.08 30.75.24 42.49" fill="#171156"/><g style="isolation:isolate" clip-path="url(#k)"><path d="M403 292.8v.81a39 39 0 0 1-4.15 4.47v-.82a38.23 38.23 0 0 0 4.15-4.46" fill="#120e44"/><path d="M398.83 297.26v.82a51.51 51.51 0 0 1-8.49 6.28v-.81a51.69 51.69 0 0 0 8.49-6.29" fill="#130e46"/><path d="M304.44 308.67v.81a73 73 0 0 1-9.66-4.63c-13.21-7.63-19.78-17.64-19.78-27.63v-.82c0 10 6.57 20 19.78 27.63a73 73 0 0 0 9.66 4.64" fill="#0e0a34"/></g></g></g><g style="mix-blend-mode:screen"><g style="isolation:isolate"><g style="isolation:isolate" clip-path="url(#l)"><path d="M112.37 133.92v.82c0-4.4-3.44-8.6-8.8-11.69a33.76 33.76 0 0 0-4.52-2.17v-.82a34.41 34.41 0 0 1 4.52 2.17c5.36 3.09 8.82 7.29 8.8 11.69" fill="#18194c"/><path d="M99.05 120.06v.82c-1.18-.46-2.4-.88-3.67-1.24v-.82c1.27.37 2.49.78 3.67 1.24" fill="#191a4f"/><path d="M95.38 118.82v.82c-1-.28-2-.53-3-.74v-.82c1 .21 2 .46 3 .74" fill="#1a1b52"/><path d="M92.35 118.08v.82c-.9-.19-1.81-.35-2.74-.48v-.82c.92.14 1.83.29 2.73.48" fill="#1b1c55"/><path d="M89.62 117.6v.82c-.84-.12-1.7-.22-2.57-.29v-.81c.87.07 1.73.16 2.58.28" fill="#1c1d58"/><path d="M87 117.32v.81c-.83-.07-1.66-.11-2.5-.13v-.82c.84 0 1.67.07 2.5.14" fill="#1d1e5b"/><path d="M84.54 117.18v.82h-2.56v-.82h2.56" fill="#1d1f5d"/><path d="M82 117.19v.81q-1.37 0-2.73.18v-.82q1.36-.14 2.73-.18" fill="#1e2060"/><path d="M79.25 117.37v.82q-1.6.16-3.21.45v-.82q1.6-.28 3.21-.45" fill="#1f2163"/><path d="M76 117.82v.82a37.24 37.24 0 0 0-5 1.26v-.82a41 41 0 0 1 5-1.26" fill="#202266"/><path d="M71 119.08v.82a35.41 35.41 0 0 0-6.86 3l-.43.26v-.82l.43-.25a36.07 36.07 0 0 1 6.86-3.01" fill="#212369"/></g><g clip-path="url(#m)"><path d="M100.69 133.79v.81c0-2.59-2-5.06-5.18-6.88a19.82 19.82 0 0 0-2.66-1.27v-.82a21.15 21.15 0 0 1 2.66 1.28c3.15 1.82 5.19 4.29 5.18 6.88" fill="#003b62"/></g><g clip-path="url(#n)"><path d="M100.69 133.79v.81c0-2.59-2-5.06-5.18-6.88a19.82 19.82 0 0 0-2.66-1.27v-.82a21.15 21.15 0 0 1 2.66 1.28c3.15 1.82 5.19 4.29 5.18 6.88" fill="#003b62"/></g><g style="isolation:isolate" clip-path="url(#o)"><path d="M100.69 133.79v.81c0-2.59-2-5.06-5.18-6.88a19.82 19.82 0 0 0-2.66-1.27v-.82a21.15 21.15 0 0 1 2.66 1.28c3.15 1.82 5.19 4.29 5.18 6.88" fill="#003b62"/><path d="M92.85 125.63v.82a22.8 22.8 0 0 0-2.16-.73v-.82c.75.22 1.47.46 2.16.73" fill="#003d66"/><path d="M90.69 124.9v.82c-.58-.17-1.18-.31-1.78-.44v-.81c.61.12 1.2.27 1.78.43" fill="#003f69"/><path d="M88.91 124.47v.81c-.53-.11-1.07-.2-1.61-.28v-.81c.55.07 1.08.17 1.61.28" fill="#00426d"/><path d="M87.3 124.19v.81c-.5-.07-1-.13-1.51-.17V124c.51 0 1 .1 1.51.17" fill="#004471"/><path d="M85.79 124v.81c-.49 0-1-.07-1.48-.08v-.81c.5 0 1 0 1.48.08" fill="#004675"/><path d="M84.31 123.94v.81h-1.5v-.82h1.5" fill="#004878"/><path d="M82.81 123.94v.82c-.54 0-1.07 0-1.61.11v-.82c.54 0 1.08-.09 1.61-.11" fill="#004b7c"/><path d="M81.2 124.05v.82c-.63.06-1.26.15-1.89.26v-.81q.94-.18 1.89-.27" fill="#004d80"/><path d="M79.31 124.32v.81a22 22 0 0 0-3 .74v-.81a20.87 20.87 0 0 1 3-.74" fill="#004f84"/><path d="M76.36 125.06v.81a20.37 20.37 0 0 0-4 1.8l-.26.15V127l.26-.15a21.19 21.19 0 0 1 4-1.79" fill="#005187"/><path d="M72.07 127v.82a14.53 14.53 0 0 0-2.39 1.76v-.82a14.53 14.53 0 0 1 2.39-1.76" fill="#004f84"/><path d="M69.68 128.76v.82a10.44 10.44 0 0 0-1 1.1v-.82a10.23 10.23 0 0 1 1-1.1" fill="#004d80"/><path d="M68.66 129.86v.82a7.23 7.23 0 0 0-.61.91v-.81a6.46 6.46 0 0 1 .62-.92" fill="#004b7c"/><path d="M68 130.78v.81a6.4 6.4 0 0 0-.4.84v-.81a6.4 6.4 0 0 1 .4-.84" fill="#004878"/><path d="M67.64 131.62v.81a5.33 5.33 0 0 0-.23.82v-.81a4.76 4.76 0 0 1 .23-.82" fill="#004675"/></g><g style="isolation:isolate" clip-path="url(#p)"><path d="M71 119.08v.82a35.41 35.41 0 0 0-6.86 3l-.43.26v-.82l.43-.25a36.07 36.07 0 0 1 6.86-3.01" fill="#212369"/><path d="M63.73 122.39v.82a24.4 24.4 0 0 0-4.07 3v-.81a25.28 25.28 0 0 1 4.07-3" fill="#202266"/><path d="M59.66 125.39v.81a15.7 15.7 0 0 0-1.74 1.87v-.82a14.91 14.91 0 0 1 1.74-1.86" fill="#1f2163"/><path d="M57.92 127.25v.82a11.14 11.14 0 0 0-1.05 1.55v-.81a11.85 11.85 0 0 1 1.05-1.56" fill="#1e2060"/><path d="M56.87 128.81v.81a9.64 9.64 0 0 0-.67 1.43v-.81a9.71 9.71 0 0 1 .67-1.43" fill="#1d1f5d"/><path d="M56.2 130.24v.81a8.34 8.34 0 0 0-.4 1.39v-.81a8.08 8.08 0 0 1 .4-1.39" fill="#1d1e5b"/><path d="M55.8 131.63v.81a8.73 8.73 0 0 0-.17 1.42V133a7.52 7.52 0 0 1 .16-1.41" fill="#1c1d58"/><path d="M55.64 133v.22a1.62 1.62 0 0 1 0-.22" fill="#1b1c55"/></g><g style="isolation:isolate" clip-path="url(#q)"><path d="M67.64 131.62v.81a5.33 5.33 0 0 0-.23.82v-.81a4.76 4.76 0 0 1 .23-.82" fill="#004675"/><path d="M67.41 132.44v.81a4.82 4.82 0 0 0-.1.83v-.81a4.59 4.59 0 0 1 .1-.83" fill="#004471"/><path d="M67.31 133.27" fill="#00426d"/></g><g style="isolation:isolate" clip-path="url(#r)"><path d="M123.48 133.7v.82c0-5.89-3.87-11.79-11.66-16.28a44 44 0 0 0-5.69-2.74v-.81a42.8 42.8 0 0 1 5.7 2.73c7.78 4.49 11.67 10.39 11.65 16.28" fill="#0e0a34"/><path d="M106.13 114.69v.81a49.13 49.13 0 0 0-4.8-1.61v-.82c1.64.47 3.25 1 4.79 1.62" fill="#0f0b36"/><path d="M101.34 113.07v.82c-1.34-.39-2.72-.72-4.12-1v-.82c1.39.29 2.77.63 4.12 1" fill="#0f0b38"/><path d="M97.22 112.06v.82c-1.28-.27-2.59-.5-3.91-.69v-.81c1.32.19 2.63.41 3.92.68" fill="#100c3a"/><path d="M93.3 111.38v.81q-1.9-.27-3.84-.42V111c1.29.11 2.57.25 3.84.43" fill="#100c3c"/><path d="M89.46 111v.82c-1.29-.11-2.59-.18-3.89-.21v-.82c1.3 0 2.59.1 3.88.21" fill="#110c3e"/><path d="M85.58 110.74v.82h-4v-.82c1.35 0 2.7-.05 4 0" fill="#110d40"/><path d="M81.53 110.76v.82c-1.47 0-2.93.14-4.38.29v-.82c1.45-.14 2.92-.24 4.38-.29" fill="#120d42"/><path d="M77.15 111.05v.82c-1.7.17-3.38.4-5 .7v-.82c1.65-.29 3.34-.53 5-.7" fill="#120e44"/><path d="M72.12 111.75v.82a56 56 0 0 0-7.48 1.86v-.81a57.6 57.6 0 0 1 7.48-1.87" fill="#130e46"/><path d="M64.64 113.62v.81a44.26 44.26 0 0 0-8.64 3.81c-.16.09-.33.18-.48.28v-.81l.48-.29a44.24 44.24 0 0 1 8.65-3.8" fill="#130e48"/><path d="M55.51 117.71v.81a30.45 30.45 0 0 0-5 3.7v-.81a29.89 29.89 0 0 1 5-3.7" fill="#130e46"/><path d="M50.51 121.41v.81a21.43 21.43 0 0 0-2.45 2.64V124a22.1 22.1 0 0 1 2.45-2.63" fill="#120e44"/><path d="M48.06 124v.82a18.69 18.69 0 0 0-1.59 2.35v-.81a18.08 18.08 0 0 1 1.59-2.36" fill="#120d42"/><path d="M46.47 126.4v.81a15.21 15.21 0 0 0-1 2.25v-.82a15.59 15.59 0 0 1 1-2.24" fill="#110d40"/><path d="M45.42 128.64v.82a14 14 0 0 0-.64 2.22v-.81a14.07 14.07 0 0 1 .64-2.23" fill="#110c3e"/><path d="M44.78 130.87v.81a13.38 13.38 0 0 0-.26 2.27v-.82a13.38 13.38 0 0 1 .26-2.26" fill="#100c3c"/><path d="M44.52 133.13v1.21-1.16" fill="#100c3a"/></g><g style="isolation:isolate" clip-path="url(#s)"><path d="M123.48 133.7" fill="#1b1c55"/><path d="M123.48 134.05v.82a14.49 14.49 0 0 1-.26 2.26v-.81a13.5 13.5 0 0 0 .26-2.27" fill="#1c1d58"/><path d="M123.22 136.32v.81a14.75 14.75 0 0 1-.64 2.22v-.81a14.27 14.27 0 0 0 .64-2.22" fill="#1d1e5b"/><path d="M122.58 138.54v.81a17.55 17.55 0 0 1-1 2.25v-.82a15.59 15.59 0 0 0 1-2.24" fill="#1d1f5d"/><path d="M121.53 140.78v.82a18.08 18.08 0 0 1-1.59 2.36v-.82a18.08 18.08 0 0 0 1.59-2.36" fill="#1e2060"/><path d="M119.94 143.14v.86a23 23 0 0 1-2.45 2.63v-.81a23.89 23.89 0 0 0 2.45-2.64" fill="#1f2163"/><path d="M117.49 145.78v.81a30.31 30.31 0 0 1-5 3.7v-.81a31 31 0 0 0 5-3.7" fill="#202266"/><path d="M112.49 149.48v.81l-.48.29a44.33 44.33 0 0 1-8.66 3.8v-.81a44.87 44.87 0 0 0 8.65-3.81l.48-.28" fill="#212369"/><path d="M103.36 153.57v.81a55.86 55.86 0 0 1-7.47 1.86v-.81a59.68 59.68 0 0 0 7.48-1.86" fill="#202266"/><path d="M95.88 155.43v.81c-1.66.3-3.34.54-5 .71v-.82c1.69-.17 3.38-.4 5-.7" fill="#1f2163"/><path d="M90.85 156.13v.87a70.5 70.5 0 0 1-4.38.29v-.82c1.46 0 2.92-.15 4.38-.29" fill="#1e2060"/><path d="M86.47 156.42v.82h-4v-.82h4" fill="#1d1f5d"/><path d="M82.42 156.44v.82c-1.3 0-2.6-.11-3.89-.21v-.82c1.3.11 2.59.18 3.89.21" fill="#1d1e5b"/><path d="M78.53 156.23v.82c-1.29-.11-2.57-.25-3.84-.43v-.82c1.26.18 2.55.33 3.83.43" fill="#1c1d58"/><path d="M74.7 155.8v.82a70.86 70.86 0 0 1-3.91-.68v-.82c1.29.27 2.6.5 3.92.68" fill="#1b1c55"/><path d="M70.78 155.12v.82c-1.4-.29-2.77-.63-4.12-1v-.82c1.35.39 2.72.72 4.12 1" fill="#1a1b52"/><path d="M66.66 154.11v.82q-2.47-.7-4.79-1.62v-.82c1.54.61 3.15 1.15 4.79 1.62" fill="#191a4f"/><path d="M61.87 152.49v.82a42.21 42.21 0 0 1-5.7-2.73c-7.79-4.5-11.67-10.4-11.66-16.29v-.81c0 5.89 3.87 11.79 11.65 16.28a42.21 42.21 0 0 0 5.7 2.73" fill="#18194c"/></g><g clip-path="url(#t)"><path d="M123.48 133.7v.82c0-5.89-3.87-11.79-11.66-16.28a44 44 0 0 0-5.69-2.74v-.81a42.8 42.8 0 0 1 5.7 2.73c7.78 4.49 11.67 10.39 11.65 16.28" fill="#0e0a34"/></g><g clip-path="url(#u)"><path d="M100.69 133.79v.81c0-2.59-2-5.06-5.18-6.88a19.82 19.82 0 0 0-2.66-1.27v-.82a21.15 21.15 0 0 1 2.66 1.28c3.15 1.82 5.19 4.29 5.18 6.88" fill="#003b62"/></g><g clip-path="url(#v)"><path d="M112.37 133.92v.82c0-4.4-3.44-8.6-8.8-11.69a33.76 33.76 0 0 0-4.52-2.17v-.82a34.41 34.41 0 0 1 4.52 2.17c5.36 3.09 8.82 7.29 8.8 11.69" fill="#18194c"/></g><path d="M95.51 126.91c5.84 3.37 7.83 9 .16 13.42s-17.34 3.31-23.18-.06-7.84-9-.16-13.42 17.34-3.31 23.18.06z" fill="#2393c3"/><g style="isolation:isolate" clip-path="url(#w)"><path d="M100.69 133.79V134.73v-.94" fill="#186383"/><path d="M100.69 133.92v.81a4.68 4.68 0 0 1-.09.83v-.81a4.82 4.82 0 0 0 .1-.83" fill="#196788"/><path d="M100.59 134.75v.81a5.08 5.08 0 0 1-.24.82v-.82a4.92 4.92 0 0 0 .23-.81" fill="#196a8c"/><path d="M100.36 135.56v.82a5.26 5.26 0 0 1-.39.84v-.81a6 6 0 0 0 .4-.85" fill="#1a6d91"/><path d="M100 136.41v.81a8.25 8.25 0 0 1-.62.92v-.82a7 7 0 0 0 .62-.91" fill="#1b7195"/><path d="M99.34 137.32v.82a9.31 9.31 0 0 1-1 1.09v-.81a9.37 9.37 0 0 0 1-1.1" fill="#1c749a"/><path d="M98.32 138.42v.81a15.25 15.25 0 0 1-2.4 1.77v-.82a14.64 14.64 0 0 0 2.4-1.76" fill="#1d789e"/><path d="M95.92 140.18v.82l-.25.15a21 21 0 0 1-4 1.79v-.81a21 21 0 0 0 4-1.8l.25-.15" fill="#1e7ba3"/><path d="M91.63 142.13v.81a22 22 0 0 1-2.95.74v-.81a23.14 23.14 0 0 0 2.95-.74" fill="#1d789e"/><path d="M88.68 142.87v.81c-.63.12-1.26.2-1.89.27v-.82c.63-.06 1.26-.15 1.88-.26" fill="#1c749a"/><path d="M86.8 143.13v.87c-.53.05-1.07.09-1.6.1v-.81c.53 0 1.07-.05 1.61-.11" fill="#1b7195"/><path d="M85.19 143.24v.81h-1.51v-.81h1.5" fill="#1a6d91"/><path d="M83.69 143.25v.81c-.49 0-1 0-1.47-.08v-.81c.49 0 1 .06 1.48.08" fill="#196a8c"/><path d="M82.21 143.17v.83c-.51 0-1-.1-1.52-.17V143c.5.07 1 .12 1.51.17" fill="#196788"/><path d="M80.7 143v.81c-.54-.07-1.08-.17-1.6-.28v-.81c.53.11 1.06.2 1.61.28" fill="#186383"/><path d="M79.09 142.72v.81c-.61-.12-1.2-.27-1.78-.44v-.81c.58.16 1.17.31 1.78.44" fill="#17607f"/><path d="M77.31 142.28v.81q-1.12-.32-2.16-.72v-.82a22.8 22.8 0 0 0 2.16.73" fill="#165c7a"/><path d="M75.15 141.55v.82a20.5 20.5 0 0 1-2.66-1.28c-3.16-1.82-5.19-4.29-5.18-6.88v-.81c0 2.59 2 5.06 5.18 6.87a19.85 19.85 0 0 0 2.66 1.28" fill="#155976"/></g><g style="isolation:isolate" clip-path="url(#x)"><path d="M112.37 133.92" fill="#00426d"/><path d="M112.37 134.14v.86a9.66 9.66 0 0 1-.16 1.41v-.81a8.7 8.7 0 0 0 .16-1.42" fill="#004471"/><path d="M112.21 135.56v.81a10.38 10.38 0 0 1-.4 1.39V137a9.42 9.42 0 0 0 .4-1.39" fill="#004675"/><path d="M111.81 137v.81a9.78 9.78 0 0 1-.68 1.43v-.81a10.77 10.77 0 0 0 .67-1.43" fill="#004878"/><path d="M111.14 138.38v.81a11.22 11.22 0 0 1-1 1.56v-.81a13 13 0 0 0 1.06-1.56" fill="#004b7c"/><path d="M110.08 139.94v.81a15.7 15.7 0 0 1-1.74 1.87v-.82a16.39 16.39 0 0 0 1.73-1.86" fill="#004d80"/><path d="M108.35 141.8v.82a24.4 24.4 0 0 1-4.07 3v-.82a24.94 24.94 0 0 0 4.08-3" fill="#004f84"/><path d="M104.27 144.79v.82l-.43.25a35.79 35.79 0 0 1-6.84 3.06v-.82a34.88 34.88 0 0 0 6.86-3l.43-.26" fill="#005187"/><path d="M97 148.1v.82a40.35 40.35 0 0 1-5 1.26v-.82a37.1 37.1 0 0 0 5-1.26" fill="#004f84"/><path d="M92 149.36v.82q-1.6.28-3.21.45v-.82q1.6-.17 3.21-.45" fill="#004d80"/><path d="M88.76 149.81v.82c-.91.09-1.83.15-2.74.18V150q1.36 0 2.73-.18" fill="#004b7c"/><path d="M86 150v.82h-2.55V150h2.56" fill="#004878"/><path d="M83.47 150v.82c-.84 0-1.68-.07-2.51-.14v-.81c.83.07 1.67.11 2.51.13" fill="#004675"/><path d="M81 149.87v.81c-.86-.07-1.72-.16-2.57-.28v-.82c.85.12 1.71.22 2.57.29" fill="#004471"/><path d="M78.39 149.58v.82a47.4 47.4 0 0 1-2.74-.48v-.82c.89.19 1.81.35 2.73.48" fill="#00426d"/><path d="M75.66 149.1v.82c-1-.21-2-.46-3-.74v-.82c1 .28 2 .53 3 .74" fill="#003f69"/><path d="M72.63 148.36v.82c-1.27-.37-2.5-.78-3.67-1.24v-.82c1.17.46 2.4.88 3.67 1.24" fill="#003d66"/><path d="M69 147.12v.82a34.55 34.55 0 0 1-4.53-2.17c-5.36-3.1-8.81-7.29-8.8-11.69v-.82c0 4.4 3.45 8.6 8.8 11.69a34.55 34.55 0 0 0 4.53 2.17" fill="#003b62"/></g><path d="M120 112.7c20 11.54 20.09 30.24.23 41.78S68 166 48.05 154.48s-20.05-30.24-.23-41.77S100 101.17 120 112.7zm-63.83 37.06c15.47 8.93 40.47 8.93 55.84 0s15.29-23.41-.18-32.34-40.47-8.93-55.84 0-15.29 23.41.18 32.34" fill="#171156"/><path d="M111.83 117.42c15.47 8.93 15.55 23.41.18 32.34s-40.37 8.93-55.84 0-15.55-23.41-.17-32.34 40.36-8.93 55.83 0zM64.43 145c9.93 5.73 26.38 7.67 39.41.1s9.65-17.09-.27-22.82-26.37-7.67-39.41-.09-9.64 17.09.27 22.81" fill="#282a7e"/><path d="M103.57 122.23c9.92 5.73 13.32 15.24.27 22.82s-29.48 5.63-39.41-.1-13.31-15.23-.27-22.81 29.49-5.64 39.41.09zm-31.08 18c5.84 3.37 15.51 4.52 23.18.06s5.68-10.05-.16-13.42-15.51-4.47-23.18-.02-5.68 10.06.16 13.42" fill="#0061a2"/><g style="isolation:isolate" clip-path="url(#y)"><path d="M135 133.74V135v-1.26" fill="#100c3a"/><path d="M135 134.19v.81a17.19 17.19 0 0 1-.33 2.93v-.82a17.09 17.09 0 0 0 .34-2.92" fill="#100c3c"/><path d="M134.66 137.11v.82a19 19 0 0 1-.82 2.87v-.8a19 19 0 0 0 .82-2.87" fill="#110c3e"/><path d="M133.84 140v.82a21.65 21.65 0 0 1-1.36 2.9v-.82a20.55 20.55 0 0 0 1.36-2.9" fill="#110d40"/><path d="M132.48 142.88v.82a23.94 23.94 0 0 1-2.06 3v-.81a24.66 24.66 0 0 0 2-3.05" fill="#120d42"/><path d="M130.43 145.93v.81a29.3 29.3 0 0 1-3.16 3.41v-.82a29.34 29.34 0 0 0 3.17-3.4" fill="#120e44"/><path d="M127.26 149.33v.82a40 40 0 0 1-6.46 4.78v-.82a39.37 39.37 0 0 0 6.46-4.78" fill="#130e46"/><path d="M120.8 154.11v.82l-.62.37a58 58 0 0 1-11.18 4.91v-.81a57.43 57.43 0 0 0 11.18-4.92c.21-.12.42-.24.62-.37" fill="#130e48"/><path d="M109 159.4v.81a74.38 74.38 0 0 1-9.65 2.41v-.82a74.37 74.37 0 0 0 9.65-2.4" fill="#130e46"/><path d="M99.35 161.8v.82c-2.14.38-4.32.68-6.51.9v-.81q3.3-.33 6.51-.91" fill="#120e44"/><path d="M92.84 162.71v.81c-1.87.19-3.76.31-5.66.38v-.82c1.89-.06 3.78-.19 5.65-.37" fill="#120d42"/><path d="M87.19 163.08v.82c-1.73.06-3.48.07-5.22 0v-.81h5.23" fill="#110d40"/><path d="M82 163.11v.81c-1.68 0-3.35-.13-5-.27v-.81c1.67.14 3.34.23 5 .27" fill="#110c3e"/><path d="M76.94 162.84v.81c-1.67-.13-3.32-.32-5-.55v-.82c1.64.24 3.3.42 5 .56" fill="#100c3c"/><path d="M72 162.28v.82a83.46 83.46 0 0 1-5.06-.88v-.81c1.66.34 3.35.63 5 .87" fill="#100c3a"/><path d="M66.93 161.41v.81c-1.8-.37-3.58-.81-5.32-1.3v-.82c1.73.5 3.51.93 5.32 1.31" fill="#0f0b38"/><path d="M61.61 160.1v.82c-2.12-.61-4.19-1.31-6.19-2.1V158c2 .79 4.07 1.48 6.2 2.09" fill="#0f0b36"/><path d="M55.41 158v.81a54.88 54.88 0 0 1-7.36-3.52c-10-5.81-15.07-13.43-15-21v-.82c0 7.61 5 15.23 15 21a54.92 54.92 0 0 0 7.36 3.53" fill="#0e0a34"/></g></g></g></g><g data-name="Layer 3"><g style="isolation:isolate"><g style="isolation:isolate" clip-path="url(#z)"><path d="M87.94 42.35l1.41-.82a4.73 4.73 0 0 0-1.61 1.57l-1.41.82a4.64 4.64 0 0 1 1.61-1.57" fill="#18194c"/><path d="M86.33 43.92l1.41-.82c-.12.2-.24.41-.35.63l-1.39.82c.11-.22.23-.43.35-.63" fill="#191a4f"/><path d="M86 44.55l1.41-.82c-.08.17-.15.35-.22.53l-1.41.82c.07-.18.14-.36.22-.53" fill="#1a1b52"/><path d="M85.76 45.08l1.41-.82c-.06.16-.11.33-.16.49l-1.41.82c.05-.17.1-.33.16-.49" fill="#1b1c55"/><path d="M85.6 45.57l1.4-.82c-.05.16-.09.32-.13.48l-1.41.82c0-.16.08-.32.13-.48" fill="#1c1d58"/><path d="M85.47 46.05l1.41-.82-.09.45-1.41.82.09-.45" fill="#1d1e5b"/><path d="M85.38 46.5l1.41-.82c0 .15-.05.3-.07.45l-1.4.82c0-.15 0-.3.06-.45" fill="#1d1f5d"/><path d="M85.32 47l1.4-.82v.45l-1.41.82V47" fill="#1e2060"/><path d="M85.27 47.4l1.41-.82v.44l-1.41.82v-.44" fill="#1f2163"/><path d="M85.24 47.84l1.41-.84v.45l-1.41.82v-.45" fill="#202266"/><path d="M85.23 48.29l1.41-.82v.05c0 40.86.11 62.59.06 73.95l-1.41.82c0-11.36-.1-33.09-.06-73.95v-.05" fill="#212369"/><path d="M85.29 122.29l1.41-.82c0 3.65-.06 6.22-.13 8l-1.41.82c.07-1.8.11-4.38.13-8" fill="#202266"/><path d="M85.16 130.31l1.41-.82c0 .66-.06 1.22-.1 1.69l-1.41.82c0-.47.07-1 .1-1.69" fill="#1f2163"/><path d="M85.06 132l1.41-.82c0 .27 0 .51-.07.72l-1.41.82c0-.21.05-.45.07-.72" fill="#1e2060"/><path d="M85 132.72l1.41-.82c0 .17 0 .32-.06.46l-1.41.82c0-.14 0-.29.06-.46" fill="#1d1f5d"/><path d="M84.93 133.18l1.41-.82v.24l-1.41.82c0-.08 0-.16.05-.24" fill="#1d1e5b"/><path d="M84.88 133.42l1.41-.82a1.17 1.17 0 0 1-.05.2l-1.41.82a1.17 1.17 0 0 0 0-.2" fill="#1c1d58"/><path d="M84.83 133.62l1.41-.82a.88.88 0 0 1 0 .15l-1.41.82a.88.88 0 0 0 0-.15" fill="#1b1c55"/><path d="M84.78 133.77l1.41-.82a.37.37 0 0 1 0 .11l-1.41.82a.37.37 0 0 0 0-.11" fill="#1a1b52"/><path d="M84.73 133.88l1.41-.82a.19.19 0 0 1 0 .09l-1.41.82a.26.26 0 0 0 0-.09" fill="#191a4f"/><path d="M84.68 134l1.41-.82a.26.26 0 0 1-.11.12l-1.41.82a.32.32 0 0 0 .11-.12" fill="#18194c"/></g><g clip-path="url(#A)"><path d="M85.48 40.27l1.41-.81c.3-.18.62-.34 1-.55a1 1 0 0 0 .17-.1l-1.41.82-.17.1-1 .54" fill="#18194c"/></g><g style="isolation:isolate" clip-path="url(#B)"><path d="M86.82 39.53l1.41-.82a6.64 6.64 0 0 1 1-.52l-1.38.81a6.64 6.64 0 0 0-1 .52" fill="#18194c"/><path d="M87.85 39l1.41-.82a3 3 0 0 1 .43-.12l-1.41.82a3 3 0 0 0-.43.12" fill="#191a4f"/><path d="M88.28 38.89l1.41-.82L90 38l-1.41.82h-.33" fill="#1a1b52"/><path d="M88.61 38.84L90 38h.28l-1.41.82h-.28" fill="#1b1c55"/><path d="M88.89 38.83L90.3 38h.29l-1.41.82h-.29" fill="#1c1d58"/><path d="M89.18 38.84l1.41-.84h.31l-1.41.82h-.31" fill="#1d1e5b"/><path d="M89.49 38.87l1.41-.82.33.06-1.41.82-.33-.06" fill="#1d1f5d"/><path d="M89.82 38.93l1.41-.82.38.08-1.41.81-.38-.08" fill="#1e2060"/><path d="M90.2 39l1.41-.82.46.13-1.41.82-.46-.13" fill="#1f2163"/><path d="M90.66 39.14l1.41-.82.55.18-1.4.82-.56-.18" fill="#202266"/><path d="M91.22 39.32l1.4-.82.77.29-1.39.82-.76-.29" fill="#212369"/><path d="M92 39.61l1.41-.82 1.1.47-1.41.82-1.1-.47" fill="#22246c"/><path d="M93.08 40.08l1.41-.82c.56.25 1.18.55 1.87.89L95 41c-.69-.35-1.31-.64-1.87-.89" fill="#23256f"/><path d="M95 41l1.41-.82c1.16.57 2.53 1.29 4.14 2.16l-1.41.82c-1.61-.87-3-1.59-4.14-2.16" fill="#242672"/><path d="M99.09 43.13l1.41-.82c3.61 2 8.47 4.72 15.12 8.56l-1.41.82c-6.65-3.84-11.51-6.6-15.12-8.56" fill="#252775"/></g><g clip-path="url(#C)"><path d="M114.21 51.69l1.41-.82c14 8.09 36 21 70.89 41.12l-1.41.82c-34.92-20.16-56.88-33-70.89-41.12" fill="#252775"/></g><g style="isolation:isolate" clip-path="url(#D)"><path d="M185.1 92.81l1.41-.82v.07l-1.41.82v-.07" fill="#212369"/><path d="M185.1 92.88l1.41-.82v.08l-1.41.86v-.08" fill="#22246c"/><path d="M185.1 93l1.41-.82a.17.17 0 0 1 0 .07l-1.41.82a.17.17 0 0 0 0-.07" fill="#23256f"/><path d="M185.11 93l1.41-.82v.08l-1.41.82V93" fill="#242672"/><path d="M185.12 93.11l1.41-.82v.1l-1.41.82v-.1" fill="#252775"/><path d="M185.13 93.21l1.41-.82a.52.52 0 0 1 0 .11l-1.41.82a.52.52 0 0 0 0-.11" fill="#262878"/><path d="M185.15 93.32l1.41-.82v.12l-1.41.82v-.12" fill="#27297b"/><path d="M185.18 93.44l1.41-.82.06.26-1.41.82-.06-.26" fill="#282a7e"/><path d="M185.24 93.7l1.41-.82v.14l-1.41.82v-.14" fill="#282b80"/><path d="M185.28 93.84l1.41-.82c0 .08 0 .15.05.23l-1.41.82c0-.08 0-.15-.05-.23" fill="#282a7e"/><path d="M185.33 94.07l1.41-.82v.06l-1.41.82v-.06" fill="#27297b"/><path d="M185.34 94.13l1.41-.82v.06l-1.41.81v-.05" fill="#262878"/><path d="M185.35 94.18l1.41-.81-1.41.82v-.06" fill="#252775"/><path d="M185.36 94.24l1.41-.82-1.41.82a.11.11 0 0 0 0-.05" fill="#242672"/><path d="M185.37 94.29l1.41-.82-1.41.82" fill="#23256f"/><path d="M185.37 94.32l1.41-.82-1.41.82" fill="#22246c"/><path d="M185.37 94.35l1.41-.82-1.41.82" fill="#212369"/><path d="M185.37 94.38l1.41-.82-1.41.82" fill="#202266"/><path d="M185.37 94.4l1.41-.82-1.41.82" fill="#1f2163"/><path d="M185.37 94.42l1.41-.82-1.41.82" fill="#1e2060"/><path d="M185.37 94.45l1.41-.82-1.41.82" fill="#1d1f5d"/><path d="M185.37 94.47l1.41-.82-1.41.82" fill="#1d1e5b"/><path d="M185.36 94.49l1.41-.82-1.41.82" fill="#1c1d58"/><path d="M185.35 94.52l1.41-.82-1.41.82" fill="#1b1c55"/><path d="M185.34 94.55l1.41-.82-1.41.82" fill="#1a1b52"/><path d="M185.33 94.58l1.41-.82-1.41.82" fill="#191a4f"/><path d="M185.31 94.6l1.41-.82h-.05l-1.41.81h.05" fill="#18194c"/></g><path d="M114.21 51.69c14 8.09 36 21 70.89 41.12 0 2.19 3.84 4.83-17-7.21C155.22 78.17 133 65.16 94.57 43c-5.15-3-9.34-.59-9.34 5.34-.08 79.64.58 86.62-1 85.71a4.2 4.2 0 0 1-.54-.44 4.19 4.19 0 0 0-.69-.53c.1-95.4-1.08-90.75 3.46-93.35 3-1.73 2.76-2.47 27.75 11.96z" fill="#191a4e"/></g><g style="isolation:isolate"><path fill="#121944" d="M312.23 113.57l-.28 97-142.59-82.32.27-97.01 142.6 82.33z"/><path fill="#1a2362" d="M312.23 113.57l1.41-.82-.27 97-1.42.82.28-97z"/><path fill="#1d286d" d="M169.63 31.24l1.41-.82 142.6 82.33-1.41.82-142.6-82.33z"/></g><g style="isolation:isolate"><path fill="#003d65" d="M292.22 123.57l-.27 97-142.59-82.32.28-97.01 142.58 82.33z"/><path fill="#005791" d="M292.22 123.57l1.41-.82-.27 97-1.41.82.27-97z"/><path fill="#0061a2" d="M149.64 41.24l1.41-.82 142.58 82.33-1.41.82-142.58-82.33z"/></g><g style="isolation:isolate"><g clip-path="url(#E)"><path d="M239.77 121.48l1.41-.82c34.92 20.16 56.88 32.64 70.89 40.73l-1.41.82c-14-8.09-36-20.57-70.89-40.73" fill="#252775"/></g><path d="M310.66 162.21c25 14.43 24.75 14.91 27.73 20.07 4.51 7.82 3.35 1.83 2.91 97a2.48 2.48 0 0 0-.69-.27 1.9 1.9 0 0 1-.54-.18c-1.57-.91-.87-7.11-.5-86.57 0-5.92-4.12-13.12-9.28-16.09-38.43-22.19-60.7-34.89-73.56-42.32-20.8-12-17-10.21-17-12.39 34.96 20.18 56.92 32.66 70.93 40.75z" fill="#191a4e"/><g style="isolation:isolate" clip-path="url(#F)"><path d="M310.66 162.21l1.41-.82c3.3 1.91 6.16 3.57 8.64 5l-1.41.82c-2.48-1.46-5.34-3.12-8.64-5" fill="#252775"/><path d="M319.3 167.24l1.41-.82c3.8 2.23 6.72 4 9 5.44l-1.41.82c-2.28-1.45-5.2-3.21-9-5.44" fill="#262878"/><path d="M328.3 172.68l1.41-.82c1 .66 2 1.26 2.74 1.8l-1.41.82c-.79-.54-1.7-1.14-2.74-1.8" fill="#27297b"/><path d="M331 174.48l1.41-.82c.54.37 1 .72 1.47 1l-1.41.82c-.44-.32-.93-.67-1.47-1" fill="#282a7e"/><path d="M332.51 175.52l1.41-.82.94.71-1.41.82-.94-.71" fill="#282b80"/><path d="M333.45 176.23l1.41-.82.67.55-1.41.82-.67-.55" fill="#292c83"/><path d="M334.12 176.78l1.41-.82.52.45-1.41.82-.52-.45" fill="#2a2d86"/><path d="M334.64 177.23l1.41-.82c.14.12.27.25.39.37l-1.41.82c-.12-.12-.25-.25-.39-.37" fill="#2b2e89"/><path d="M335 177.6l1.41-.82.34.32-1.41.82-.34-.32" fill="#2c2f8c"/><path d="M335.37 177.92l1.41-.82.27.29-1.41.82-.27-.29" fill="#2d308f"/><path d="M335.64 178.21l1.41-.82c.09.09.17.19.25.28l-1.41.82c-.08-.09-.16-.19-.25-.28" fill="#2e3192"/><path d="M335.89 178.49l1.41-.82a2.75 2.75 0 0 1 .22.26l-1.41.82a2.75 2.75 0 0 0-.22-.26" fill="#474a9f"/><path d="M336.11 178.75l1.41-.82.21.26-1.41.82-.21-.26" fill="#5154a4"/><path d="M336.32 179l1.41-.82.26.34-1.41.82c-.08-.12-.17-.23-.26-.34" fill="#595ca9"/><path d="M336.58 179.35l1.41-.82.38.54-1.41.82-.38-.54" fill="#6062ac"/><path d="M337 179.89l1.41-.82c.28.43.55.87.82 1.34l-1.41.82c-.27-.48-.54-.92-.82-1.34" fill="#6668af"/><path d="M337.78 181.23l1.41-.82.61 1.05.3.52-1.41.82-.3-.52-.61-1.05" fill="#6062ac"/><path d="M338.69 182.8l1.41-.82.42.71-1.41.82-.42-.71" fill="#6668af"/><path d="M339.11 183.51l1.41-.82c.21.36.4.69.58 1l-1.41.82c-.18-.33-.37-.66-.58-1" fill="#6062ac"/><path d="M339.69 184.53l1.41-.82c.07.13.13.26.2.38l-1.41.82c-.07-.12-.13-.25-.2-.38" fill="#595ca9"/><path d="M339.89 184.91l1.41-.82.18.37-1.41.82-.18-.37" fill="#5154a4"/><path d="M340.07 185.28l1.41-.82c0 .08.07.15.1.23l-1.41.82c0-.08-.07-.15-.1-.23" fill="#474a9f"/><path d="M340.17 185.51l1.41-.82a2.44 2.44 0 0 1 .1.24l-1.41.81c0-.07-.06-.15-.1-.23" fill="#2e3192"/><path d="M340.27 185.74l1.41-.81a1.73 1.73 0 0 1 .1.24l-1.41.82a1.86 1.86 0 0 0-.1-.25" fill="#2d308f"/><path d="M340.37 186l1.41-.82.09.24-1.41.82-.09-.24" fill="#2c2f8c"/><path d="M340.46 186.23l1.41-.82c0 .1.07.19.1.29l-1.41.82c0-.1-.06-.19-.1-.29" fill="#2b2e89"/><path d="M340.56 186.52l1.41-.82c0 .09.07.19.1.29l-1.41.82c0-.1-.07-.2-.1-.29" fill="#2a2d86"/><path d="M340.66 186.81l1.41-.82.09.31-1.41.82-.09-.31" fill="#292c83"/><path d="M340.75 187.12l1.41-.82.09.35-1.41.82-.09-.35" fill="#282b80"/><path d="M340.84 187.47l1.41-.82c0 .15.07.3.1.45l-1.41.82c0-.15-.07-.3-.1-.45" fill="#282a7e"/><path d="M340.94 187.92l1.41-.82c0 .16.07.32.1.48l-1.41.82c0-.16-.07-.32-.1-.48" fill="#27297b"/><path d="M341 188.4l1.41-.82c0 .2.07.4.1.62l-1.41.81c0-.21-.07-.41-.1-.61" fill="#262878"/><path d="M341.14 189l1.41-.81c0 .25.08.52.11.8l-1.41.82c0-.28-.07-.55-.11-.81" fill="#252775"/><path d="M341.25 189.82l1.41-.82c0 .35.09.71.12 1.11l-1.41.81c0-.39-.07-.75-.12-1.1" fill="#242672"/><path d="M341.37 190.92l1.41-.81c.05.51.09 1.06.13 1.67l-1.41.82c0-.61-.08-1.16-.13-1.68" fill="#23256f"/><path d="M341.5 192.6l1.41-.82c.07 1 .12 2.2.16 3.55l-1.41.82c0-1.35-.09-2.52-.16-3.55" fill="#22246c"/><path d="M341.66 196.15l1.41-.82c.11 3.94.12 9.39.08 17.2l-1.41.82c0-7.81 0-13.26-.08-17.2" fill="#212369"/><path d="M341.74 213.35l1.41-.82c-.06 13.14-.28 32.93-.43 63.38l-1.41.82c.15-30.45.37-50.24.43-63.38" fill="#202266"/><path d="M341.31 276.73l1.41-.82v2.57l-1.4.82v-2.57" fill="#212369"/></g></g><g style="isolation:isolate"><path fill="#165c79" d="M272.23 133.57l-.28 97.01-142.59-82.33.28-97.01 142.59 82.33z"/><path fill="#2084ae" d="M272.23 133.57l1.41-.82-.28 97.01-1.41.82.28-97.01z"/><path fill="#2393c3" d="M129.64 51.24l1.41-.82 142.59 82.33-1.41.82-142.59-82.33z"/></g><g style="isolation:isolate"><path fill="#008989" d="M190.24 110.86l-.15 53.57-78.74-45.47.15-53.57 78.74 45.47z"/><path fill="#00c5c5" d="M190.24 110.86l1.41-.82-.15 53.57-1.41.82.15-53.57z"/><path fill="#00dcdc" d="M111.5 65.39l1.41-.82 78.74 45.47-1.41.82-78.74-45.47z"/></g></g><g data-name="Layer 4"><g style="mix-blend-mode:screen"><g style="isolation:isolate"><g style="isolation:isolate" clip-path="url(#G)"><path d="M87.56 275.87v.82c0-3.66-2.86-7.15-7.31-9.71a27.27 27.27 0 0 0-3.76-1.8v-.82a27.7 27.7 0 0 1 3.75 1.8c4.45 2.57 7.32 6.06 7.31 9.71" fill="#003b62"/><path d="M76.5 264.36v.82a31 31 0 0 0-3-1v-.82c1 .3 2.07.65 3 1" fill="#003d66"/><path d="M73.45 263.33v.82c-.82-.24-1.66-.44-2.52-.62v-.82c.86.18 1.7.39 2.52.62" fill="#003f69"/><path d="M70.93 262.71v.82c-.74-.16-1.5-.29-2.27-.4v-.81c.77.11 1.53.24 2.27.39" fill="#00426d"/><path d="M68.66 262.32v.81c-.71-.1-1.42-.18-2.14-.24v-.81c.72.06 1.44.14 2.14.24" fill="#004471"/><path d="M66.52 262.08v.81c-.69-.05-1.38-.09-2.08-.11V262c.7 0 1.39 0 2.08.11" fill="#004675"/><path d="M64.44 262v.81h-2.12V262h2.12" fill="#004878"/><path d="M62.32 262v.82c-.76 0-1.52.08-2.27.15v-.81c.76-.08 1.51-.13 2.27-.16" fill="#004b7c"/><path d="M60.05 262.13v.81c-.89.09-1.78.21-2.67.37v-.81c.89-.16 1.78-.29 2.67-.37" fill="#004d80"/><path d="M57.38 262.5v.81a32.07 32.07 0 0 0-4.16 1.05v-.82a32 32 0 0 1 4.16-1" fill="#004f84"/><path d="M53.22 263.54v.82a28.62 28.62 0 0 0-5.7 2.54l-.36.21v-.82l.36-.21a29.82 29.82 0 0 1 5.7-2.54" fill="#005187"/><path d="M47.16 266.29v.82a20.86 20.86 0 0 0-3.38 2.48v-.81a20.87 20.87 0 0 1 3.38-2.49" fill="#004f84"/><path d="M43.78 268.78v.81a13.65 13.65 0 0 0-1.44 1.55v-.82a13.59 13.59 0 0 1 1.44-1.54" fill="#004d80"/><path d="M42.34 270.32v.82a9.74 9.74 0 0 0-.87 1.29v-.81a9.21 9.21 0 0 1 .87-1.3" fill="#004b7c"/><path d="M41.47 271.62v.81a8.47 8.47 0 0 0-.56 1.19v-.81a7.54 7.54 0 0 1 .56-1.19" fill="#004878"/><path d="M40.91 272.81v.81a7.26 7.26 0 0 0-.34 1.16V274a6.22 6.22 0 0 1 .33-1.15" fill="#004675"/><path d="M40.58 274v.82a7.76 7.76 0 0 0-.13 1.17v-.82a6.67 6.67 0 0 1 .14-1.17" fill="#004471"/><path d="M40.44 275.13" fill="#00426d"/></g><g style="isolation:isolate" clip-path="url(#H)"><path d="M103.48 275.71v.81c0-5.89-3.87-11.79-11.65-16.28a43.4 43.4 0 0 0-5.7-2.73v-.82a42.21 42.21 0 0 1 5.7 2.73c7.78 4.5 11.67 10.4 11.65 16.29" fill="#18194c"/><path d="M86.13 256.69v.82q-2.32-.92-4.8-1.62v-.82c1.64.47 3.25 1 4.79 1.62" fill="#191a4f"/><path d="M81.34 255.07v.82c-1.34-.38-2.72-.72-4.11-1v-.82c1.4.29 2.77.63 4.12 1" fill="#1a1b52"/><path d="M77.22 254.06v.82c-1.29-.27-2.6-.49-3.92-.68v-.82c1.32.19 2.63.42 3.92.68" fill="#1b1c55"/><path d="M73.3 253.38v.82c-1.27-.18-2.55-.32-3.84-.43V253c1.28.11 2.56.25 3.83.43" fill="#1c1d58"/><path d="M69.47 253v.82c-1.29-.11-2.59-.18-3.89-.21v-.81c1.3 0 2.59.1 3.89.2" fill="#1d1e5b"/><path d="M65.58 252.75v.81h-4v-.81c1.35-.05 2.7-.06 4 0" fill="#1d1f5d"/><path d="M61.53 252.77v.81c-1.47 0-2.93.15-4.38.29v-.81c1.45-.15 2.92-.24 4.38-.29" fill="#1e2060"/><path d="M57.15 253.06v.81c-1.7.17-3.38.4-5 .7v-.81c1.65-.3 3.34-.53 5-.7" fill="#1f2163"/><path d="M52.12 253.76v.81a59.25 59.25 0 0 0-7.48 1.86v-.81a56.39 56.39 0 0 1 7.48-1.86" fill="#202266"/><path d="M44.64 255.62v.81a44.87 44.87 0 0 0-8.64 3.81l-.48.28v-.81l.48-.29a44.85 44.85 0 0 1 8.65-3.8" fill="#212369"/><path d="M35.51 259.71v.81a30.48 30.48 0 0 0-5 3.71v-.82a29.89 29.89 0 0 1 5-3.7" fill="#202266"/><path d="M30.51 263.41v.82a22.1 22.1 0 0 0-2.45 2.63V266a23 23 0 0 1 2.45-2.63" fill="#1f2163"/><path d="M28.06 266v.82a18.08 18.08 0 0 0-1.59 2.36v-.82a18.78 18.78 0 0 1 1.59-2.36" fill="#1e2060"/><path d="M26.47 268.4v.82a15.59 15.59 0 0 0-1 2.24v-.81a15.21 15.21 0 0 1 1-2.25" fill="#1d1f5d"/><path d="M25.42 270.65v.81a14.07 14.07 0 0 0-.64 2.23v-.82a14 14 0 0 1 .64-2.22" fill="#1d1e5b"/><path d="M24.78 272.87v.82a13.26 13.26 0 0 0-.26 2.26v-.81a13.38 13.38 0 0 1 .26-2.27" fill="#1c1d58"/><path d="M24.52 275.14v1.21-1.16" fill="#1b1c55"/></g><g clip-path="url(#I)"><path d="M103.48 275.71v.81c0-5.89-3.87-11.79-11.65-16.28a43.4 43.4 0 0 0-5.7-2.73v-.82a42.21 42.21 0 0 1 5.7 2.73c7.78 4.5 11.67 10.4 11.65 16.29" fill="#18194c"/></g><g style="isolation:isolate" clip-path="url(#J)"><path d="M119.75 275.75v.82c0-8.32-5.46-16.65-16.45-23a61.5 61.5 0 0 0-8-3.86v-.81a60.2 60.2 0 0 1 8 3.85c11 6.35 16.48 14.68 16.46 23" fill="#0e0a34"/><path d="M95.25 248.91v.81q-3.28-1.29-6.77-2.28v-.82c2.32.66 4.59 1.43 6.77 2.29" fill="#0f0b36"/><path d="M88.48 246.62v.82q-2.85-.81-5.82-1.43v-.81q3 .62 5.81 1.42" fill="#0f0b38"/><path d="M82.67 245.2v.8c-1.81-.37-3.66-.69-5.52-1v-.81a64 64 0 0 1 5.53 1" fill="#100c3a"/><path d="M77.14 244.24v.81q-2.69-.37-5.42-.6v-.82q2.73.23 5.42.61" fill="#100c3c"/><path d="M71.72 243.63v.82q-2.73-.22-5.49-.3v-.81c1.84 0 3.67.14 5.49.29" fill="#110c3e"/><path d="M66.23 243.34v.81c-1.9-.05-3.81 0-5.71 0v-.82c1.9-.06 3.8-.07 5.7 0" fill="#110d40"/><path d="M60.53 243.36v.82q-3.1.1-6.18.41v-.81c2-.21 4.11-.35 6.18-.42" fill="#120d42"/><path d="M54.35 243.78v.81c-2.39.24-4.77.57-7.11 1v-.81c2.34-.43 4.72-.76 7.12-1" fill="#120e44"/><path d="M47.23 244.77v.81a80.93 80.93 0 0 0-10.55 2.63v-.82a80.92 80.92 0 0 1 10.55-2.62" fill="#130e46"/><path d="M36.68 247.39v.82a63.14 63.14 0 0 0-12.22 5.37l-.68.4v-.81c.22-.14.45-.27.68-.4a63.16 63.16 0 0 1 12.22-5.38" fill="#130e48"/><path d="M23.78 253.17v.83a43.56 43.56 0 0 0-7.06 5.23v-.81a43 43 0 0 1 7.06-5.23" fill="#130e46"/><path d="M16.72 258.4v.81a32.21 32.21 0 0 0-3.46 3.72v-.82a33.05 33.05 0 0 1 3.46-3.71" fill="#120e44"/><path d="M13.26 262.11v.82a26.24 26.24 0 0 0-2.26 3.33v-.82a27.34 27.34 0 0 1 2.24-3.33" fill="#120d42"/><path d="M11 265.44v.82a22.17 22.17 0 0 0-1.49 3.17v-.82a22.62 22.62 0 0 1 1.49-3.17" fill="#110d40"/><path d="M9.54 268.61v.82a20.15 20.15 0 0 0-.9 3.13v-.81a20.26 20.26 0 0 1 .9-3.14" fill="#110c3e"/><path d="M8.64 271.75v.81a19.36 19.36 0 0 0-.36 3.2V275a18.25 18.25 0 0 1 .37-3.2" fill="#100c3c"/><path d="M8.27 275v1.3-.81-.49" fill="#100c3a"/></g><g clip-path="url(#K)"><path d="M87.56 275.87v.82c0-3.66-2.86-7.15-7.31-9.71a27.27 27.27 0 0 0-3.76-1.8v-.82a27.7 27.7 0 0 1 3.75 1.8c4.45 2.57 7.32 6.06 7.31 9.71" fill="#003b62"/></g><g style="isolation:isolate" clip-path="url(#L)"><path d="M87.56 275.87" fill="#186383"/><path d="M87.56 276.05v.82a6.67 6.67 0 0 1-.14 1.17v-.81a6.87 6.87 0 0 0 .13-1.18" fill="#196788"/><path d="M87.43 277.23v.77a6.31 6.31 0 0 1-.33 1.16v-.82a7.15 7.15 0 0 0 .34-1.15" fill="#196a8c"/><path d="M87.09 278.38v.82a8.47 8.47 0 0 1-.56 1.19v-.82a7.9 7.9 0 0 0 .55-1.19" fill="#1a6d91"/><path d="M86.54 279.57v.82a9.74 9.74 0 0 1-.87 1.29v-.82a10.94 10.94 0 0 0 .88-1.29" fill="#1b7195"/><path d="M85.66 280.86v.82a13.65 13.65 0 0 1-1.44 1.55v-.82a13.65 13.65 0 0 0 1.44-1.55" fill="#1c749a"/><path d="M84.22 282.41v.82a20.54 20.54 0 0 1-3.39 2.48v-.81a20.87 20.87 0 0 0 3.38-2.49" fill="#1d789e"/><path d="M80.84 284.9v.81l-.35.21a28.88 28.88 0 0 1-5.7 2.54v-.81a29.82 29.82 0 0 0 5.7-2.54l.36-.21" fill="#1e7ba3"/><path d="M74.78 287.65v.81a32.21 32.21 0 0 1-4.17 1.05v-.82a32 32 0 0 0 4.16-1" fill="#1d789e"/><path d="M70.62 288.69v.82c-.88.16-1.77.28-2.66.37v-.82c.89-.08 1.78-.21 2.67-.37" fill="#1c749a"/><path d="M68 289.06v.82c-.76.08-1.51.13-2.27.15v-.81c.76 0 1.51-.08 2.27-.16" fill="#1b7195"/><path d="M65.68 289.22v.78h-2.12v-.81h2.12" fill="#1a6d91"/><path d="M63.56 289.23v.77c-.7 0-1.39-.05-2.08-.11v-.82c.69.06 1.38.1 2.08.12" fill="#196a8c"/><path d="M61.48 289.11v.82c-.72-.06-1.43-.14-2.14-.24v-.82c.71.1 1.42.18 2.14.24" fill="#196788"/><path d="M59.34 288.87v.82c-.77-.11-1.53-.24-2.27-.4v-.81c.75.15 1.5.29 2.27.39" fill="#186383"/><path d="M57.07 288.48v.81c-.86-.17-1.7-.38-2.51-.61v-.82c.82.23 1.66.44 2.51.62" fill="#17607f"/><path d="M54.56 287.86v.82c-1.06-.3-2.08-.65-3.05-1v-.82c1 .38 2 .73 3.05 1" fill="#165c7a"/><path d="M51.51 286.83v.82a28.47 28.47 0 0 1-3.76-1.8c-4.45-2.57-7.32-6.06-7.31-9.72v-.81c0 3.65 2.86 7.14 7.31 9.71a28.42 28.42 0 0 0 3.76 1.8" fill="#155976"/></g><path d="M80.25 266.16c8.24 4.76 11.06 12.65.23 18.95S56 289.79 47.75 285s-11.06-12.65-.23-18.95 24.48-4.65 32.73.11z" fill="#2393c3"/><g style="isolation:isolate" clip-path="url(#M)"><path d="M103.48 275.71" fill="#00426d"/><path d="M103.48 276.05v.82a14.62 14.62 0 0 1-.26 2.27v-.82a13.38 13.38 0 0 0 .26-2.27" fill="#004471"/><path d="M103.22 278.32v.82a15.45 15.45 0 0 1-.64 2.22v-.82a13.66 13.66 0 0 0 .64-2.22" fill="#004675"/><path d="M102.58 280.54v.82a16.75 16.75 0 0 1-1 2.24v-.81a15.21 15.21 0 0 0 1-2.25" fill="#004878"/><path d="M101.53 282.79v.81a18.08 18.08 0 0 1-1.59 2.4v-.81a18.78 18.78 0 0 0 1.59-2.36" fill="#004b7c"/><path d="M99.94 285.15v.85a23 23 0 0 1-2.45 2.63v-.81a23 23 0 0 0 2.45-2.63" fill="#004d80"/><path d="M97.49 287.78v.81a30.92 30.92 0 0 1-5 3.71v-.82a29.89 29.89 0 0 0 5-3.7" fill="#004f84"/><path d="M92.49 291.48v.82l-.48.28a45 45 0 0 1-8.66 3.81v-.82a44.24 44.24 0 0 0 8.65-3.8l.48-.29" fill="#005187"/><path d="M83.36 295.57v.82a59.09 59.09 0 0 1-7.47 1.86v-.82a56.39 56.39 0 0 0 7.48-1.86" fill="#004f84"/><path d="M75.88 297.43v.82c-1.66.3-3.34.53-5 .7v-.82c1.69-.17 3.38-.4 5-.7" fill="#004d80"/><path d="M70.85 298.13v.87c-1.45.14-2.91.24-4.37.29v-.81c1.46-.05 2.93-.15 4.38-.3" fill="#004b7c"/><path d="M66.47 298.43v.81c-1.35.05-2.7.05-4 0v-.82h4" fill="#004878"/><path d="M62.42 298.44v.82c-1.3 0-2.6-.1-3.89-.21v-.81c1.29.1 2.58.17 3.88.2" fill="#004675"/><path d="M58.54 298.24v.81c-1.29-.1-2.57-.25-3.84-.43v-.81c1.27.18 2.55.32 3.84.43" fill="#004471"/><path d="M54.7 297.81v.81c-1.32-.18-2.62-.41-3.91-.68v-.81c1.29.26 2.6.49 3.92.68" fill="#00426d"/><path d="M50.78 297.13v.81c-1.4-.29-2.77-.62-4.12-1v-.81c1.35.38 2.72.72 4.12 1" fill="#003f69"/><path d="M46.66 296.12v.81q-2.47-.71-4.79-1.62v-.81c1.54.61 3.15 1.15 4.79 1.62" fill="#003d66"/><path d="M41.87 294.5v.81a42.21 42.21 0 0 1-5.7-2.73c-7.78-4.49-11.67-10.39-11.66-16.28v-.82c0 5.89 3.87 11.79 11.65 16.29a42.21 42.21 0 0 0 5.7 2.73" fill="#003b62"/></g><path d="M91.83 259.42c15.47 8.94 15.55 23.41.18 32.35s-40.37 8.93-55.84 0-15.55-23.41-.17-32.35 40.36-8.93 55.83 0zM47.75 285c8.24 4.76 21.9 6.37 32.73.08s8-14.19-.23-18.95-21.9-6.37-32.73-.08-8 14.19.23 18.95" fill="#0061a2"/><g style="isolation:isolate" clip-path="url(#N)"><path d="M119.75 275.75v0" fill="#1b1c55"/><path d="M119.74 276.24v.82a19.25 19.25 0 0 1-.37 3.2v-.82a18.25 18.25 0 0 0 .37-3.2" fill="#1c1d58"/><path d="M119.37 279.44v.82a20.26 20.26 0 0 1-.9 3.14v-.82a20.26 20.26 0 0 0 .9-3.14" fill="#1d1e5b"/><path d="M118.47 282.58v.82a23.7 23.7 0 0 1-1.48 3.16v-.81a22.1 22.1 0 0 0 1.48-3.17" fill="#1d1f5d"/><path d="M117 285.75v.81a26.43 26.43 0 0 1-2.25 3.34v-.82a26.33 26.33 0 0 0 2.25-3.33" fill="#1e2060"/><path d="M114.74 289.08v.82a31.29 31.29 0 0 1-3.46 3.71v-.81a32.93 32.93 0 0 0 3.45-3.72" fill="#1f2163"/><path d="M111.29 292.8v.81a42.56 42.56 0 0 1-7.06 5.23V298a44 44 0 0 0 7.06-5.23" fill="#202266"/><path d="M104.23 298v.81c-.22.14-.45.27-.68.4a62.78 62.78 0 0 1-12.21 5.37v-.81a63.31 63.31 0 0 0 12.21-5.37l.68-.4" fill="#212369"/><path d="M32.76 302.28v.82a61.63 61.63 0 0 1-8-3.86c-11-6.35-16.47-14.67-16.45-23v-.81c0 8.31 5.47 16.64 16.46 23a59.66 59.66 0 0 0 8 3.86" fill="#18194c"/></g><path d="M114.75 246.11c28.2 16.28 28.36 42.69.33 59s-73.62 16.29-101.83 0-28.35-42.7-.33-59 73.62-16.29 101.83 0zm-90 52.31c21.84 12.61 57.13 12.61 78.83 0s21.58-33.06-.26-45.67-57.13-12.6-78.83 0-21.58 33 .26 45.65" fill="#171156"/><path d="M103.29 252.76c21.84 12.61 22 33.06.26 45.67s-57 12.6-78.83 0-21.95-33.05-.26-45.65 56.99-12.63 78.83-.02zm-67.12 39c15.47 8.93 40.47 8.93 55.84 0s15.29-23.41-.18-32.35-40.47-8.93-55.84 0-15.29 23.42.18 32.35" fill="#282a7e"/><g style="isolation:isolate" clip-path="url(#O)"><path d="M136 275.8v1.45-.82-.63" fill="#100c3a"/><path d="M136 276.43v.82a25.12 25.12 0 0 1-.47 4.13v-.82a25.12 25.12 0 0 0 .47-4.13" fill="#100c3c"/><path d="M135.52 280.56v.82a26.19 26.19 0 0 1-1.17 4.05v-.81a26.26 26.26 0 0 0 1.16-4.06" fill="#110c3e"/><path d="M134.36 284.62v.81a28.54 28.54 0 0 1-1.91 4.1v-.82a29.62 29.62 0 0 0 1.92-4.09" fill="#110d40"/><path d="M132.44 288.71v.82a35.27 35.27 0 0 1-2.9 4.3V293a34.51 34.51 0 0 0 2.9-4.3" fill="#120d42"/><path d="M129.54 293v.82a42.23 42.23 0 0 1-4.47 4.8v-.82a40.5 40.5 0 0 0 4.46-4.8" fill="#120e44"/><path d="M125.08 297.81v.82a55.62 55.62 0 0 1-9.12 6.75v-.81a56.52 56.52 0 0 0 9.12-6.76" fill="#130e46"/><path d="M23.64 310.06v.82a77.19 77.19 0 0 1-10.39-5C-.94 297.71-8 287-8 276.21v-.82c0 10.74 7.06 21.5 21.25 29.7a78.38 78.38 0 0 0 10.39 5" fill="#0e0a34"/></g></g></g><g style="isolation:isolate"><g style="isolation:isolate" clip-path="url(#P)"><path d="M161.65 117.66l3.52-2 .26-.11-3.52 2-.26.12" fill="#18194c"/><path d="M161.91 117.54l3.52-2 .23-.07-3.52 2-.23.06" fill="#191a4f"/><path d="M162.14 117.48l3.52-2h.2l-3.52 2h-.2" fill="#1a1b52"/><path d="M162.34 117.45l3.52-2h.14l-3.52 2h-.18" fill="#1b1c55"/><path d="M162.52 117.44l3.52-2h.17l-3.52 2h-.17" fill="#1c1d58"/><path d="M162.69 117.45l3.52-2h.16l-3.52 2h-.16" fill="#1d1e5b"/><path d="M162.85 117.47l3.52-2h.16l-3.52 2h-.16" fill="#1d1f5d"/><path d="M163 117.49l3.52-2h.16l-3.52 2H163" fill="#1e2060"/><path d="M163.17 117.53l3.52-2h.16l-3.52 2h-.16" fill="#1f2163"/><path d="M163.33 117.57l3.52-2 .16.06-3.52 2-.16-.05" fill="#202266"/><path d="M163.49 117.62l3.52-2h.16l-3.53 2.05-.15-.06" fill="#212369"/><path d="M163.64 117.68l3.53-2.05.16.07-3.53 2-.16-.07" fill="#22246c"/><path d="M163.8 117.75l3.53-2 .16.08-3.53 2a.8.8 0 0 0-.16-.08" fill="#23256f"/><path d="M164 117.83l3.53-2 .16.08-3.52 2-.17-.08" fill="#242672"/><path d="M164.13 117.91l3.52-2 .13.07-3.53 2-.12-.07" fill="#252775"/></g><path d="M164.25 118a7.39 7.39 0 0 1 3.54 6.09c0 2.7-1.79 3-3.56 2a7.37 7.37 0 0 1-3.54-6.1c.01-2.71 1.79-2.99 3.56-1.99z" fill="#191a4e"/><g style="isolation:isolate" clip-path="url(#Q)"><path d="M164.25 118l3.53-2-3.52 2" fill="#252775"/><path d="M164.29 118l3.52-2 .17.11-3.52 2-.17-.1" fill="#262878"/><path d="M164.46 118.1l3.52-2 .17.11-3.52 2-.17-.12" fill="#27297b"/><path d="M164.63 118.22l3.52-2 .17.12-3.52 2-.17-.12" fill="#282a7e"/><path d="M164.8 118.34l3.52-2 .18.13-3.53 2-.17-.13" fill="#282b80"/><path d="M165 118.47l3.53-2 .17.15-3.52 2-.18-.14" fill="#292c83"/><path d="M165.15 118.61l3.52-2a.8.8 0 0 1 .17.15l-3.52 2-.17-.15" fill="#2a2d86"/><path d="M165.32 118.76l3.52-2 .17.15-3.52 2-.17-.16" fill="#2b2e89"/><path d="M165.49 118.92l3.52-2c.05 0 .11.1.16.16l-3.53 2-.15-.16" fill="#2c2f8c"/><path d="M165.64 119.08l3.53-2 .15.16-3.52 2-.16-.15" fill="#2d308f"/><path d="M165.8 119.23l3.52-2 .14.15-3.53 2c0-.06-.09-.11-.13-.16" fill="#2e3192"/><path d="M165.93 119.39l3.53-2s.09.1.13.16l-3.52 2-.14-.16" fill="#474a9f"/><path d="M166.07 119.55l3.52-2 .14.16-3.53 2c0-.06-.09-.11-.13-.16" fill="#5154a4"/><path d="M166.2 119.71l3.53-2 .15.2-3.53 2-.15-.2" fill="#595ca9"/><path d="M166.35 119.91l3.53-2 .21.3-3.53 2c-.06-.1-.14-.2-.21-.3" fill="#6062ac"/><path d="M166.56 120.21l3.53-2 .21.34-3.52 2a4 4 0 0 0-.22-.34" fill="#6668af"/><path d="M166.78 120.55l3.52-2a3.07 3.07 0 0 1 .17.31l-3.52 2c0-.1-.11-.2-.17-.3" fill="#6062ac"/><path d="M167 120.85l3.52-2c0 .06.07.13.11.2l-3.53 2c0-.06-.06-.13-.1-.2" fill="#595ca9"/><path d="M167.05 121.05l3.53-2 .07.15-3.52 2s0-.11-.08-.16" fill="#5154a4"/><path d="M167.13 121.21l3.52-2a1 1 0 0 1 .07.15l-3.52 2-.07-.15" fill="#474a9f"/><path d="M167.2 121.36l3.52-2 .07.15-3.53 2.05-.06-.15" fill="#2e3192"/><path d="M167.26 121.51l3.53-2.05.06.16-3.53 2a.94.94 0 0 0-.06-.15" fill="#2d308f"/><path d="M167.32 121.66l3.53-2 .06.15-3.53 2a1.66 1.66 0 0 0-.06-.16" fill="#2c2f8c"/><path d="M167.38 121.82l3.53-2 .06.17-3.53 2-.06-.17" fill="#2b2e89"/><path d="M167.44 122l3.53-2a1.54 1.54 0 0 0 .05.17l-3.52 2-.06-.17" fill="#2a2d86"/><path d="M167.5 122.16l3.52-2v.18l-3.52 2a1.54 1.54 0 0 1-.05-.17" fill="#292c83"/><path d="M167.55 122.33l3.52-2s0 .11.05.18l-3.53 2v-.18" fill="#282b80"/><path d="M167.59 122.51l3.53-2v.18l-3.52 2v-.19" fill="#282a7e"/><path d="M167.64 122.7l3.52-2a1.06 1.06 0 0 1 0 .19l-3.52 2a1.16 1.16 0 0 1 0-.18" fill="#27297b"/><path d="M167.68 122.88l3.52-2v.19l-3.52 2v-.19" fill="#262878"/><path d="M167.71 123.07l3.52-2v.19l-3.52 2v-.19" fill="#252775"/><path d="M167.74 123.26l3.52-2v.19l-3.52 2a1.23 1.23 0 0 1 0-.2" fill="#242672"/><path d="M167.76 123.46l3.52-2v.2l-3.53 2v-.2" fill="#23256f"/><path d="M167.77 123.66l3.53-2a1.48 1.48 0 0 0 0 .21l-3.53 2.05a1.48 1.48 0 0 0 0-.21" fill="#22246c"/><path d="M167.78 123.87l3.53-2.05v.2l-3.52 2v-.2" fill="#212369"/><path d="M167.79 124.08l3.52-2a1.55 1.55 0 0 1 0 .22l-3.52 2a1.48 1.48 0 0 1 0-.21" fill="#202266"/><path d="M167.78 124.29l3.52-2a1.34 1.34 0 0 1 0 .2l-3.52 2v-.21" fill="#1f2163"/><path d="M167.77 124.5l3.52-2a1.11 1.11 0 0 1 0 .19l-3.52 2v-.19" fill="#1e2060"/><path d="M167.75 124.69l3.52-2v.19l-3.52 2v-.19" fill="#1d1f5d"/><path d="M167.72 124.88l3.52-2v.19l-3.53 2a1 1 0 0 0 0-.18" fill="#1d1e5b"/><path d="M167.68 125.06l3.53-2c0 .06 0 .12-.05.18l-3.53 2a1.05 1.05 0 0 0 .05-.19" fill="#1c1d58"/><path d="M167.63 125.25l3.53-2-.06.19-3.53 2a.55.55 0 0 0 .06-.18" fill="#1b1c55"/><path d="M167.57 125.43l3.53-2-.09.19-3.52 2a1.19 1.19 0 0 0 .08-.2" fill="#1a1b52"/><path d="M167.49 125.63l3.52-2a.94.94 0 0 1-.12.22l-3.52 2 .12-.22" fill="#191a4f"/><path d="M167.37 125.85l3.52-2a1.64 1.64 0 0 1-.54.54l-3.53 2a1.46 1.46 0 0 0 .55-.53" fill="#18194c"/></g></g><g style="isolation:isolate"><g clip-path="url(#R)"><path d="M95.34 162.21l-1.41-.81c14-8.1 36-20.58 70.89-40.74l1.41.82c-34.92 20.16-56.88 32.64-70.89 40.73" fill="#252775"/></g><path d="M95.34 162.21c14-8.09 36-20.57 70.89-40.73 0 2.18 3.84.39-17 12.39-12.86 7.43-35.13 20.13-73.56 42.32-5.16 3-9.31 10.18-9.28 16.09.37 79.47 1.07 85.67-.5 86.57a1.94 1.94 0 0 1-.53.18 2.33 2.33 0 0 0-.69.27c-.45-95.19-1.6-89.2 2.9-97 3.02-5.18 2.78-5.66 27.77-20.09z" fill="#242671"/><g style="isolation:isolate" clip-path="url(#S)"><path d="M64.71 279.3l-1.41-.82c-.3-63.34-.91-81.88 0-89.5l1.41.82c-1 7.61-.34 26.15 0 89.5" fill="#18194c"/><path d="M64.75 189.8l-1.41-.8c.09-.67.18-1.25.29-1.77L65 188c-.11.52-.2 1.1-.29 1.77" fill="#191a4f"/><path d="M65 188l-1.41-.82c.07-.32.14-.62.22-.9l1.41.82c-.08.28-.15.58-.22.9" fill="#1a1b52"/><path d="M65.26 187.13l-1.41-.82c0-.21.11-.4.17-.59l1.41.82c-.06.19-.12.38-.17.59" fill="#1b1c55"/><path d="M65.43 186.54l-1.43-.82c.06-.18.12-.35.19-.51l1.41.82c-.07.16-.13.33-.19.51" fill="#1c1d58"/><path d="M65.62 186l-1.41-.82a3.38 3.38 0 0 1 .18-.44l1.41.82a3.38 3.38 0 0 0-.18.44" fill="#1d1e5b"/><path d="M65.8 185.59l-1.41-.82a3.82 3.82 0 0 1 .21-.46l1.41.82a3.82 3.82 0 0 0-.21.46" fill="#1d1f5d"/><path d="M66 185.13l-1.41-.82.28-.56 1.41.82c-.1.19-.19.37-.28.56" fill="#1e2060"/><path d="M66.29 184.57l-1.41-.82c.19-.34.39-.69.61-1.06l1.41.81c-.22.38-.42.72-.61 1.07" fill="#1f2163"/><path d="M66.9 183.5l-1.41-.81c.11-.19.22-.39.35-.6l1.4.82-.34.59" fill="#202266"/><path d="M67.24 182.91l-1.4-.82c.11-.2.24-.41.37-.63l.6-1.05 1.41.82-.61 1.05c-.12.22-.25.43-.37.63" fill="#1f2163"/><path d="M68.22 181.23l-1.41-.82c.22-.37.42-.72.64-1.06l1.41.82c-.22.34-.42.69-.64 1.06" fill="#202266"/><path d="M68.86 180.17l-1.41-.82c.12-.2.25-.39.38-.58l1.41.82c-.13.19-.26.38-.38.58" fill="#212369"/><path d="M69.24 179.59l-1.41-.82.38-.51 1.41.82-.38.51" fill="#22246c"/><path d="M69.62 179.08l-1.41-.82c.14-.18.3-.37.46-.55l1.41.82c-.17.18-.32.37-.46.55" fill="#23256f"/><path d="M70.08 178.53l-1.41-.82c.21-.25.45-.5.7-.75l1.41.82c-.25.25-.49.5-.7.75" fill="#242672"/><path d="M70.78 177.78l-1.41-.78c2.74-2.71 8.33-6.2 24.56-15.56l1.41.81c-16.23 9.37-21.82 12.86-24.56 15.57" fill="#252775"/></g></g></g></g></svg>