<svg xmlns="http://www.w3.org/2000/svg" viewBox="0 0 400 300"><defs><filter id="a"><feGaussianBlur stdDeviation="7"/></filter><clipPath id="b"><path d="M295.07 112.24c0 11.6 8.12 25.74 18.22 31.57l-.7.41c-10.1-5.83-18.26-20-18.23-31.57z" fill="none"/></clipPath><clipPath id="c"><path d="M313.27 152.46a24.8 24.8 0 0 0 10.05 3.47l-.7.41a24.8 24.8 0 0 1-10.05-3.47z" fill="none"/></clipPath><clipPath id="d"><path d="M305.93 127.72a22 22 0 0 0 7.38 7.33l-.7.41a22 22 0 0 1-7.39-7.33z" fill="none"/></clipPath><clipPath id="e"><path d="M302.6 116.59a20.88 20.88 0 0 0 3.33 11.13l-.71.41a21 21 0 0 1-3.33-11.13c0-3.76 1.16-6 2.91-7l.71-.41c-1.76 1-2.9 3.24-2.91 7z" fill="none"/></clipPath><clipPath id="f"><path d="M287.54 107.89c-.05 16.39 11.47 36.34 25.73 44.57l-.7.41c-14.26-8.23-25.78-28.18-25.73-44.57 0-8.14 2.89-13.86 7.53-16.55l.7-.41c-4.63 2.66-7.51 8.42-7.53 16.55z" fill="none"/></clipPath><clipPath id="g"><path d="M300.4 100.51c-3.28 1.91-5.31 6-5.33 11.73l-.71.41c0-5.77 2.06-9.82 5.34-11.73z" fill="none"/></clipPath><clipPath id="h"><path d="M323.32 155.93a13.86 13.86 0 0 0 8.32-1.67l-.71.41a13.85 13.85 0 0 1-8.31 1.67l.35-.21h.05l.13-.07s.15-.13.17-.13z" fill="none"/></clipPath><clipPath id="i"><path d="M313.29 143.81c5.08 2.93 9.69 3.2 13 1.27l-.7.41c-3.33 1.93-7.93 1.66-13-1.27z" fill="none"/></clipPath><clipPath id="j"><path d="M313.31 135.05c2.91 1.68 5.82 2.17 7.89 1l-.71.41c-2.06 1.2-5 .71-7.88-1z" fill="none"/></clipPath><clipPath id="k"><path d="M304.8 110l.71-.41c2.06-1.2 5-.71 7.88 1l-.7.41c-2.91-1.73-5.82-2.22-7.89-1z" fill="none"/></clipPath><clipPath id="l"><path d="M321.2 136l-.71.41c1.76-1 2.9-3.26 2.91-7 0-8.18-5.34-15.36-10.71-18.47l.7-.41c5.38 3.11 10.74 10.29 10.72 18.47-.01 3.76-1.11 6-2.91 7z" fill="none"/></clipPath><clipPath id="m"><path d="M299.7 100.92l.7-.41c3.33-1.93 7.93-1.66 13 1.28l-.7.41c-5.07-2.94-9.7-3.2-13-1.28z" fill="none"/></clipPath><clipPath id="n"><path d="M326.3 145.08l-.7.41c3.28-1.91 5.32-6 5.34-11.73 0-11.6-8.14-25.74-18.23-31.56l.7-.41c10.1 5.82 18.26 20 18.23 31.56-.02 5.77-2.05 9.82-5.34 11.73z" fill="none"/></clipPath><clipPath id="o"><path d="M294.37 91.75l.7-.41c4.69-2.73 11.19-2.35 18.37 1.8l-.71.41c-7.17-4.15-13.67-4.55-18.36-1.8z" fill="none"/></clipPath><clipPath id="p"><path d="M289 82.57l.71-.41c6.06-3.52 14.46-3 23.72 2.33l-.7.41c-9.24-5.35-17.63-5.85-23.73-2.33z" fill="none"/></clipPath><clipPath id="q"><path d="M331.64 154.26l-.71.41c4.64-2.7 7.51-8.42 7.53-16.56.05-16.38-11.47-36.33-25.73-44.56l.71-.41c14.26 8.23 25.77 28.18 25.73 44.56-.03 8.14-2.9 13.86-7.53 16.56z" fill="none"/></clipPath><clipPath id="r"><path d="M337 163.43l-.71.41c6-3.48 9.7-10.87 9.73-21.38.06-21.16-14.82-46.93-33.23-57.56l.7-.41c18.42 10.63 33.3 36.4 33.24 57.56-.06 10.51-3.73 17.95-9.73 21.38z" fill="none"/></clipPath><clipPath id="s"><path d="M34.78-20.52l1.41-.82C71.11-1.17 93.06 11.3 107.08 19.4l-1.41.82C91.65 12.12 69.7-.36 34.78-20.52z" fill="#fff"/></clipPath><clipPath id="t"><path d="M105.67 20.22l1.41-.82c25 14.42 24.74 14.9 27.71 20.06 4.52 7.82 3.36 1.82 2.91 97l-1.41.82c.45-95.2 1.61-89.2-2.91-97-2.97-5.16-2.73-5.64-27.71-20.06z" fill="#fff"/></clipPath><clipPath id="u"><path d="M34.78-23.52l1.41-.82C71.11-4.18 93.06 8.3 107.08 16.4l-1.41.82C91.65 9.12 69.7-3.36 34.78-23.52z" fill="none"/></clipPath><clipPath id="v"><path d="M105.67 17.22l1.41-.82c25 14.42 24.74 14.9 27.71 20.06 4.52 7.82 3.36 1.83 2.91 97l-1.41.82c.45-95.19 1.61-89.2-2.91-97-2.97-5.16-2.73-5.64-27.71-20.06z" fill="none"/></clipPath><filter id="w"><feGaussianBlur stdDeviation="4"/></filter><clipPath id="x"><path d="M120.28 170.5c3.37 21.25 18.17 44.31 35.95 54.58l-.7.41c-17.79-10.27-32.58-33.33-36-54.58z" fill="none"/></clipPath><clipPath id="y"><path d="M136.38 190.61c4.76 9.26 11.9 17.52 19.89 22.14l-.71.41c-8-4.62-15.13-12.88-19.89-22.14z" fill="none"/></clipPath><clipPath id="z"><path d="M119.56 161.55a56.21 56.21 0 0 0 .72 8.95l-.71.41a56.21 56.21 0 0 1-.72-8.95 35.45 35.45 0 0 1 2.74-14.36l.71-.41a35.11 35.11 0 0 0-2.74 14.36z" fill="none"/></clipPath><clipPath id="A"><path d="M122.3 147.19l-.66.38c.07-.15.13-.29.2-.43l.7-.41c-.11.17-.18.27-.24.46z" fill="none"/></clipPath><clipPath id="B"><path d="M123.13 145.51c-.22.4-.43.82-.64 1.25l-.7.41c.2-.43.41-.85.63-1.25z" fill="none"/></clipPath><clipPath id="C"><path d="M141 173.94c0 11.66 7.61 21.91 15.28 26.33l-.71.41c-7.66-4.42-15.31-14.67-15.27-26.33z" fill="none"/></clipPath><clipPath id="D"><path d="M136.38 190.61l-.71.41c-3.82-7.43-6.11-15.51-6.09-22.87a24.82 24.82 0 0 1 2.09-10.47l.7-.41a24.67 24.67 0 0 0-2.08 10.47c-.02 7.37 2.27 15.44 6.09 22.87z" fill="none"/></clipPath><clipPath id="E"><path d="M145.17 163.94c-2.5 1.46-4.13 4.65-4.15 10l-.7.41c0-5.35 1.64-8.54 4.15-10z" fill="none"/></clipPath><clipPath id="F"><path d="M156.23 225.08c10.23 5.9 19.49 6.45 26.18 2.56l-.7.41c-6.69 3.89-16 3.34-26.18-2.56z" fill="none"/></clipPath><clipPath id="G"><path d="M156.27 212.75c7.24 4.18 13.8 4.57 18.54 1.81l-.7.41c-4.74 2.76-11.3 2.37-18.55-1.81z" fill="none"/></clipPath><clipPath id="H"><path d="M137.89 151a13.88 13.88 0 0 0-5.52 6.24l-.7.41a13.82 13.82 0 0 1 5.52-6.24z" fill="none"/></clipPath><clipPath id="I"><path d="M123.13 145.51a.44.44 0 0 1-.15.08l-.56.33a19.1 19.1 0 0 1 7.16-7.56l.71-.41a19 19 0 0 0-7.16 7.56z" fill="none"/></clipPath><clipPath id="J"><path d="M156.3 200.27c4.14 2.39 8.29 3.08 11.24 1.37l-.71.41c-2.94 1.71-7.09 1-11.24-1.37z" fill="none"/></clipPath><clipPath id="K"><path d="M144.47 164.35l.7-.41c2.94-1.71 7.1-1 11.24 1.38l-.7.41c-4.15-2.4-8.3-3.09-11.24-1.38z" fill="none"/></clipPath><clipPath id="L"><path d="M167.54 201.64l-.71.41c2.51-1.45 4.14-4.64 4.15-10 0-11.66-7.61-21.91-15.27-26.33l.7-.41c7.67 4.42 15.31 14.67 15.28 26.33-.02 5.36-1.69 8.55-4.15 10z" fill="none"/></clipPath><clipPath id="M"><path d="M137.19 151.44l.7-.41c4.74-2.75 11.3-2.37 18.55 1.81l-.71.41c-7.24-4.18-13.8-4.57-18.54-1.81z" fill="none"/></clipPath><clipPath id="N"><path d="M129.58 138.36l.71-.41c6.69-3.89 16-3.34 26.18 2.56l-.7.41c-10.23-5.92-19.5-6.45-26.19-2.56z" fill="none"/></clipPath><clipPath id="O"><path d="M174.81 214.56l-.7.41c4.68-2.72 7.58-8.5 7.6-16.72 0-16.53-11.58-36.68-26-45l.71-.41c14.39 8.32 26 28.47 26 45-.02 8.22-2.93 14-7.61 16.72z" fill="none"/></clipPath><clipPath id="P"><path d="M122 125.28l.71-.41c8.64-5 20.61-4.32 33.82 3.31l-.71.41c-13.23-7.59-25.2-8.34-33.82-3.31z" fill="none"/></clipPath><clipPath id="Q"><path d="M182.42 227.64l-.71.41c6.61-3.84 10.7-12 10.74-23.6.06-23.35-16.36-51.8-36.68-63.53l.7-.41c20.32 11.73 36.75 40.18 36.68 63.53-.03 11.6-4.15 19.76-10.73 23.6z" fill="none"/></clipPath><clipPath id="R"><path d="M190 240.72l-.71.41c8.54-4.95 13.83-15.5 13.87-30.49.09-30.16-21.13-66.89-47.38-82l.71-.41c26.25 15.16 47.46 51.89 47.37 82-.02 14.99-5.31 25.54-13.86 30.49z" fill="none"/></clipPath><clipPath id="S"><path d="M221.28 207.5c3.37 21.25 18.17 44.31 36 54.58l-.7.41c-17.79-10.27-32.58-33.33-36-54.58z" fill="none"/></clipPath><clipPath id="T"><path d="M237.38 227.61c4.76 9.26 11.9 17.52 19.89 22.14l-.71.41c-8-4.62-15.13-12.88-19.89-22.14z" fill="none"/></clipPath><clipPath id="U"><path d="M220.56 198.55a56.21 56.21 0 0 0 .72 8.95l-.71.41a56.21 56.21 0 0 1-.72-8.95 35.45 35.45 0 0 1 2.74-14.36l.71-.41a35.11 35.11 0 0 0-2.74 14.36z" fill="none"/></clipPath><clipPath id="V"><path d="M223.3 184.19h-.05l-.66.38c.07-.15.13-.29.2-.43l.7-.41c-.06.17-.13.27-.19.46z" fill="none"/></clipPath><clipPath id="W"><path d="M224.13 182.51c-.22.4-.43.82-.64 1.25l-.7.41c.2-.43.41-.85.63-1.25z" fill="none"/></clipPath><clipPath id="X"><path d="M242 210.94c0 11.66 7.61 21.91 15.28 26.33l-.71.41c-7.66-4.42-15.31-14.67-15.27-26.33z" fill="none"/></clipPath><clipPath id="Y"><path d="M237.38 227.61l-.71.41c-3.82-7.43-6.11-15.51-6.09-22.87a24.82 24.82 0 0 1 2.09-10.47l.7-.41a24.67 24.67 0 0 0-2.08 10.47c-.02 7.37 2.27 15.44 6.09 22.87z" fill="none"/></clipPath><clipPath id="Z"><path d="M246.17 200.94c-2.5 1.46-4.13 4.65-4.15 10l-.7.41c0-5.35 1.64-8.54 4.15-10z" fill="none"/></clipPath><clipPath id="aa"><path d="M257.23 262.08c10.23 5.9 19.49 6.45 26.18 2.56l-.7.41c-6.69 3.89-16 3.34-26.18-2.56z" fill="none"/></clipPath><clipPath id="ab"><path d="M257.27 249.75c7.24 4.18 13.8 4.57 18.54 1.81l-.7.41c-4.74 2.76-11.3 2.37-18.55-1.81z" fill="none"/></clipPath><clipPath id="ac"><path d="M238.89 188a13.88 13.88 0 0 0-5.52 6.24l-.7.41a13.82 13.82 0 0 1 5.52-6.24z" fill="none"/></clipPath><clipPath id="ad"><path d="M224.13 182.51a.44.44 0 0 1-.15.08l-.56.33a19.1 19.1 0 0 1 7.16-7.56l.71-.41a19 19 0 0 0-7.16 7.56z" fill="none"/></clipPath><clipPath id="ae"><path d="M257.3 237.27c4.14 2.39 8.29 3.08 11.24 1.37l-.71.41c-2.94 1.71-7.09 1-11.24-1.37z" fill="none"/></clipPath><clipPath id="af"><path d="M245.47 201.35l.7-.41c2.94-1.71 7.1-1 11.24 1.38l-.7.41c-4.15-2.4-8.3-3.09-11.24-1.38z" fill="none"/></clipPath><clipPath id="ag"><path d="M268.54 238.64l-.71.41c2.51-1.45 4.14-4.64 4.15-10 0-11.66-7.61-21.91-15.27-26.33l.7-.41c7.67 4.42 15.31 14.67 15.28 26.33-.02 5.36-1.69 8.55-4.15 10z" fill="none"/></clipPath><clipPath id="ah"><path d="M238.19 188.44l.7-.41c4.74-2.75 11.3-2.37 18.55 1.81l-.71.41c-7.24-4.18-13.8-4.57-18.54-1.81z" fill="none"/></clipPath><clipPath id="ai"><path d="M230.58 175.36l.71-.41c6.69-3.89 16-3.34 26.18 2.56l-.7.41c-10.23-5.92-19.5-6.45-26.19-2.56z" fill="none"/></clipPath><clipPath id="aj"><path d="M275.81 251.56l-.7.41c4.68-2.72 7.58-8.5 7.6-16.72.05-16.53-11.58-36.68-26-45l.71-.41c14.39 8.32 26 28.47 26 45-.02 8.22-2.93 14-7.61 16.72z" fill="none"/></clipPath><clipPath id="ak"><path d="M223 162.28l.71-.41c8.64-5 20.61-4.32 33.82 3.31l-.71.41c-13.23-7.59-25.2-8.34-33.82-3.31z" fill="none"/></clipPath><clipPath id="al"><path d="M283.42 264.64l-.71.41c6.61-3.84 10.7-12 10.74-23.6.06-23.35-16.36-51.8-36.68-63.53l.7-.41c20.32 11.73 36.75 40.18 36.68 63.53-.03 11.6-4.15 19.76-10.73 23.6z" fill="none"/></clipPath><clipPath id="am"><path d="M291 277.72l-.71.41c8.54-4.95 13.83-15.5 13.87-30.49.09-30.16-21.13-66.89-47.38-82l.71-.41c26.25 15.16 47.46 51.89 47.37 82-.02 14.99-5.31 25.54-13.86 30.49z" fill="none"/></clipPath></defs><g style="isolation:isolate"><path fill="#222e7f" d="M0 0h400v300H0z" data-name="Layer 1"/><path fill="#0071bc" d="M0 202l400-102v200H0v-98z" data-name="Layer 2"/><g data-name="Layer 3"><path fill="none" stroke="#64c0f9" stroke-miterlimit="10" stroke-width="4" d="M268 52L443 1M268 52L443 1" filter="url(#a)"/><path fill="none" stroke="#64c0f9" stroke-miterlimit="10" stroke-width="4" d="M268 48L443-3"/><g style="isolation:isolate"><path fill="#654086" d="M384.53 89.87l-.38 132.72-195.08-112.64.37-132.71L384.53 89.87z"/><path fill="#915dc0" d="M384.53 89.87l1.41-.82-.38 132.72-1.41.82.38-132.72z"/><path fill="#a267d7" d="M189.44-22.76l1.41-.82L385.94 89.05l-1.41.82L189.44-22.76z"/></g><g style="mix-blend-mode:screen"><g style="isolation:isolate"><g style="isolation:isolate" clip-path="url(#b)"><path d="M299.7 100.92l.7-.41c-3.28 1.91-5.31 6-5.33 11.73 0 7.07 3 15.08 7.65 21.58l-.7.41c-4.65-6.5-7.68-14.51-7.66-21.58 0-5.77 2.06-9.82 5.34-11.73" fill="#18194c"/><path d="M302 134.23l.7-.41q.86 1.19 1.77 2.31l-.7.41q-.93-1.12-1.77-2.31" fill="#191a4f"/><path d="M303.79 136.54l.7-.41c.49.59 1 1.16 1.51 1.72l-.71.41c-.51-.56-1-1.13-1.5-1.72" fill="#1a1b52"/><path d="M305.29 138.26l.71-.41c.44.48.9 1 1.36 1.4l-.7.41c-.47-.45-.92-.92-1.37-1.4" fill="#1b1c55"/><path d="M306.66 139.66l.7-.41c.42.41.85.81 1.29 1.19l-.7.41c-.44-.38-.87-.78-1.29-1.19" fill="#1c1d58"/><path d="M308 140.85l.7-.41c.41.36.83.71 1.25 1.05l-.7.41c-.42-.34-.84-.69-1.25-1.05" fill="#1d1e5b"/><path d="M309.2 141.9l.7-.41c.42.33.83.64 1.25.94l-.7.41c-.42-.3-.84-.61-1.25-.94" fill="#1d1f5d"/><path d="M310.45 142.84l.7-.41c.42.3.84.58 1.27.85l-.71.41c-.42-.27-.85-.55-1.26-.85" fill="#1e2060"/><path d="M311.71 143.69l.71-.41.87.53-.7.41-.88-.53" fill="#1f2163"/></g><g style="isolation:isolate" clip-path="url(#c)"><path d="M312.57 152.87l.7-.41.6.33-.71.41c-.2-.1-.4-.22-.59-.33" fill="#120e44"/><path d="M313.16 153.2l.71-.41c.63.35 1.26.67 1.88 1l-.7.4c-.63-.29-1.25-.61-1.89-1" fill="#130e46"/><path d="M315.05 154.16l.7-.4c.67.31 1.32.58 2 .83l-.7.41c-.65-.25-1.31-.52-2-.84" fill="#130e48"/><path d="M317 155l.7-.41c.73.27 1.44.5 2.14.7l-.7.41c-.7-.2-1.42-.43-2.14-.7" fill="#140f4a"/><path d="M319.16 155.7l.7-.41a21 21 0 0 0 2.47.52l-.71.41a21.22 21.22 0 0 1-2.46-.52" fill="#150f4c"/><path d="M321.62 156.22l.71-.41a16.79 16.79 0 0 0 3.21.17l-.71.41a16.79 16.79 0 0 1-3.21-.17" fill="#15104e"/></g><g style="isolation:isolate" clip-path="url(#d)"><path d="M304.8 110l.71-.41c-1.76 1-2.9 3.26-2.91 7a21.22 21.22 0 0 0 4.14 12.34l-.71.41a21.36 21.36 0 0 1-4.14-12.34c0-3.76 1.16-6 2.91-7" fill="#003b62"/><path d="M306 129.34l.71-.41c.32.45.65.88 1 1.3l-.71.41c-.34-.42-.68-.85-1-1.3" fill="#003d66"/><path d="M307 130.64l.71-.41c.29.35.58.69.89 1l-.71.41c-.3-.33-.6-.67-.89-1" fill="#003f69"/><path d="M307.92 131.66l.71-.41c.27.29.55.58.83.85l-.71.41c-.28-.27-.56-.56-.83-.85" fill="#00426d"/><path d="M308.75 132.51l.71-.41.81.75-.7.41c-.28-.24-.55-.49-.82-.75" fill="#004471"/><path d="M309.57 133.26l.7-.41c.27.24.54.47.82.68l-.71.41c-.27-.21-.54-.44-.81-.68" fill="#004675"/><path d="M310.38 133.94l.71-.41c.27.22.54.42.81.62l-.7.41c-.28-.2-.55-.4-.82-.62" fill="#004878"/><path d="M311.2 134.56l.7-.41.83.56-.7.41-.83-.56" fill="#004b7c"/><path d="M312 135.12l.7-.41.58.34-.7.41-.58-.34" fill="#004d80"/></g><g clip-path="url(#e)"><path d="M304.8 110l.71-.41c-1.76 1-2.9 3.26-2.91 7a21.22 21.22 0 0 0 4.14 12.34l-.71.41a21.36 21.36 0 0 1-4.14-12.34c0-3.76 1.16-6 2.91-7" fill="#003b62"/></g><g style="isolation:isolate" clip-path="url(#f)"><path d="M294.37 91.75l.7-.41c-4.63 2.69-7.51 8.42-7.53 16.55 0 10 4.24 21.29 10.8 30.47l-.7.41c-6.57-9.18-10.83-20.48-10.8-30.47 0-8.14 2.89-13.86 7.53-16.55" fill="#0e0a34"/><path d="M297.64 138.77l.7-.41c.8 1.11 1.63 2.2 2.5 3.25l-.71.41a66.44 66.44 0 0 1-2.49-3.25" fill="#0f0b36"/><path d="M300.13 142l.71-.41c.69.84 1.4 1.65 2.13 2.44l-.71.4a56.05 56.05 0 0 1-2.13-2.43" fill="#0f0b38"/><path d="M302.26 144.45l.71-.4c.63.67 1.27 1.33 1.92 2l-.7.41c-.66-.64-1.3-1.3-1.93-2" fill="#100c3a"/><path d="M304.19 146.43l.7-.41c.6.58 1.2 1.14 1.82 1.68l-.7.41c-.62-.54-1.23-1.1-1.82-1.68" fill="#100c3c"/><path d="M306 148.11l.7-.41c.58.52 1.17 1 1.77 1.48l-.7.41c-.6-.47-1.19-1-1.77-1.48" fill="#110c3e"/><path d="M307.78 149.59l.7-.41c.58.46 1.17.91 1.76 1.33l-.7.41c-.59-.42-1.18-.87-1.76-1.33" fill="#110d40"/><path d="M309.54 150.92l.7-.41c.59.42 1.19.82 1.79 1.2l-.71.41c-.6-.38-1.19-.78-1.78-1.2" fill="#120d42"/><path d="M311.32 152.12l.71-.41c.41.26.82.51 1.24.75l-.7.41c-.42-.24-.83-.49-1.25-.75" fill="#120e44"/></g><g clip-path="url(#g)"><path d="M299.7 100.92l.7-.41c-3.28 1.91-5.31 6-5.33 11.73 0 7.07 3 15.08 7.65 21.58l-.7.41c-4.65-6.5-7.68-14.51-7.66-21.58 0-5.77 2.06-9.82 5.34-11.73" fill="#18194c"/></g><g style="isolation:isolate" clip-path="url(#h)"><path d="M321.62 156.22l.71-.41a16.79 16.79 0 0 0 3.21.17l-.71.41a16.79 16.79 0 0 1-3.21-.17" fill="#15104e"/><path d="M324.83 156.39l.71-.41a13.07 13.07 0 0 0 6.1-1.72l-.71.41a13 13 0 0 1-6.1 1.72" fill="#161050"/></g><g style="isolation:isolate" clip-path="url(#i)"><path d="M312.59 144.22l.7-.41.43.24-.71.41-.42-.24" fill="#1f2163"/><path d="M313 144.46l.71-.41c.44.24.89.47 1.33.68l-.71.41c-.44-.21-.88-.44-1.33-.68" fill="#202266"/><path d="M314.34 145.14l.71-.41c.47.22.93.41 1.39.59l-.7.41c-.46-.18-.93-.37-1.4-.59" fill="#212369"/><path d="M315.74 145.73l.7-.41c.52.19 1 .35 1.52.49l-.71.41c-.49-.14-1-.3-1.51-.49" fill="#22246c"/><path d="M317.25 146.22l.71-.41a14.4 14.4 0 0 0 1.75.37l-.71.41a14.81 14.81 0 0 1-1.75-.37" fill="#23256f"/><path d="M319 146.59l.71-.41a11 11 0 0 0 2.27.12l-.71.41a11 11 0 0 1-2.27-.12" fill="#242672"/><path d="M321.27 146.71l.71-.41a9.28 9.28 0 0 0 4.32-1.22l-.7.41a9.32 9.32 0 0 1-4.33 1.22" fill="#252775"/></g><g style="isolation:isolate" clip-path="url(#j)"><path d="M312.61 135.46l.7-.41.28.16-.71.41-.27-.16" fill="#004d80"/><path d="M312.88 135.62l.71-.41.87.45-.7.41c-.29-.14-.59-.29-.88-.45" fill="#004f84"/><path d="M313.76 136.07l.7-.41.92.39-.7.41c-.31-.12-.61-.25-.92-.39" fill="#005187"/><path d="M314.68 136.46l.7-.41c.33.12.66.23 1 .32l-.7.41c-.33-.09-.65-.2-1-.32" fill="#00548b"/><path d="M315.66 136.78l.7-.41a9 9 0 0 0 1.1.23l-.71.41a8.84 8.84 0 0 1-1.09-.23" fill="#00568f"/><path d="M316.75 137l.71-.41a7.88 7.88 0 0 0 1.36.08l-.71.41a7.93 7.93 0 0 1-1.36-.08" fill="#005893"/><path d="M318.11 137.09l.71-.41a5.17 5.17 0 0 0 2.38-.66l-.71.41a5.13 5.13 0 0 1-2.38.66" fill="#005a96"/></g><g style="isolation:isolate" clip-path="url(#k)"><path d="M304.8 110l.71-.41a5.13 5.13 0 0 1 2.38-.66l-.71.41a5.17 5.17 0 0 0-2.38.66" fill="#2189b5"/><path d="M307.18 109.32l.71-.41a7 7 0 0 1 1.36.08l-.71.41a7 7 0 0 0-1.36-.08" fill="#2085b0"/><path d="M308.54 109.4l.71-.41a8.84 8.84 0 0 1 1.09.23l-.7.41a9 9 0 0 0-1.1-.23" fill="#1f82ac"/><path d="M309.64 109.63l.7-.41c.33.09.65.2 1 .32l-.7.41c-.33-.12-.66-.23-1-.32" fill="#1e7fa7"/><path d="M310.62 110l.7-.41c.31.12.61.25.92.39l-.7.41-.92-.39" fill="#1e7ba3"/><path d="M311.54 110.34l.7-.41c.29.14.59.29.88.45l-.7.41-.88-.45" fill="#1d789e"/><path d="M312.42 110.79l.7-.41.27.15-.7.41-.27-.15" fill="#1c749a"/></g><g style="isolation:isolate" clip-path="url(#l)"><path d="M312.69 110.94l.7-.41.58.35-.7.41-.58-.35" fill="#1c749a"/><path d="M313.27 111.29l.7-.41.83.56-.7.41c-.28-.2-.56-.38-.83-.56" fill="#1b7195"/><path d="M314.1 111.85l.7-.41c.27.2.55.4.82.62l-.71.41c-.27-.22-.54-.42-.81-.62" fill="#1a6d91"/><path d="M314.91 112.47l.71-.41c.27.21.54.44.81.67l-.71.41c-.26-.23-.53-.46-.81-.67" fill="#196a8c"/><path d="M315.72 113.14l.71-.41c.27.25.55.5.81.76l-.7.41c-.27-.26-.54-.52-.82-.76" fill="#196788"/><path d="M316.54 113.9l.7-.41c.29.27.56.56.84.85l-.71.41c-.27-.3-.55-.58-.83-.85" fill="#186383"/><path d="M317.37 114.75l.71-.41c.3.33.59.66.88 1l-.7.41c-.29-.35-.59-.68-.89-1" fill="#17607f"/><path d="M318.26 115.76l.7-.41c.35.42.68.86 1 1.31l-.71.41c-.32-.45-.66-.89-1-1.31" fill="#165c7a"/><path d="M319.26 117.07l.71-.41a21.36 21.36 0 0 1 4.14 12.34c0 3.76-1.16 6-2.91 7l-.71.41c1.76-1 2.9-3.26 2.91-7a21.36 21.36 0 0 0-4.14-12.34" fill="#155976"/></g><g style="isolation:isolate" clip-path="url(#m)"><path d="M299.7 100.92l.7-.41a9.31 9.31 0 0 1 4.32-1.22l-.7.41a9.28 9.28 0 0 0-4.32 1.22" fill="#005a96"/><path d="M304 99.7l.7-.41a12.73 12.73 0 0 1 2.28.12l-.71.41a11.73 11.73 0 0 0-2.27-.12" fill="#005893"/><path d="M306.29 99.82l.71-.41a14.25 14.25 0 0 1 1.74.37l-.7.41a14.81 14.81 0 0 0-1.75-.37" fill="#00568f"/><path d="M308 100.19l.7-.41a15.85 15.85 0 0 1 1.52.5l-.7.41c-.52-.2-1-.36-1.52-.5" fill="#00548b"/><path d="M309.56 100.69l.7-.41c.46.17.93.37 1.4.59l-.71.41c-.47-.22-.94-.42-1.39-.59" fill="#005187"/><path d="M311 101.28l.71-.41c.44.2.88.43 1.33.68l-.7.41c-.45-.25-.9-.48-1.34-.68" fill="#004f84"/><path d="M312.29 102l.7-.41.42.24-.7.41a4.49 4.49 0 0 0-.42-.24" fill="#004d80"/></g><g style="isolation:isolate" clip-path="url(#n)"><path d="M312.71 102.2l.7-.41c.3.17.59.34.88.53l-.7.41c-.29-.19-.59-.36-.88-.53" fill="#004d80"/><path d="M313.59 102.73l.7-.41c.43.27.85.55 1.27.85l-.71.4c-.42-.29-.84-.58-1.26-.84" fill="#004b7c"/><path d="M314.85 103.57l.71-.4c.42.29.83.61 1.24.93l-.7.41c-.41-.32-.83-.64-1.25-.94" fill="#004878"/><path d="M316.1 104.51l.7-.41q.65.51 1.26 1.05l-.71.41c-.41-.36-.83-.71-1.25-1" fill="#004675"/><path d="M317.35 105.56l.71-.41c.43.39.86.78 1.29 1.2l-.71.41c-.42-.42-.85-.81-1.29-1.2" fill="#004471"/><path d="M318.64 106.76l.71-.41c.46.45.92.91 1.36 1.39l-.7.41c-.45-.48-.9-.94-1.37-1.39" fill="#00426d"/><path d="M320 108.15l.7-.41c.52.56 1 1.14 1.51 1.73l-.71.41c-.49-.59-1-1.17-1.5-1.73" fill="#003f69"/><path d="M321.51 109.88l.71-.41q.91 1.11 1.77 2.31l-.71.4a35.99 35.99 0 0 0-1.77-2.3" fill="#003d66"/><path d="M323.28 112.18l.71-.4c4.65 6.49 7.67 14.5 7.65 21.57 0 5.77-2.05 9.82-5.34 11.73l-.7.41c3.28-1.91 5.32-6 5.34-11.73 0-7.07-3-15.08-7.66-21.58" fill="#003b62"/></g><path d="M312.73 93.55c14.26 8.23 25.78 28.18 25.73 44.56s-11.64 23-25.89 14.76-25.78-28.18-25.73-44.57 11.64-22.99 25.89-14.75zm-.14 50.67c10.09 5.83 18.31 1.14 18.35-10.46S322.8 108 312.71 102.2s-18.31-1.2-18.35 10.45 8.13 25.74 18.23 31.57" fill="#212368"/><path d="M312.69 110.94c5.37 3.11 10.73 10.29 10.71 18.47s-5.41 9.16-10.79 6.05-10.74-10.29-10.72-18.46 5.42-9.16 10.8-6.06z" fill="#1d7aa1"/><g style="isolation:isolate" clip-path="url(#o)"><path d="M294.37 91.75l.7-.41a13.2 13.2 0 0 1 6.1-1.73l-.7.41a13.17 13.17 0 0 0-6.1 1.73" fill="#252775"/><path d="M300.47 90l.7-.41a16.79 16.79 0 0 1 3.21.17l-.7.41a16.79 16.79 0 0 0-3.21-.17" fill="#242672"/><path d="M303.68 90.19l.7-.41a21.46 21.46 0 0 1 2.47.53l-.71.41a21.31 21.31 0 0 0-2.46-.53" fill="#23256f"/><path d="M306.14 90.72l.71-.41A22.18 22.18 0 0 1 309 91l-.71.41a21.31 21.31 0 0 0-2.14-.7" fill="#22246c"/><path d="M308.28 91.42L309 91c.65.24 1.3.52 2 .83l-.71.41c-.66-.31-1.32-.59-2-.83" fill="#212369"/><path d="M310.25 92.25l.71-.41c.62.29 1.25.61 1.88 1l-.7.41c-.64-.35-1.26-.67-1.89-1" fill="#202266"/><path d="M312.14 93.21l.7-.41.6.34-.71.41-.59-.34" fill="#1f2163"/></g><path d="M312.71 102.2c10.09 5.82 18.26 20 18.23 31.56s-8.26 16.29-18.35 10.46-18.26-20-18.23-31.57 8.25-16.29 18.35-10.45zm-.1 33.26c5.38 3.11 10.77 2.13 10.79-6.05s-5.34-15.36-10.71-18.47-10.78-2.12-10.8 6.06 5.34 15.36 10.72 18.46" fill="#005086"/><g style="isolation:isolate" clip-path="url(#p)"><path d="M289 82.57l.71-.41a17.08 17.08 0 0 1 7.88-2.23l-.71.41a17.11 17.11 0 0 0-7.88 2.23" fill="#161050"/><path d="M296.91 80.34l.71-.41a21.89 21.89 0 0 1 4.15.23l-.71.41a21.85 21.85 0 0 0-4.15-.23" fill="#15104e"/><path d="M301.06 80.57l.71-.41a25.81 25.81 0 0 1 3.18.67l-.71.41a25.43 25.43 0 0 0-3.18-.67" fill="#150f4c"/><path d="M304.24 81.24l.71-.41a28.68 28.68 0 0 1 2.76.91l-.7.4c-.94-.35-1.86-.65-2.77-.9" fill="#140f4a"/><path d="M307 82.14l.7-.4c.84.31 1.69.67 2.55 1.07l-.71.41c-.85-.4-1.7-.76-2.54-1.08" fill="#130e48"/><path d="M309.55 83.22l.71-.41c.8.38 1.61.79 2.43 1.24l-.7.41c-.82-.45-1.63-.86-2.44-1.24" fill="#130e46"/><path d="M312 84.46l.7-.41.77.44-.7.41-.77-.44" fill="#120e44"/></g><g style="isolation:isolate" clip-path="url(#q)"><path d="M312.73 93.55l.71-.41c.41.24.83.49 1.24.75l-.71.41c-.41-.26-.82-.51-1.24-.75" fill="#1f2163"/><path d="M314 94.3l.71-.41c.6.38 1.2.78 1.78 1.19l-.7.41c-.59-.41-1.18-.81-1.79-1.19" fill="#1e2060"/><path d="M315.76 95.49l.7-.41c.6.43 1.19.87 1.77 1.33l-.71.41c-.58-.46-1.17-.9-1.76-1.33" fill="#1d1f5d"/><path d="M317.52 96.82l.71-.41c.59.48 1.19 1 1.77 1.48l-.71.41c-.58-.51-1.17-1-1.77-1.48" fill="#1d1e5b"/><path d="M319.29 98.3l.71-.41c.61.54 1.22 1.1 1.82 1.69l-.71.4c-.59-.58-1.2-1.14-1.82-1.68" fill="#1c1d58"/><path d="M321.11 100l.71-.4c.65.63 1.29 1.29 1.92 2l-.7.41a72.59 72.59 0 0 0-1.93-2" fill="#1b1c55"/><path d="M323 102l.7-.41c.73.78 1.44 1.6 2.13 2.43l-.71.41c-.69-.83-1.4-1.65-2.12-2.43" fill="#1a1b52"/><path d="M325.16 104.39l.71-.41c.86 1 1.7 2.14 2.5 3.26l-.71.41a57.34 57.34 0 0 0-2.5-3.26" fill="#191a4f"/><path d="M327.66 107.65l.71-.41c6.56 9.17 10.83 20.48 10.8 30.46 0 8.14-2.9 13.86-7.53 16.56l-.71.41c4.64-2.7 7.51-8.42 7.53-16.56 0-10-4.23-21.29-10.8-30.46" fill="#18194c"/></g><g style="isolation:isolate" clip-path="url(#r)"><path d="M312.76 84.9l.7-.41c.54.31 1.07.63 1.61 1l-.71.41c-.53-.33-1.06-.65-1.6-1" fill="#120e44"/><path d="M314.36 85.86l.71-.41c.77.5 1.54 1 2.3 1.55l-.7.41c-.76-.54-1.53-1.06-2.31-1.55" fill="#120d42"/><path d="M316.67 87.41l.7-.41c.77.55 1.53 1.12 2.28 1.72l-.71.41c-.75-.6-1.51-1.17-2.27-1.72" fill="#110d40"/><path d="M318.94 89.13l.71-.41c.77.61 1.53 1.25 2.28 1.91l-.7.41c-.75-.66-1.52-1.3-2.29-1.91" fill="#110c3e"/><path d="M321.23 91l.7-.41c.8.7 1.58 1.42 2.35 2.17l-.7.41c-.77-.75-1.56-1.47-2.35-2.17" fill="#100c3c"/><path d="M323.58 93.21l.7-.41q1.28 1.23 2.49 2.55l-.7.41q-1.23-1.32-2.49-2.55" fill="#100c3a"/><path d="M326.07 95.76l.7-.41c.94 1 1.86 2.07 2.75 3.15l-.71.41a83.54 83.54 0 0 0-2.74-3.15" fill="#0f0b38"/><path d="M328.81 98.91l.71-.41c1.11 1.35 2.19 2.76 3.23 4.2l-.71.41c-1-1.44-2.11-2.85-3.23-4.2" fill="#0f0b36"/><path d="M332 103.11l.71-.41c8.47 11.85 14 26.45 13.95 39.35 0 10.51-3.75 17.9-9.73 21.38l-.71.41c6-3.48 9.7-10.87 9.73-21.38 0-12.9-5.47-27.5-13.95-39.35" fill="#0e0a34"/></g><path d="M312.76 84.9c18.41 10.63 33.29 36.4 33.23 57.56s-15 29.69-33.45 19.06-33.29-36.4-33.23-57.56 15.03-29.7 33.45-19.06zm-.19 68c14.25 8.23 25.85 1.62 25.89-14.76S327 101.78 312.73 93.55s-25.85-1.63-25.89 14.75 11.47 36.34 25.73 44.57" fill="#130e47"/></g></g><g style="isolation:isolate"><path fill="#366786" d="M314.52 99.87l-.37 132.72-195.09-112.64.38-132.71L314.52 99.87z"/><path fill="#4d94c0" d="M314.52 99.87l1.41-.82-.37 132.72-1.41.82.37-132.72z"/><path fill="#56a5d7" d="M119.44-12.76l1.41-.82L315.93 99.05l-1.41.82L119.44-12.76z"/></g><g style="isolation:isolate"><path fill="#008989" d="M274.53 139.87l-.38 132.71L79.06 159.95l.38-132.72 195.09 112.64z"/><path fill="#00c5c5" d="M274.53 139.87l1.41-.82-.38 132.71-1.41.82.38-132.71z"/><path fill="#00dcdc" d="M79.44 27.23l1.41-.82 195.09 112.64-1.41.82L79.44 27.23z"/></g><g style="isolation:isolate" filter="url(#a)"><g style="isolation:isolate"><path d="M34.78-20.52l1.41-.82C71.11-1.17 93.06 11.3 107.08 19.4l-1.41.82C91.65 12.12 69.7-.36 34.78-20.52z" fill="#fff"/><g clip-path="url(#s)"><path d="M34.78-20.52l1.41-.82C71.11-1.17 93.06 11.3 107.08 19.4l-1.41.82c-14-8.1-36-20.58-70.89-40.74" fill="#fff"/></g></g><path d="M105.67 20.22c25 14.42 24.74 14.9 27.71 20.06 4.52 7.82 3.36 1.82 2.91 97a2.33 2.33 0 0 0-.69-.27 1.94 1.94 0 0 1-.53-.18c-1.57-.9-.88-7.11-.5-86.57 0-5.91-4.13-13.12-9.28-16.09C86.86 12 64.59-.7 51.73-8.13c-20.8-12-17-10.2-16.95-12.39C69.7-.36 91.65 12.12 105.67 20.22z" fill="#fff"/><g style="isolation:isolate"><path d="M105.67 20.22l1.41-.82c25 14.42 24.74 14.9 27.71 20.06 4.52 7.82 3.36 1.82 2.91 97l-1.41.82c.45-95.2 1.61-89.2-2.91-97-2.97-5.16-2.73-5.64-27.71-20.06z" fill="#fff"/><g style="isolation:isolate" fill="#fff" clip-path="url(#t)"><path d="M105.67 20.22l1.41-.82c3.29 1.9 6.15 3.56 8.63 5l-1.41.82c-2.48-1.46-5.34-3.12-8.63-5M114.3 25.24l1.41-.82c3.8 2.23 6.72 4 9 5.45l-1.41.82c-2.28-1.45-5.2-3.22-9-5.45M123.3 30.69l1.41-.82c1 .66 2 1.25 2.74 1.79l-1.41.82c-.79-.54-1.7-1.13-2.74-1.79"/><path d="M126 32.48l1.41-.82c.54.37 1 .72 1.47 1l-1.41.82c-.44-.32-.93-.67-1.47-1M127.51 33.52l1.41-.82.94.71-1.41.82-.94-.71"/><path d="M128.45 34.23l1.41-.82.67.55-1.41.82-.67-.55M129.12 34.78l1.41-.82.52.45-1.41.82-.52-.45"/><path d="M129.64 35.23l1.41-.82.39.37-1.44.82c-.12-.12-.25-.25-.39-.37"/><path d="M130 35.6l1.41-.82.33.33-1.41.81-.33-.32M130.36 35.92l1.41-.81.28.28-1.41.82-.28-.29"/><path d="M130.64 36.21l1.41-.82.25.28-1.41.82c-.08-.09-.16-.19-.25-.28"/><path d="M130.89 36.49l1.41-.82.22.26-1.41.82-.22-.26M131.11 36.75l1.41-.82.21.26-1.41.82-.21-.26"/><path d="M131.32 37l1.41-.82.26.34-1.41.82-.26-.34M131.58 37.35l1.41-.82.38.54-1.41.82-.38-.54M132 37.89l1.41-.82c.28.43.54.87.82 1.34l-1.41.82c-.27-.48-.54-.91-.82-1.34"/><path d="M132.78 39.23l1.41-.82.6 1.05.31.52-1.41.82-.31-.52-.6-1.05M133.69 40.8l1.41-.8.42.72-1.41.82-.42-.72"/><path d="M134.11 41.52l1.41-.82c.21.35.4.68.58 1l-1.41.82c-.18-.33-.37-.66-.58-1M134.69 42.53l1.41-.82.2.39-1.41.81c-.07-.12-.13-.25-.2-.38"/><path d="M134.89 42.91l1.41-.81.18.36-1.41.82-.18-.37M135.07 43.28l1.41-.82c0 .08.07.15.1.23l-1.41.82c0-.08-.07-.15-.1-.23M135.17 43.51l1.41-.82a2.44 2.44 0 0 1 .1.24l-1.41.82a2.44 2.44 0 0 0-.1-.24M135.27 43.75l1.41-.82a2.44 2.44 0 0 1 .1.24l-1.41.82a2.44 2.44 0 0 0-.1-.24M135.37 44l1.41-.82.09.25-1.41.82-.09-.25"/><path d="M135.46 44.24l1.41-.82a2.31 2.31 0 0 1 .1.28l-1.41.82a2.31 2.31 0 0 0-.1-.28M135.56 44.52l1.44-.82c0 .1.06.19.1.29l-1.41.82c0-.1-.07-.2-.1-.29"/><path d="M135.66 44.81l1.41-.82c0 .1.06.21.08.31l-1.41.82c0-.1-.05-.21-.08-.31"/><path d="M135.74 45.12l1.41-.82c0 .12.07.23.1.36l-1.41.81c0-.12-.06-.23-.1-.35"/><path d="M135.84 45.47l1.41-.81c0 .14.07.29.1.44l-1.41.82c0-.15-.07-.3-.1-.45"/><path d="M135.94 45.92l1.41-.82c0 .16.06.32.1.48l-1.45.82c0-.16-.07-.32-.1-.48"/><path d="M136 46.4l1.41-.82c0 .2.07.4.1.62l-1.41.82c0-.22-.07-.42-.1-.62M136.14 47l1.41-.82c0 .25.08.52.11.8l-1.41.82c0-.28-.07-.55-.11-.8M136.25 47.82l1.41-.82c0 .35.08.71.12 1.11l-1.41.81c0-.39-.07-.75-.12-1.1M136.37 48.92l1.41-.81c.05.51.09 1.06.13 1.67l-1.41.82c0-.61-.08-1.16-.13-1.68M136.5 50.6l1.41-.82c.06 1 .12 2.2.15 3.55l-1.41.82c0-1.35-.09-2.52-.15-3.55"/><path d="M136.65 54.15l1.41-.82c.12 3.94.13 9.39.09 17.2l-1.41.82c0-7.81 0-13.26-.09-17.2"/><path d="M136.74 71.35l1.41-.82c-.06 13.13-.28 32.93-.43 63.37l-1.41.82c.15-30.44.37-50.24.43-63.37"/><path d="M136.31 134.72l1.41-.82v2.58l-1.41.82v-2.58"/></g></g></g><g style="isolation:isolate"><g clip-path="url(#u)"><path d="M34.78-23.52l1.41-.82C71.11-4.18 93.06 8.3 107.08 16.4l-1.41.82c-14-8.1-36-20.58-70.89-40.74" fill="#be161d"/></g><path d="M105.67 17.22c25 14.42 24.74 14.9 27.71 20.06 4.52 7.82 3.36 1.83 2.91 97a2.33 2.33 0 0 0-.69-.27 1.94 1.94 0 0 1-.53-.18c-1.57-.9-.88-7.11-.5-86.57 0-5.91-4.13-13.12-9.28-16.09C86.86 9 64.59-3.7 51.73-11.13c-20.8-12-17-10.2-16.95-12.39C69.7-3.36 91.65 9.12 105.67 17.22z" fill="#7f0f13"/><g style="isolation:isolate" clip-path="url(#v)"><path d="M105.67 17.22l1.41-.82c3.29 1.9 6.15 3.56 8.63 5l-1.41.82c-2.48-1.46-5.34-3.12-8.63-5" fill="#be161d"/><path d="M114.3 22.24l1.41-.82c3.8 2.23 6.72 4 9 5.45l-1.41.81c-2.28-1.45-5.2-3.21-9-5.44" fill="#c2171e"/><path d="M123.3 27.68l1.41-.81c1 .66 2 1.25 2.74 1.79l-1.41.82c-.79-.54-1.7-1.14-2.74-1.8" fill="#c7181e"/><path d="M126 29.48l1.41-.82c.54.37 1 .72 1.47 1l-1.41.82c-.44-.32-.93-.67-1.47-1" fill="#cc181f"/><path d="M127.51 30.52l1.41-.82.94.71-1.41.82-.94-.71" fill="#d11920"/><path d="M128.45 31.23l1.41-.82.67.55-1.41.82-.67-.55" fill="#d51920"/><path d="M129.12 31.78l1.41-.82.52.45-1.41.82-.52-.45" fill="#da1a21"/><path d="M129.64 32.23l1.41-.82.39.37-1.44.82c-.12-.12-.25-.25-.39-.37" fill="#df1a22"/><path d="M130 32.6l1.41-.82.33.32-1.41.82-.33-.32" fill="#e41b23"/><path d="M130.36 32.92l1.41-.82.28.29-1.41.82-.28-.29" fill="#e81b23"/><path d="M130.64 33.21l1.41-.82c.09.09.17.19.25.28l-1.41.82c-.08-.09-.16-.19-.25-.28" fill="#ed1c24"/><path d="M130.89 33.49l1.41-.82.22.26-1.41.82-.22-.26" fill="#ef373e"/><path d="M131.11 33.75l1.41-.82.21.26-1.41.82-.21-.26" fill="#f04349"/><path d="M131.32 34l1.41-.82c.09.11.18.22.26.34l-1.41.82c-.08-.12-.17-.23-.26-.34" fill="#f14b52"/><path d="M131.58 34.35l1.41-.82.38.54-1.41.82-.38-.54" fill="#f15259"/><path d="M132 34.89l1.41-.82c.28.43.54.86.82 1.34l-1.41.82c-.27-.48-.54-.92-.82-1.34" fill="#f2595f"/><path d="M132.78 36.23l1.41-.82.6 1.05.31.52-1.41.82-.31-.52-.6-1.05" fill="#f15259"/><path d="M133.69 37.8l1.41-.8c.14.25.28.49.42.71l-1.41.82-.42-.71" fill="#f2595f"/><path d="M134.11 38.51l1.41-.82c.21.36.4.69.58 1l-1.41.82c-.18-.33-.37-.66-.58-1" fill="#f15259"/><path d="M134.69 39.53l1.41-.82c.07.13.13.26.2.38l-1.41.82c-.07-.12-.13-.25-.2-.38" fill="#f14b52"/><path d="M134.89 39.91l1.41-.82.18.37-1.41.82-.18-.37" fill="#f04349"/><path d="M135.07 40.28l1.41-.82c0 .08.07.15.1.23l-1.41.82c0-.08-.07-.15-.1-.23" fill="#ef373e"/><path d="M135.17 40.51l1.41-.82a2.44 2.44 0 0 1 .1.24l-1.41.81c0-.07-.06-.15-.1-.23" fill="#ed1c24"/><path d="M135.27 40.74l1.41-.81a1.33 1.33 0 0 1 .1.24l-1.41.82a1.86 1.86 0 0 0-.1-.25" fill="#e81b23"/><path d="M135.37 41l1.41-.82.09.24-1.41.82-.09-.24" fill="#e41b23"/><path d="M135.46 41.23l1.41-.82c0 .1.07.19.1.29l-1.41.82c0-.1-.06-.19-.1-.29" fill="#df1a22"/><path d="M135.56 41.52l1.44-.82.09.29-1.4.82c0-.1-.07-.2-.1-.29" fill="#da1a21"/><path d="M135.66 41.81l1.4-.82a1.81 1.81 0 0 1 .09.31l-1.41.82c0-.1-.05-.21-.08-.31" fill="#d51920"/><path d="M135.74 42.12l1.41-.82c0 .12.07.23.1.35l-1.41.82c0-.12-.06-.23-.1-.35" fill="#d11920"/><path d="M135.84 42.47l1.41-.82c0 .15.07.3.1.45l-1.41.82c0-.15-.07-.3-.1-.45" fill="#cc181f"/><path d="M135.94 42.92l1.41-.82c0 .16.06.32.1.48l-1.45.82c0-.16-.07-.32-.1-.48" fill="#c7181e"/><path d="M136 43.4l1.41-.82c0 .2.07.4.1.62l-1.41.81c0-.21-.07-.41-.1-.61" fill="#c2171e"/><path d="M136.14 44l1.41-.81c0 .25.08.52.11.8l-1.41.82c0-.28-.07-.55-.11-.81" fill="#be161d"/><path d="M136.25 44.82l1.41-.82c0 .35.08.71.12 1.11l-1.41.81c0-.39-.07-.75-.12-1.1" fill="#b9161c"/><path d="M136.37 45.92l1.41-.81c.05.51.09 1.06.13 1.67l-1.41.82c0-.61-.08-1.16-.13-1.68" fill="#b4151b"/><path d="M136.5 47.6l1.41-.82c.06 1 .12 2.2.15 3.55l-1.41.82c0-1.35-.09-2.52-.15-3.55" fill="#af151b"/><path d="M136.65 51.15l1.41-.82c.12 3.94.13 9.39.09 17.2l-1.41.82c0-7.81 0-13.26-.09-17.2" fill="#ab141a"/><path d="M136.74 68.35l1.41-.82c-.06 13.14-.28 32.93-.43 63.38l-1.41.81c.15-30.44.37-50.23.43-63.37" fill="#a61419"/><path d="M136.31 131.72l1.41-.81v2.57l-1.41.82v-2.58" fill="#ab141a"/></g></g><g style="isolation:isolate"><path fill="#165c79" d="M204.53 139.87l-.38 132.71L9.06 159.95l.38-132.72 195.09 112.64z"/><path fill="#2084ae" d="M204.53 139.87l1.41-.82-.38 132.71-1.41.82.38-132.71z"/><path fill="#2393c3" d="M9.44 27.23l1.41-.82 195.09 112.64-1.41.82L9.44 27.23z"/></g><path fill="none" stroke="#64c0f9" stroke-miterlimit="10" stroke-width="4" d="M-19 238l175-51M-19 238l175-51" filter="url(#a)"/><path fill="none" stroke="#64c0f9" stroke-miterlimit="10" stroke-width="4" d="M-19 234l175-51"/><path fill="none" stroke="#64c0f9" stroke-miterlimit="10" stroke-width="4" d="M-34 309.23l291-84.81M-34 309.23l291-84.81" filter="url(#a)"/><path fill="none" stroke="#64c0f9" stroke-miterlimit="10" stroke-width="4" d="M-34 302.58l291-84.81"/><path fill="none" stroke="#64c0f9" stroke-miterlimit="10" stroke-width="4" d="M315 131.23l291-84.81M315 131.23l291-84.81" filter="url(#a)"/><path fill="none" stroke="#64c0f9" stroke-miterlimit="10" stroke-width="4" d="M315 124.58l291-84.81"/><g filter="url(#w)"><path fill="teal" d="M153.17 184.96l.7-.41-20.61 16.26-.71.41 20.62-16.26z"/><path fill="#00d8d8" d="M127.65 192.73l.71-.41 24.54-9.47-.71.41-24.54 9.47z"/><path fill="teal" d="M153.78 185.69l.7-.41-15.45 23.3-.7.41 15.45-23.3z"/><path fill="#00dcdc" d="M123.81 183.86l.71-.41 28.05-1.49-.71.41-28.05 1.49z"/><path fill="teal" d="M154.44 186.3l.71-.41-9.71 29.46-.7.41 9.7-29.46z"/><path fill="#00d5d5" d="M121.17 174.94l.7-.41 30.5 6.55-.7.41-30.5-6.55z"/><path fill="teal" d="M155.14 186.78l.7-.41-3.58 34.48-.7.41 3.58-34.48z"/><path fill="#00c8c8" d="M119.84 166.32l.7-.41 31.76 14.34-.7.41-31.76-14.34z"/><path fill="teal" d="M155.83 187.1l.7-.41 2.68 38.18-.7.41-2.68-38.18z"/><path fill="#00b8b8" d="M119.86 158.33l.7-.41 31.82 21.57-.71.41-31.81-21.57z"/><path fill="teal" d="M156.49 187.25l.71-.41 8.84 40.4-.71.41-8.84-40.4z"/><path fill="#00a8a8" d="M121.24 151.27l.7-.41 30.64 27.98-.71.41-30.63-27.98z"/><path fill="teal" d="M157.11 187.23l.7-.41 14.66 41.07-.7.41-14.66-41.07z"/><path fill="#009a9a" d="M123.92 145.43l.7-.41 28.29 33.31-.7.41-28.29-33.31z"/><path fill="#008585" d="M157.65 187.04l.7-.41 19.91 40.16-.7.41-19.91-40.16z"/><path fill="#008f8f" d="M127.8 141.01l.71-.41 24.84 37.37-.7.41-24.85-37.37z"/><path fill="#008e8e" d="M158.09 186.67l.71-.41 24.4 37.72-.71.41-24.4-37.72z"/><path fill="#008686" d="M132.73 138.2l.71-.41 20.45 39.98-.7.41-20.46-39.98z"/><path fill="#099" d="M158.42 186.15l.71-.41 27.95 33.83-.71.41-27.95-33.83z"/><path fill="#008181" d="M138.53 137.1l.71-.41 15.26 41.06-.7.41-15.27-41.06z"/><path fill="#00a7a7" d="M158.63 185.51l.7-.41 30.43 28.63-.7.41-30.43-28.63z"/><path fill="teal" d="M144.96 137.75l.71-.41 9.5 40.56-.7.41-9.51-40.56z"/><path fill="#00b6b6" d="M158.69 184.75l.71-.41 31.74 22.33-.7.41-31.75-22.33z"/><path fill="teal" d="M151.78 140.13l.71-.41 3.38 38.5-.71.41-3.38-38.5z"/><path fill="#00c6c6" d="M158.63 183.92l.71-.41 31.83 15.17-.71.41-31.83-15.17z"/><path fill="teal" d="M158.74 144.15l.7-.41-2.88 34.96-.71.41 2.89-34.96z"/><path fill="#00d4d4" d="M158.43 183.03l.7-.4 30.7 7.43-.71.41-30.69-7.44z"/><path fill="teal" d="M165.55 149.64l.71-.41-9.04 30.08-.71.41 9.04-30.08z"/><path fill="#00dcdc" d="M158.11 182.14l.7-.41 28.38-.59-.71.41-28.37.59z"/><path fill="teal" d="M171.97 156.41l.71-.41-14.85 24.04-.7.41 14.84-24.04z"/><path fill="#00d9d9" d="M157.67 181.27l.7-.41 24.97-8.6-.7.41-24.97 8.6z"/><path fill="teal" d="M177.74 164.19l.7-.41-20.07 17.08-.7.41 20.07-17.08z"/><path fill="#00acac" d="M158.69 184.75l31.75 22.33-31.81-21.57 30.43 28.63-30.64-27.99 27.95 33.83-28.28-33.31 24.4 37.72-24.84-37.35 19.91 40.16-20.45-39.97 14.66 41.07-15.28-41.05 8.84 40.4-9.5-40.55 2.68 38.18-3.37-38.5-3.58 34.48 2.88-34.96-9.7 29.46 9.04-30.07-15.45 23.3 14.84-24.03-20.62 16.26 20.08-17.08-24.98 8.59 24.54-9.47-28.38.6 28.05-1.49-30.69-7.43 30.5 6.55-31.83-15.17 31.76 14.34-31.74-22.33 31.81 21.57-30.43-28.63 30.63 27.98-27.95-33.82 28.29 33.31-24.41-37.73 24.85 37.37-19.92-40.18 20.46 39.98-14.66-41.08 15.27 41.06-8.84-40.41 9.51 40.56-2.69-38.18 3.38 38.5 3.58-34.48-2.89 34.96 9.7-29.47-9.04 30.08 15.46-23.31-14.84 24.04 20.61-16.26-20.07 17.08 24.97-8.6-24.53 9.47 28.37-.59-28.05 1.48 30.69 7.44-30.49-6.55 31.83 15.17-31.77-14.34z"/></g><g filter="url(#w)"><path fill="teal" d="M153.17 184.96l.7-.41-20.61 16.26-.71.41 20.62-16.26z"/><path fill="#00d8d8" d="M127.65 192.73l.71-.41 24.54-9.47-.71.41-24.54 9.47z"/><path fill="teal" d="M153.78 185.69l.7-.41-15.45 23.3-.7.41 15.45-23.3z"/><path fill="#00dcdc" d="M123.81 183.86l.71-.41 28.05-1.49-.71.41-28.05 1.49z"/><path fill="teal" d="M154.44 186.3l.71-.41-9.71 29.46-.7.41 9.7-29.46z"/><path fill="#00d5d5" d="M121.17 174.94l.7-.41 30.5 6.55-.7.41-30.5-6.55z"/><path fill="teal" d="M155.14 186.78l.7-.41-3.58 34.48-.7.41 3.58-34.48z"/><path fill="#00c8c8" d="M119.84 166.32l.7-.41 31.76 14.34-.7.41-31.76-14.34z"/><path fill="teal" d="M155.83 187.1l.7-.41 2.68 38.18-.7.41-2.68-38.18z"/><path fill="#00b8b8" d="M119.86 158.33l.7-.41 31.82 21.57-.71.41-31.81-21.57z"/><path fill="teal" d="M156.49 187.25l.71-.41 8.84 40.4-.71.41-8.84-40.4z"/><path fill="#00a8a8" d="M121.24 151.27l.7-.41 30.64 27.98-.71.41-30.63-27.98z"/><path fill="teal" d="M157.11 187.23l.7-.41 14.66 41.07-.7.41-14.66-41.07z"/><path fill="#009a9a" d="M123.92 145.43l.7-.41 28.29 33.31-.7.41-28.29-33.31z"/><path fill="#008585" d="M157.65 187.04l.7-.41 19.91 40.16-.7.41-19.91-40.16z"/><path fill="#008f8f" d="M127.8 141.01l.71-.41 24.84 37.37-.7.41-24.85-37.37z"/><path fill="#008e8e" d="M158.09 186.67l.71-.41 24.4 37.72-.71.41-24.4-37.72z"/><path fill="#008686" d="M132.73 138.2l.71-.41 20.45 39.98-.7.41-20.46-39.98z"/><path fill="#099" d="M158.42 186.15l.71-.41 27.95 33.83-.71.41-27.95-33.83z"/><path fill="#008181" d="M138.53 137.1l.71-.41 15.26 41.06-.7.41-15.27-41.06z"/><path fill="#00a7a7" d="M158.63 185.51l.7-.41 30.43 28.63-.7.41-30.43-28.63z"/><path fill="teal" d="M144.96 137.75l.71-.41 9.5 40.56-.7.41-9.51-40.56z"/><path fill="#00b6b6" d="M158.69 184.75l.71-.41 31.74 22.33-.7.41-31.75-22.33z"/><path fill="teal" d="M151.78 140.13l.71-.41 3.38 38.5-.71.41-3.38-38.5z"/><path fill="#00c6c6" d="M158.63 183.92l.71-.41 31.83 15.17-.71.41-31.83-15.17z"/><path fill="teal" d="M158.74 144.15l.7-.41-2.88 34.96-.71.41 2.89-34.96z"/><path fill="#00d4d4" d="M158.43 183.03l.7-.4 30.7 7.43-.71.41-30.69-7.44z"/><path fill="teal" d="M165.55 149.64l.71-.41-9.04 30.08-.71.41 9.04-30.08z"/><path fill="#00dcdc" d="M158.11 182.14l.7-.41 28.38-.59-.71.41-28.37.59z"/><path fill="teal" d="M171.97 156.41l.71-.41-14.85 24.04-.7.41 14.84-24.04z"/><path fill="#00d9d9" d="M157.67 181.27l.7-.41 24.97-8.6-.7.41-24.97 8.6z"/><path fill="teal" d="M177.74 164.19l.7-.41-20.07 17.08-.7.41 20.07-17.08z"/><path fill="#00acac" d="M158.69 184.75l31.75 22.33-31.81-21.57 30.43 28.63-30.64-27.99 27.95 33.83-28.28-33.31 24.4 37.72-24.84-37.35 19.91 40.16-20.45-39.97 14.66 41.07-15.28-41.05 8.84 40.4-9.5-40.55 2.68 38.18-3.37-38.5-3.58 34.48 2.88-34.96-9.7 29.46 9.04-30.07-15.45 23.3 14.84-24.03-20.62 16.26 20.08-17.08-24.98 8.59 24.54-9.47-28.38.6 28.05-1.49-30.69-7.43 30.5 6.55-31.83-15.17 31.76 14.34-31.74-22.33 31.81 21.57-30.43-28.63 30.63 27.98-27.95-33.82 28.29 33.31-24.41-37.73 24.85 37.37-19.92-40.18 20.46 39.98-14.66-41.08 15.27 41.06-8.84-40.41 9.51 40.56-2.69-38.18 3.38 38.5 3.58-34.48-2.89 34.96 9.7-29.47-9.04 30.08 15.46-23.31-14.84 24.04 20.61-16.26-20.07 17.08 24.97-8.6-24.53 9.47 28.37-.59-28.05 1.48 30.69 7.44-30.49-6.55 31.83 15.17-31.77-14.34z"/></g><g filter="url(#w)"><path fill="teal" d="M255.17 221.96l.7-.41-20.61 16.26-.7.41 20.61-16.26z"/><path fill="#00d8d8" d="M229.66 229.73l.7-.41 24.53-9.47-.7.41-24.53 9.47z"/><path fill="teal" d="M255.78 222.69l.71-.41-15.46 23.31-.71.4 15.46-23.3z"/><path fill="#00dcdc" d="M225.81 220.86l.71-.41 28.05-1.49-.7.41-28.06 1.49z"/><path fill="teal" d="M256.44 223.31l.71-.41-9.71 29.45-.7.41 9.7-29.45z"/><path fill="#00d5d5" d="M223.17 211.94l.71-.41 30.49 6.55-.71.41-30.49-6.55z"/><path fill="teal" d="M257.13 223.78l.71-.41-3.58 34.48-.7.41 3.57-34.48z"/><path fill="#00c8c8" d="M221.83 203.32l.71-.41 31.77 14.34-.71.41-31.77-14.34z"/><path fill="teal" d="M257.83 224.11l.71-.41 2.67 38.16-.7.41-2.68-38.16z"/><path fill="#00b8b8" d="M221.86 195.33l.7-.41 31.81 21.57-.7.41-31.81-21.57z"/><path fill="teal" d="M258.5 224.26l.7-.41 8.84 40.39-.71.41-8.83-40.39z"/><path fill="#00a8a8" d="M223.24 188.28l.7-.41 30.64 27.97-.7.41-30.64-27.97z"/><path fill="teal" d="M259.11 224.24l.7-.41 14.66 41.06-.71.41-14.65-41.06z"/><path fill="#009a9a" d="M225.92 182.43l.71-.4 28.28 33.3-.71.41-28.28-33.31z"/><path fill="#008585" d="M259.65 224.04l.7-.41 19.92 40.16-.71.41-19.91-40.16z"/><path fill="#008f8f" d="M229.8 178.02l.71-.41 24.84 37.36-.7.41-24.85-37.36z"/><path fill="#008e8e" d="M260.09 223.67l.7-.41 24.41 37.72-.71.41-24.4-37.72z"/><path fill="#008686" d="M234.74 175.21l.7-.41 20.45 39.97-.7.41-20.45-39.97z"/><path fill="#099" d="M260.42 223.15l.7-.41 27.96 33.83-.7.41-27.96-33.83z"/><path fill="#008181" d="M240.53 174.1l.7-.41 15.28 41.06-.71.4-15.27-41.05z"/><path fill="#00a7a7" d="M260.62 222.51l.71-.41 30.43 28.62-.7.41-30.44-28.62z"/><path fill="teal" d="M246.96 174.75l.7-.41 9.51 40.56-.7.41-9.51-40.56z"/><path fill="#00b6b6" d="M260.69 221.76l.71-.41 31.74 22.32-.7.41-31.75-22.32z"/><path fill="teal" d="M253.79 177.14l.7-.41 3.37 38.49-.7.41-3.37-38.49z"/><path fill="#00c6c6" d="M260.63 220.92l.7-.41 31.83 15.17-.7.41-31.83-15.17z"/><path fill="teal" d="M260.74 181.15l.7-.41-2.88 34.96-.71.41 2.89-34.96z"/><path fill="#00d4d4" d="M260.43 220.03l.7-.4 30.7 7.43-.7.41-30.7-7.44z"/><path fill="teal" d="M267.56 186.65l.7-.41-9.04 30.07-.7.41 9.04-30.07z"/><path fill="#00dcdc" d="M260.1 219.14l.71-.41 28.38-.58-.7.41-28.39.58z"/><path fill="teal" d="M273.97 193.41l.7-.41-14.84 24.05-.7.41 14.84-24.05z"/><path fill="#00d9d9" d="M259.66 218.27l.71-.41 24.98-8.59-.71.41-24.98 8.59z"/><path fill="teal" d="M279.74 201.19l.71-.41-20.08 17.08-.71.41 20.08-17.08z"/><path fill="#00acac" d="M260.69 221.76l31.75 22.32-31.82-21.57 30.44 28.62-30.64-27.98 27.96 33.83-28.29-33.31 24.4 37.72-24.84-37.35 19.91 40.16-20.45-39.96 14.65 41.06-15.26-41.04 8.83 40.39-9.5-40.54 2.68 38.16-3.38-38.49-3.57 34.48 2.88-34.95-9.7 29.45 9.04-30.07-15.46 23.3 14.85-24.03-20.61 16.26 20.07-17.08-24.97 8.59 24.53-9.47-28.38.6 28.06-1.49-30.7-7.43 30.49 6.55-31.83-15.17 31.77 14.34-31.74-22.33 31.81 21.57-30.43-28.62 30.64 27.97-27.96-33.82 28.28 33.31-24.4-37.72 24.85 37.36-19.91-40.17 20.45 39.97-14.66-41.08 15.27 41.05-8.84-40.4 9.51 40.56-2.68-38.17 3.37 38.49 3.58-34.48-2.89 34.96 9.71-29.46-9.04 30.07 15.45-23.31-14.84 24.05 20.61-16.27-20.08 17.08 24.98-8.59-24.54 9.46 28.39-.58-28.06 1.47 30.7 7.44-30.5-6.55 31.83 15.17-31.77-14.33z"/></g><g filter="url(#w)"><path fill="teal" d="M254.16 220.96l.71-.41-20.61 16.26-.7.41 20.6-16.26z"/><path fill="#00d8d8" d="M228.66 228.73l.7-.41 24.54-9.47-.71.41-24.53 9.47z"/><path fill="teal" d="M254.78 221.69l.7-.41-15.45 23.3-.71.41 15.46-23.3z"/><path fill="#00dcdc" d="M224.81 219.86l.7-.41 28.06-1.49-.7.41-28.06 1.49z"/><path fill="teal" d="M255.45 222.31l.7-.41-9.71 29.45-.7.41 9.71-29.45z"/><path fill="#00d5d5" d="M222.17 210.94l.71-.41 30.49 6.55-.7.41-30.5-6.55z"/><path fill="teal" d="M256.14 222.78l.7-.41-3.58 34.49-.7.4 3.58-34.48z"/><path fill="#00c8c8" d="M220.84 202.32l.7-.41 31.76 14.34-.7.41-31.76-14.34z"/><path fill="teal" d="M256.83 223.1l.7-.41 2.68 38.18-.7.4-2.68-38.17z"/><path fill="#00b8b8" d="M220.86 194.33l.7-.41 31.82 21.57-.71.41-31.81-21.57z"/><path fill="teal" d="M257.5 223.26l.7-.41 8.84 40.39-.71.41-8.83-40.39z"/><path fill="#00a8a8" d="M222.24 187.28l.7-.41 30.64 27.97-.7.41-30.64-27.97z"/><path fill="teal" d="M258.11 223.24l.71-.41 14.65 41.06-.7.41-14.66-41.06z"/><path fill="#009a9a" d="M224.92 181.43l.7-.41 28.29 33.31-.71.41-28.28-33.31z"/><path fill="#008585" d="M258.65 223.04l.7-.41 19.91 40.16-.7.41-19.91-40.16z"/><path fill="#008f8f" d="M228.81 177.02l.7-.41 24.84 37.36-.7.41-24.84-37.36z"/><path fill="#008e8e" d="M259.09 222.67l.71-.41 24.39 37.72-.7.41-24.4-37.72z"/><path fill="#008686" d="M233.74 174.21l.7-.41 20.45 39.97-.71.41-20.44-39.97z"/><path fill="#099" d="M259.42 222.15l.7-.41 27.96 33.83-.7.41-27.96-33.83z"/><path fill="#008181" d="M239.53 173.1l.7-.41 15.27 41.06-.7.41-15.27-41.06z"/><path fill="#00a7a7" d="M259.63 221.51l.7-.41 30.43 28.63-.7.41-30.43-28.63z"/><path fill="teal" d="M245.96 173.75l.7-.41 9.51 40.56-.7.41-9.51-40.56z"/><path fill="#00b6b6" d="M259.7 220.76l.7-.41 31.74 22.32-.7.41-31.74-22.32z"/><path fill="teal" d="M252.79 176.14l.7-.41 3.37 38.49-.7.41-3.37-38.49z"/><path fill="#00c6c6" d="M259.63 219.92l.7-.41 31.83 15.17-.7.41-31.83-15.17z"/><path fill="teal" d="M259.74 180.15l.7-.41-2.89 34.96-.7.41 2.89-34.96z"/><path fill="#00d4d4" d="M259.43 219.03l.7-.4 30.7 7.43-.71.41-30.69-7.44z"/><path fill="teal" d="M266.56 185.65l.7-.41-9.04 30.08-.7.41 9.04-30.08z"/><path fill="#00dcdc" d="M259.1 218.14l.71-.41 28.38-.58-.7.41-28.39.58z"/><path fill="teal" d="M272.97 192.41l.71-.41-14.85 24.05-.7.41 14.84-24.05z"/><path fill="#00d9d9" d="M258.67 217.27l.7-.41 24.97-8.6-.7.41-24.97 8.6z"/><path fill="teal" d="M278.74 200.19l.7-.41-20.07 17.08-.7.41 20.07-17.08z"/><path fill="#00acac" d="M259.7 220.76l31.74 22.32-31.81-21.57 30.43 28.63-30.64-27.99 27.96 33.83-28.29-33.31 24.4 37.72-24.84-37.35 19.91 40.16-20.45-39.96 14.66 41.06-15.27-41.04 8.83 40.39-9.5-40.55 2.68 38.17-3.37-38.49-3.58 34.48 2.89-34.95-9.71 29.45 9.04-30.07-15.46 23.3 14.84-24.03-20.6 16.26 20.07-17.08-24.97 8.59 24.53-9.47-28.38.6 28.06-1.49-30.7-7.43 30.5 6.55-31.83-15.17 31.76 14.34-31.74-22.33 31.81 21.57-30.43-28.62 30.64 27.97-27.96-33.82 28.28 33.31-24.39-37.72 24.84 37.36-19.91-40.17 20.44 39.97-14.65-41.08 15.27 41.06-8.84-40.41 9.51 40.56-2.68-38.17 3.37 38.49 3.58-34.48-2.89 34.96 9.71-29.46-9.04 30.08 15.45-23.32-14.84 24.05 20.61-16.27-20.07 17.08 24.97-8.6-24.54 9.47 28.39-.58-28.06 1.47 30.69 7.44-30.49-6.55 31.83 15.17-31.76-14.33z"/></g></g><g data-name="Layer 6"><g style="mix-blend-mode:screen"><g style="isolation:isolate"><g style="isolation:isolate" clip-path="url(#x)"><path d="M129.58 138.36l.71-.41c-6.61 3.83-10.7 12-10.73 23.6 0 14.23 6 30.35 15.39 43.43l-.7.41c-9.36-13.08-15.44-29.2-15.4-43.43 0-11.6 4.13-19.77 10.73-23.6" fill="#0e0a34"/><path d="M134.25 205.39l.7-.41q1.71 2.39 3.57 4.64l-.71.41q-1.84-2.25-3.56-4.64" fill="#0f0b36"/><path d="M137.81 210l.71-.41q1.47 1.78 3 3.47l-.71.41c-1-1.12-2.05-2.28-3-3.47" fill="#0f0b38"/><path d="M140.84 213.5l.71-.41c.89 1 1.81 1.91 2.74 2.81l-.7.41c-.94-.9-1.85-1.84-2.75-2.81" fill="#100c3a"/><path d="M143.59 216.31l.7-.41c.85.83 1.72 1.63 2.59 2.4l-.7.41c-.88-.77-1.74-1.57-2.59-2.4" fill="#100c3c"/><path d="M146.18 218.71l.7-.41c.83.73 1.68 1.44 2.53 2.11l-.71.41c-.85-.67-1.69-1.38-2.52-2.11" fill="#110c3e"/><path d="M148.7 220.82l.71-.41c.83.66 1.66 1.29 2.51 1.89l-.71.41c-.84-.6-1.68-1.23-2.51-1.89" fill="#110d40"/><path d="M151.21 222.71l.71-.41c.84.6 1.69 1.17 2.54 1.71l-.7.41q-1.29-.81-2.55-1.71" fill="#120d42"/><path d="M153.76 224.42l.7-.41c.59.37 1.18.73 1.77 1.07l-.7.41c-.6-.34-1.19-.7-1.77-1.07" fill="#120e44"/></g><g style="isolation:isolate" clip-path="url(#y)"><path d="M137.19 151.44l.7-.41c-4.68 2.72-7.58 8.5-7.6 16.71 0 10.09 4.28 21.51 10.91 30.77l-.71.41c-6.63-9.26-10.93-20.68-10.91-30.77 0-8.21 2.93-14 7.61-16.71" fill="#18194c"/><path d="M140.49 198.92l.71-.41c.8 1.13 1.65 2.23 2.52 3.29l-.71.41c-.87-1.06-1.71-2.16-2.52-3.29" fill="#191a4f"/><path d="M143 202.21l.71-.41c.7.84 1.41 1.66 2.15 2.45l-.71.41a63.79 63.79 0 0 1-2.15-2.45" fill="#1a1b52"/><path d="M145.16 204.66l.71-.41c.63.69 1.28 1.36 1.94 2l-.7.41c-.66-.65-1.31-1.31-2-2" fill="#1b1c55"/><path d="M147.11 206.66l.7-.41c.6.58 1.21 1.15 1.84 1.7l-.71.41c-.62-.55-1.23-1.12-1.83-1.7" fill="#1c1d58"/><path d="M148.94 208.36l.71-.41c.58.51 1.18 1 1.78 1.49l-.7.41c-.6-.48-1.2-1-1.79-1.49" fill="#1d1e5b"/><path d="M150.73 209.85l.7-.41c.59.47 1.18.91 1.78 1.34l-.7.41c-.6-.43-1.19-.87-1.78-1.34" fill="#1d1f5d"/><path d="M152.51 211.19l.7-.41c.6.42 1.2.83 1.8 1.21l-.7.41c-.61-.38-1.21-.79-1.8-1.21" fill="#1e2060"/><path d="M154.31 212.4l.7-.41 1.26.76-.71.41c-.42-.25-.84-.5-1.25-.76" fill="#1f2163"/></g><g clip-path="url(#z)"><path d="M129.58 138.36l.71-.41c-6.61 3.83-10.7 12-10.73 23.6 0 14.23 6 30.35 15.39 43.43l-.7.41c-9.36-13.08-15.44-29.2-15.4-43.43 0-11.6 4.13-19.77 10.73-23.6" fill="#0e0a34"/></g><g clip-path="url(#A)"><path d="M129.58 138.36l.71-.41c-6.61 3.83-10.7 12-10.73 23.6 0 14.23 6 30.35 15.39 43.43l-.7.41c-9.36-13.08-15.44-29.2-15.4-43.43 0-11.6 4.13-19.77 10.73-23.6" fill="#0e0a34"/></g><g clip-path="url(#B)"><path d="M129.58 138.36l.71-.41c-6.61 3.83-10.7 12-10.73 23.6 0 14.23 6 30.35 15.39 43.43l-.7.41c-9.36-13.08-15.44-29.2-15.4-43.43 0-11.6 4.13-19.77 10.73-23.6" fill="#0e0a34"/></g><g style="isolation:isolate" clip-path="url(#C)"><path d="M144.47 164.35l.7-.41c-2.5 1.46-4.13 4.65-4.15 10a30.43 30.43 0 0 0 5.9 17.6l-.7.41a30.36 30.36 0 0 1-5.9-17.6c0-5.35 1.64-8.54 4.15-10" fill="#003b62"/><path d="M146.22 192l.7-.41c.46.64.94 1.26 1.43 1.86l-.7.41c-.49-.6-1-1.22-1.43-1.86" fill="#003d66"/><path d="M147.65 193.81l.7-.41c.42.5.84 1 1.27 1.45l-.7.41c-.44-.47-.86-.95-1.27-1.45" fill="#003f69"/><path d="M148.92 195.26l.7-.41c.39.42.78.82 1.19 1.21l-.71.41c-.4-.39-.8-.79-1.18-1.21" fill="#00426d"/><path d="M150.1 196.47l.71-.41c.38.37.77.73 1.16 1.08l-.71.41c-.39-.35-.78-.71-1.16-1.08" fill="#004471"/><path d="M151.26 197.55l.71-.41c.38.33.77.66 1.15 1l-.7.41c-.39-.31-.78-.63-1.16-1" fill="#004675"/><path d="M152.42 198.51l.7-.41c.39.31.78.6 1.17.88l-.71.41c-.39-.28-.77-.57-1.16-.88" fill="#004878"/><path d="M153.58 199.39l.71-.41c.39.28.79.54 1.18.79l-.7.41c-.4-.25-.79-.51-1.19-.79" fill="#004b7c"/><path d="M154.77 200.18l.7-.41c.28.18.55.34.83.5l-.71.41c-.27-.16-.55-.32-.82-.5" fill="#004d80"/></g><g clip-path="url(#D)"><path d="M137.19 151.44l.7-.41c-4.68 2.72-7.58 8.5-7.6 16.71 0 10.09 4.28 21.51 10.91 30.77l-.71.41c-6.63-9.26-10.93-20.68-10.91-30.77 0-8.21 2.93-14 7.61-16.71" fill="#18194c"/></g><g clip-path="url(#E)"><path d="M144.47 164.35l.7-.41c-2.5 1.46-4.13 4.65-4.15 10a30.43 30.43 0 0 0 5.9 17.6l-.7.41a30.36 30.36 0 0 1-5.9-17.6c0-5.35 1.64-8.54 4.15-10" fill="#003b62"/></g><g style="isolation:isolate" clip-path="url(#F)"><path d="M155.53 225.49l.7-.41.85.48-.7.41-.85-.48" fill="#120e44"/><path d="M156.38 226l.7-.41c.9.5 1.8.95 2.69 1.37l-.71.41c-.89-.42-1.78-.87-2.68-1.37" fill="#130e46"/><path d="M159.06 227.34l.71-.41c.94.44 1.88.83 2.8 1.18l-.7.41c-.93-.35-1.86-.74-2.81-1.18" fill="#130e48"/><path d="M161.87 228.52l.7-.41c1 .39 2.05.73 3.06 1l-.71.41c-1-.27-2-.61-3-1" fill="#140f4a"/><path d="M164.92 229.52l.71-.41a27.15 27.15 0 0 0 3.51.74l-.71.41a27.88 27.88 0 0 1-3.51-.74" fill="#150f4c"/><path d="M168.43 230.26l.71-.41a23.15 23.15 0 0 0 4.58.25l-.71.41a23.15 23.15 0 0 1-4.58-.25" fill="#15104e"/><path d="M173 230.51l.71-.41a18.73 18.73 0 0 0 8.7-2.46l-.71.41a18.66 18.66 0 0 1-8.7 2.46" fill="#161050"/></g><g style="isolation:isolate" clip-path="url(#G)"><path d="M155.56 213.16l.71-.41.6.34-.71.41-.6-.34" fill="#1f2163"/><path d="M156.16 213.5l.71-.41c.64.35 1.27.67 1.9 1l-.7.41c-.63-.3-1.27-.62-1.91-1" fill="#202266"/><path d="M158.07 214.47l.7-.41c.67.31 1.34.59 2 .84l-.7.41c-.66-.25-1.32-.53-2-.84" fill="#212369"/><path d="M160.06 215.31l.7-.41c.73.27 1.45.51 2.16.7l-.7.41c-.71-.19-1.43-.43-2.16-.7" fill="#22246c"/><path d="M162.22 216l.7-.41a19.83 19.83 0 0 0 2.49.53l-.7.41a19.83 19.83 0 0 1-2.49-.53" fill="#23256f"/><path d="M164.71 216.54l.7-.41a18 18 0 0 0 3.24.18l-.7.41a18 18 0 0 1-3.24-.18" fill="#242672"/><path d="M168 216.72l.7-.41a13.27 13.27 0 0 0 6.16-1.75l-.7.41a13.3 13.3 0 0 1-6.16 1.75" fill="#252775"/></g><g clip-path="url(#H)"><path d="M137.19 151.44l.7-.41c-4.68 2.72-7.58 8.5-7.6 16.71 0 10.09 4.28 21.51 10.91 30.77l-.71.41c-6.63-9.26-10.93-20.68-10.91-30.77 0-8.21 2.93-14 7.61-16.71" fill="#18194c"/></g><g clip-path="url(#I)"><path d="M129.58 138.36l.71-.41c-6.61 3.83-10.7 12-10.73 23.6 0 14.23 6 30.35 15.39 43.43l-.7.41c-9.36-13.08-15.44-29.2-15.4-43.43 0-11.6 4.13-19.77 10.73-23.6" fill="#0e0a34"/></g><g style="isolation:isolate" clip-path="url(#J)"><path d="M155.59 200.68l.71-.41.39.22-.71.41-.39-.22" fill="#004d80"/><path d="M156 200.9l.71-.41c.42.23.83.45 1.25.64l-.7.41c-.42-.19-.84-.41-1.26-.64" fill="#004f84"/><path d="M157.24 201.54l.7-.41c.44.21.88.39 1.31.56l-.7.41c-.44-.17-.88-.35-1.31-.56" fill="#005187"/><path d="M158.55 202.1l.7-.41c.47.17.93.32 1.39.45l-.7.41c-.46-.13-.93-.28-1.39-.45" fill="#00548b"/><path d="M159.94 202.55l.7-.41a11.44 11.44 0 0 0 1.56.33l-.7.41a11.44 11.44 0 0 1-1.56-.33" fill="#00568f"/><path d="M161.5 202.88l.7-.41a9.93 9.93 0 0 0 1.94.11l-.7.41a9.89 9.89 0 0 1-1.94-.11" fill="#005893"/><path d="M163.44 203l.7-.41a7.24 7.24 0 0 0 3.4-.94l-.71.41a7.17 7.17 0 0 1-3.39.94" fill="#005a96"/></g><g style="isolation:isolate" clip-path="url(#K)"><path d="M144.47 164.35l.7-.41a7.44 7.44 0 0 1 3.39-.94l-.7.41a7.4 7.4 0 0 0-3.39.94" fill="#2189b5"/><path d="M147.86 163.41l.7-.41a11.66 11.66 0 0 1 1.94.11l-.7.41a11.78 11.78 0 0 0-1.94-.11" fill="#2085b0"/><path d="M149.8 163.52l.7-.41a13.26 13.26 0 0 1 1.56.34l-.7.41a13.26 13.26 0 0 0-1.56-.34" fill="#1f82ac"/><path d="M151.36 163.86l.7-.41c.46.12.93.28 1.4.45l-.71.41a16 16 0 0 0-1.39-.45" fill="#1e7fa7"/><path d="M152.75 164.31l.71-.41c.43.17.87.35 1.31.56l-.71.41a18.4 18.4 0 0 0-1.31-.56" fill="#1e7ba3"/><path d="M154.06 164.87l.71-.41c.41.19.83.41 1.25.64l-.7.41c-.42-.23-.84-.45-1.26-.64" fill="#1d789e"/><path d="M155.32 165.51l.7-.41.39.22-.7.41-.39-.22" fill="#1c749a"/></g><g style="isolation:isolate" clip-path="url(#L)"><path d="M155.71 165.73l.7-.41c.28.15.55.32.82.49l-.7.41c-.28-.17-.55-.34-.82-.49" fill="#1c749a"/><path d="M156.53 166.22l.7-.41c.4.25.79.52 1.19.8l-.71.41c-.39-.28-.79-.55-1.18-.8" fill="#1b7195"/><path d="M157.71 167l.71-.41c.39.28.78.57 1.16.88l-.7.4-1.17-.87" fill="#1a6d91"/><path d="M158.88 167.89l.7-.4c.39.3.78.63 1.16 1l-.7.41c-.39-.33-.77-.66-1.16-1" fill="#196a8c"/><path d="M160 168.86l.7-.41c.39.35.78.71 1.16 1.08l-.7.41c-.38-.38-.77-.73-1.16-1.08" fill="#196788"/><path d="M161.2 169.94l.7-.41c.4.39.8.79 1.19 1.21l-.71.41c-.39-.42-.78-.82-1.18-1.21" fill="#186383"/><path d="M162.38 171.15l.71-.41c.43.47.85.95 1.26 1.45l-.7.41c-.41-.5-.84-1-1.27-1.45" fill="#17607f"/><path d="M163.65 172.6l.7-.41q.75.9 1.44 1.86l-.71.41c-.46-.64-.94-1.26-1.43-1.86" fill="#165c7a"/><path d="M165.08 174.46l.71-.41a30.43 30.43 0 0 1 5.9 17.6c0 5.35-1.65 8.54-4.15 10l-.71.41c2.51-1.45 4.14-4.64 4.15-10a30.43 30.43 0 0 0-5.9-17.6" fill="#155976"/></g><path d="M155.71 165.73c7.66 4.42 15.3 14.67 15.27 26.33s-7.72 13.05-15.39 8.62-15.31-14.68-15.27-26.33 7.68-13.05 15.39-8.62z" fill="#1d7aa1"/><g style="isolation:isolate" clip-path="url(#M)"><path d="M137.19 151.44l.7-.41a13.21 13.21 0 0 1 6.16-1.74l-.7.4a13.3 13.3 0 0 0-6.16 1.75" fill="#005a96"/><path d="M143.35 149.69l.7-.4a17.06 17.06 0 0 1 3.24.17l-.7.41a18 18 0 0 0-3.24-.18" fill="#005893"/><path d="M146.59 149.87l.7-.41a20.9 20.9 0 0 1 2.49.53l-.7.41a21.78 21.78 0 0 0-2.49-.53" fill="#00568f"/><path d="M149.08 150.4l.7-.41c.71.19 1.43.43 2.16.7l-.7.41c-.73-.27-1.45-.51-2.16-.7" fill="#00548b"/><path d="M151.24 151.1l.7-.41c.66.25 1.32.53 2 .85l-.7.4c-.67-.31-1.34-.59-2-.84" fill="#005187"/><path d="M153.23 151.94l.7-.4c.63.29 1.26.61 1.9 1l-.7.41c-.64-.35-1.27-.67-1.9-1" fill="#004f84"/><path d="M155.13 152.91l.7-.41.61.34-.71.41-.6-.34" fill="#004d80"/></g><g style="isolation:isolate" clip-path="url(#N)"><path d="M129.58 138.36l.71-.41a18.78 18.78 0 0 1 8.69-2.47l-.7.41a18.74 18.74 0 0 0-8.7 2.47" fill="#252775"/><path d="M138.28 135.89l.7-.41a24.77 24.77 0 0 1 4.58.25l-.7.41a24.77 24.77 0 0 0-4.58-.25" fill="#242672"/><path d="M142.86 136.14l.7-.41a29 29 0 0 1 3.51.75l-.7.41a29.85 29.85 0 0 0-3.51-.75" fill="#23256f"/><path d="M146.37 136.89l.7-.41c1 .27 2 .6 3.06 1l-.71.41c-1-.39-2-.72-3-1" fill="#22246c"/><path d="M149.42 137.88l.71-.41c.92.35 1.86.75 2.8 1.19l-.7.41c-.95-.44-1.88-.84-2.81-1.19" fill="#212369"/><path d="M152.23 139.07l.7-.41c.89.42 1.79.87 2.69 1.37l-.7.41c-.91-.5-1.8-.95-2.69-1.37" fill="#202266"/><path d="M154.92 140.44l.7-.41.85.48-.7.41-.85-.48" fill="#1f2163"/></g><path d="M155.73 153.25c14.4 8.32 26 28.47 26 45s-11.73 23.22-26.17 14.91-26-28.46-26-45 11.78-23.22 26.17-14.91zm-.14 47.43c7.67 4.43 15.36 3 15.39-8.63s-7.61-21.9-15.27-26.32-15.36-3-15.39 8.62 7.61 21.91 15.27 26.33" fill="#005086"/><g style="isolation:isolate" clip-path="url(#O)"><path d="M155.73 153.25l.71-.41 1.25.76-.69.4c-.41-.26-.83-.51-1.25-.76" fill="#004d80"/><path d="M157 154l.71-.41c.61.38 1.21.79 1.8 1.21l-.7.41c-.6-.42-1.2-.83-1.81-1.21" fill="#004b7c"/><path d="M158.79 155.22l.7-.41c.6.43 1.19.88 1.78 1.34l-.7.41c-.59-.46-1.18-.91-1.78-1.34" fill="#004878"/><path d="M160.57 156.56l.7-.41c.6.48 1.2 1 1.79 1.5l-.71.41c-.58-.52-1.18-1-1.78-1.5" fill="#004675"/><path d="M162.35 158.06l.71-.41c.62.54 1.23 1.11 1.84 1.7l-.71.41c-.6-.59-1.21-1.16-1.84-1.7" fill="#004471"/><path d="M164.19 159.76l.71-.41c.66.64 1.31 1.3 1.94 2l-.7.41c-.64-.69-1.29-1.35-1.95-2" fill="#00426d"/><path d="M166.14 161.75l.7-.41c.74.79 1.45 1.61 2.15 2.46l-.71.41c-.69-.85-1.41-1.67-2.14-2.46" fill="#003f69"/><path d="M168.28 164.21l.71-.41c.87 1.06 1.72 2.16 2.52 3.29l-.7.41a58.51 58.51 0 0 0-2.53-3.29" fill="#003d66"/><path d="M170.81 167.5l.7-.41c6.63 9.26 10.94 20.68 10.91 30.75 0 8.22-2.93 14-7.61 16.72l-.7.41c4.68-2.72 7.58-8.5 7.6-16.72 0-10.07-4.27-21.49-10.9-30.75" fill="#003b62"/></g><g style="isolation:isolate" clip-path="url(#P)"><path d="M122 125.28l.71-.41a24.17 24.17 0 0 1 11.23-3.18l-.7.41a24.18 24.18 0 0 0-11.24 3.18" fill="#161050"/><path d="M133.22 122.1l.7-.41a30.64 30.64 0 0 1 5.91.32l-.7.41a30.68 30.68 0 0 0-5.91-.32" fill="#15104e"/><path d="M139.13 122.42l.7-.41a39.19 39.19 0 0 1 4.54 1l-.7.41a39.64 39.64 0 0 0-4.54-1" fill="#150f4c"/><path d="M143.67 123.38l.7-.41c1.29.36 2.61.78 3.94 1.29l-.7.41c-1.34-.51-2.65-.93-3.94-1.29" fill="#140f4a"/><path d="M147.61 124.67l.7-.41q1.8.67 3.63 1.53l-.71.41a52.09 52.09 0 0 0-3.62-1.53" fill="#130e48"/><path d="M151.23 126.2l.71-.41c1.14.54 2.3 1.13 3.47 1.77l-.71.41a59.84 59.84 0 0 0-3.47-1.77" fill="#130e46"/><path d="M154.7 128l.71-.41 1.1.62-.71.41-1.1-.62" fill="#120e44"/></g><g style="isolation:isolate" clip-path="url(#Q)"><path d="M155.77 140.92l.7-.41c.59.34 1.18.7 1.77 1.07l-.71.41c-.58-.37-1.17-.73-1.76-1.07" fill="#1f2163"/><path d="M157.53 142l.71-.41c.86.54 1.7 1.11 2.54 1.71l-.7.41q-1.26-.9-2.55-1.71" fill="#1e2060"/><path d="M160.08 143.7l.7-.41q1.28.9 2.52 1.89l-.71.41a54.89 54.89 0 0 0-2.51-1.89" fill="#1d1f5d"/><path d="M162.59 145.59l.71-.41c.85.68 1.69 1.38 2.52 2.11l-.7.41c-.83-.73-1.68-1.43-2.53-2.11" fill="#1d1e5b"/><path d="M165.12 147.7l.7-.41c.88.77 1.75 1.57 2.6 2.4l-.71.41c-.85-.83-1.71-1.63-2.59-2.4" fill="#1c1d58"/><path d="M167.71 150.1l.71-.41c.93.91 1.84 1.85 2.74 2.82l-.7.41c-.9-1-1.82-1.91-2.75-2.82" fill="#1b1c55"/><path d="M170.46 152.92l.7-.41q1.56 1.68 3 3.47l-.7.41c-1-1.2-2-2.35-3-3.47" fill="#1a1b52"/><path d="M173.49 156.39l.7-.41q1.86 2.24 3.57 4.64l-.71.41q-1.71-2.4-3.56-4.64" fill="#191a4f"/><path d="M177.05 161l.71-.41c9.35 13.07 15.43 29.19 15.39 43.42 0 11.6-4.13 19.76-10.73 23.6l-.71.41c6.61-3.84 10.7-12 10.74-23.6 0-14.23-6-30.35-15.4-43.42" fill="#18194c"/></g><path d="M155.77 140.92c20.32 11.73 36.74 40.18 36.68 63.53s-16.6 32.77-36.92 21-36.75-40.14-36.68-63.45 16.59-32.81 36.92-21.08zm-.21 72.24c14.4 8.31 26.11 1.64 26.15-14.91s-11.58-36.68-26-45-26.1-1.63-26.15 14.9 11.59 36.7 26 45" fill="#212368"/><g style="isolation:isolate" clip-path="url(#R)"><path d="M155.8 128.59l.71-.41q1.14.66 2.28 1.38l-.7.41c-.76-.48-1.52-.94-2.29-1.38" fill="#120e44"/><path d="M158.09 130l.7-.41c1.11.7 2.2 1.44 3.29 2.21l-.71.41a75.33 75.33 0 0 0-3.28-2.21" fill="#120d42"/><path d="M161.37 132.18l.71-.41c1.09.78 2.17 1.59 3.24 2.44l-.7.41c-1.07-.85-2.15-1.66-3.25-2.44" fill="#110d40"/><path d="M164.62 134.62l.7-.41c1.1.87 2.19 1.78 3.26 2.73l-.7.41c-1.07-.95-2.16-1.86-3.26-2.73" fill="#110c3e"/><path d="M167.88 137.35l.7-.41c1.14 1 2.26 2 3.36 3.1l-.71.41a87.81 87.81 0 0 0-3.35-3.1" fill="#100c3c"/><path d="M171.23 140.45l.71-.41q1.8 1.76 3.54 3.63l-.7.41q-1.74-1.87-3.55-3.63" fill="#100c3a"/><path d="M174.78 144.08l.7-.41c1.34 1.45 2.65 2.94 3.92 4.49l-.71.41c-1.27-1.55-2.58-3-3.91-4.49" fill="#0f0b38"/><path d="M178.69 148.57l.71-.41c1.59 1.93 3.13 3.93 4.6 6l-.71.41c-1.47-2.06-3-4.06-4.6-6" fill="#0f0b36"/><path d="M183.29 154.56l.71-.41c12.08 16.89 19.94 37.71 19.88 56.08 0 15-5.33 25.54-13.86 30.49l-.71.41c8.54-4.95 13.83-15.5 13.87-30.49 0-18.37-7.8-39.19-19.89-56.08" fill="#0e0a34"/></g><path d="M155.8 128.59c26.25 15.16 47.47 51.89 47.38 82s-21.44 42.41-47.69 27.23-47.49-51.89-47.37-82.06 21.43-42.33 47.68-27.17zm-.27 96.9c20.32 11.73 36.85 2.31 36.92-21s-16.36-51.8-36.68-63.53-36.85-2.31-36.92 21 16.35 51.79 36.68 63.53" fill="#130e47"/></g></g><g style="mix-blend-mode:screen"><g style="isolation:isolate"><g style="isolation:isolate" clip-path="url(#S)"><path d="M230.58 175.36l.71-.41c-6.61 3.83-10.7 12-10.73 23.6 0 14.23 6 30.35 15.39 43.43l-.7.41c-9.36-13.08-15.44-29.2-15.4-43.43 0-11.6 4.13-19.77 10.73-23.6" fill="#0e0a34"/><path d="M235.25 242.39l.7-.41q1.71 2.39 3.57 4.64l-.71.41q-1.84-2.25-3.56-4.64" fill="#0f0b36"/><path d="M238.81 247l.71-.41q1.47 1.78 3 3.47l-.71.41c-1-1.12-2.05-2.28-3-3.47" fill="#0f0b38"/><path d="M241.84 250.5l.71-.41c.89 1 1.81 1.91 2.74 2.81l-.7.41c-.94-.9-1.85-1.84-2.75-2.81" fill="#100c3a"/><path d="M244.59 253.31l.7-.41c.85.83 1.72 1.63 2.59 2.4l-.7.41c-.88-.77-1.74-1.57-2.59-2.4" fill="#100c3c"/><path d="M247.18 255.71l.7-.41c.83.73 1.68 1.44 2.53 2.11l-.71.41c-.85-.67-1.69-1.38-2.52-2.11" fill="#110c3e"/><path d="M249.7 257.82l.71-.41c.83.66 1.66 1.29 2.51 1.89l-.71.41c-.84-.6-1.68-1.23-2.51-1.89" fill="#110d40"/><path d="M252.21 259.71l.71-.41c.84.6 1.69 1.17 2.54 1.71l-.7.41q-1.29-.81-2.55-1.71" fill="#120d42"/><path d="M254.76 261.42l.7-.41c.59.37 1.18.73 1.77 1.07l-.7.41c-.6-.34-1.19-.7-1.77-1.07" fill="#120e44"/></g><g style="isolation:isolate" clip-path="url(#T)"><path d="M238.19 188.44l.7-.41c-4.68 2.72-7.58 8.5-7.6 16.71 0 10.09 4.28 21.51 10.91 30.77l-.71.41c-6.63-9.26-10.93-20.68-10.91-30.77 0-8.21 2.93-14 7.61-16.71" fill="#18194c"/><path d="M241.49 235.92l.71-.41c.8 1.13 1.65 2.23 2.52 3.29l-.71.41c-.87-1.06-1.71-2.16-2.52-3.29" fill="#191a4f"/><path d="M244 239.21l.71-.41c.7.84 1.41 1.66 2.15 2.45l-.71.41a63.79 63.79 0 0 1-2.15-2.45" fill="#1a1b52"/><path d="M246.16 241.66l.71-.41c.63.69 1.28 1.36 1.94 2l-.7.41c-.66-.65-1.31-1.31-2-2" fill="#1b1c55"/><path d="M248.11 243.66l.7-.41c.6.58 1.21 1.15 1.84 1.7l-.71.41c-.62-.55-1.23-1.12-1.83-1.7" fill="#1c1d58"/><path d="M249.94 245.36l.71-.41c.58.51 1.18 1 1.78 1.49l-.7.41c-.6-.48-1.2-1-1.79-1.49" fill="#1d1e5b"/><path d="M251.73 246.85l.7-.41c.59.47 1.18.91 1.78 1.34l-.7.41c-.6-.43-1.19-.87-1.78-1.34" fill="#1d1f5d"/><path d="M253.51 248.19l.7-.41c.6.42 1.2.83 1.8 1.21l-.7.41c-.61-.38-1.21-.79-1.8-1.21" fill="#1e2060"/><path d="M255.31 249.4l.7-.41 1.26.76-.71.41c-.42-.25-.84-.5-1.25-.76" fill="#1f2163"/></g><g clip-path="url(#U)"><path d="M230.58 175.36l.71-.41c-6.61 3.83-10.7 12-10.73 23.6 0 14.23 6 30.35 15.39 43.43l-.7.41c-9.36-13.08-15.44-29.2-15.4-43.43 0-11.6 4.13-19.77 10.73-23.6" fill="#0e0a34"/></g><g clip-path="url(#V)"><path d="M230.58 175.36l.71-.41c-6.61 3.83-10.7 12-10.73 23.6 0 14.23 6 30.35 15.39 43.43l-.7.41c-9.36-13.08-15.44-29.2-15.4-43.43 0-11.6 4.13-19.77 10.73-23.6" fill="#0e0a34"/></g><g clip-path="url(#W)"><path d="M230.58 175.36l.71-.41c-6.61 3.83-10.7 12-10.73 23.6 0 14.23 6 30.35 15.39 43.43l-.7.41c-9.36-13.08-15.44-29.2-15.4-43.43 0-11.6 4.13-19.77 10.73-23.6" fill="#0e0a34"/></g><g style="isolation:isolate" clip-path="url(#X)"><path d="M245.47 201.35l.7-.41c-2.5 1.46-4.13 4.65-4.15 10a30.43 30.43 0 0 0 5.9 17.6l-.7.41a30.36 30.36 0 0 1-5.9-17.6c0-5.35 1.64-8.54 4.15-10" fill="#003b62"/><path d="M247.22 229l.7-.41c.46.64.94 1.26 1.43 1.86l-.7.41c-.49-.6-1-1.22-1.43-1.86" fill="#003d66"/><path d="M248.65 230.81l.7-.41c.42.5.84 1 1.27 1.45l-.7.41c-.44-.47-.86-.95-1.27-1.45" fill="#003f69"/><path d="M249.92 232.26l.7-.41c.39.42.78.82 1.19 1.21l-.71.41c-.4-.39-.8-.79-1.18-1.21" fill="#00426d"/><path d="M251.1 233.47l.71-.41c.38.37.77.73 1.16 1.08l-.71.41c-.39-.35-.78-.71-1.16-1.08" fill="#004471"/><path d="M252.26 234.55l.71-.41c.38.33.77.66 1.15 1l-.7.41c-.39-.31-.78-.63-1.16-1" fill="#004675"/><path d="M253.42 235.51l.7-.41c.39.31.78.6 1.17.88l-.71.41c-.39-.28-.77-.57-1.16-.88" fill="#004878"/><path d="M254.58 236.39l.71-.41c.39.28.79.54 1.18.79l-.7.41c-.4-.25-.79-.51-1.19-.79" fill="#004b7c"/><path d="M255.77 237.18l.7-.41c.28.18.55.34.83.5l-.71.41c-.27-.16-.55-.32-.82-.5" fill="#004d80"/></g><g clip-path="url(#Y)"><path d="M238.19 188.44l.7-.41c-4.68 2.72-7.58 8.5-7.6 16.71 0 10.09 4.28 21.51 10.91 30.77l-.71.41c-6.63-9.26-10.93-20.68-10.91-30.77 0-8.21 2.93-14 7.61-16.71" fill="#18194c"/></g><g clip-path="url(#Z)"><path d="M245.47 201.35l.7-.41c-2.5 1.46-4.13 4.65-4.15 10a30.43 30.43 0 0 0 5.9 17.6l-.7.41a30.36 30.36 0 0 1-5.9-17.6c0-5.35 1.64-8.54 4.15-10" fill="#003b62"/></g><g style="isolation:isolate" clip-path="url(#aa)"><path d="M256.53 262.49l.7-.41.85.48-.7.41-.85-.48" fill="#120e44"/><path d="M257.38 263l.7-.41c.9.5 1.8.95 2.69 1.37l-.71.41c-.89-.42-1.78-.87-2.68-1.37" fill="#130e46"/><path d="M260.06 264.34l.71-.41c.94.44 1.88.83 2.8 1.18l-.7.41c-.93-.35-1.86-.74-2.81-1.18" fill="#130e48"/><path d="M262.87 265.52l.7-.41c1 .39 2.05.73 3.06 1l-.71.41c-1-.27-2-.61-3.05-1" fill="#140f4a"/><path d="M265.92 266.52l.71-.41a27.15 27.15 0 0 0 3.51.74l-.71.41a27.88 27.88 0 0 1-3.51-.74" fill="#150f4c"/><path d="M269.43 267.26l.71-.41a23.15 23.15 0 0 0 4.58.25l-.71.41a23.15 23.15 0 0 1-4.58-.25" fill="#15104e"/><path d="M274 267.51l.71-.41a18.73 18.73 0 0 0 8.7-2.46l-.71.41a18.66 18.66 0 0 1-8.7 2.46" fill="#161050"/></g><g style="isolation:isolate" clip-path="url(#ab)"><path d="M256.56 250.16l.71-.41.6.34-.71.41-.6-.34" fill="#1f2163"/><path d="M257.16 250.5l.71-.41c.64.35 1.27.67 1.9 1l-.7.41c-.63-.3-1.27-.62-1.91-1" fill="#202266"/><path d="M259.07 251.47l.7-.41c.67.31 1.34.59 2 .84l-.7.41c-.66-.25-1.32-.53-2-.84" fill="#212369"/><path d="M261.06 252.31l.7-.41c.73.27 1.45.51 2.16.7l-.7.41c-.71-.19-1.43-.43-2.16-.7" fill="#22246c"/><path d="M263.22 253l.7-.41a19.83 19.83 0 0 0 2.49.53l-.7.41a19.83 19.83 0 0 1-2.49-.53" fill="#23256f"/><path d="M265.71 253.54l.7-.41a18 18 0 0 0 3.24.18l-.7.41a18 18 0 0 1-3.24-.18" fill="#242672"/><path d="M269 253.72l.7-.41a13.27 13.27 0 0 0 6.16-1.75l-.7.41a13.3 13.3 0 0 1-6.16 1.75" fill="#252775"/></g><g clip-path="url(#ac)"><path d="M238.19 188.44l.7-.41c-4.68 2.72-7.58 8.5-7.6 16.71 0 10.09 4.28 21.51 10.91 30.77l-.71.41c-6.63-9.26-10.93-20.68-10.91-30.77 0-8.21 2.93-14 7.61-16.71" fill="#18194c"/></g><g clip-path="url(#ad)"><path d="M230.58 175.36l.71-.41c-6.61 3.83-10.7 12-10.73 23.6 0 14.23 6 30.35 15.39 43.43l-.7.41c-9.36-13.08-15.44-29.2-15.4-43.43 0-11.6 4.13-19.77 10.73-23.6" fill="#0e0a34"/></g><g style="isolation:isolate" clip-path="url(#ae)"><path d="M256.59 237.68l.71-.41.39.22-.71.41-.39-.22" fill="#004d80"/><path d="M257 237.9l.71-.41c.42.23.83.45 1.25.64l-.7.41c-.42-.19-.84-.41-1.26-.64" fill="#004f84"/><path d="M258.24 238.54l.7-.41c.44.21.88.39 1.31.56l-.7.41c-.44-.17-.88-.35-1.31-.56" fill="#005187"/><path d="M259.55 239.1l.7-.41c.47.17.93.32 1.39.45l-.7.41c-.46-.13-.93-.28-1.39-.45" fill="#00548b"/><path d="M260.94 239.55l.7-.41a11.44 11.44 0 0 0 1.56.33l-.7.41a11.44 11.44 0 0 1-1.56-.33" fill="#00568f"/><path d="M262.5 239.88l.7-.41a9.93 9.93 0 0 0 1.94.11l-.7.41a9.89 9.89 0 0 1-1.94-.11" fill="#005893"/><path d="M264.44 240l.7-.41a7.24 7.24 0 0 0 3.4-.94l-.71.41a7.17 7.17 0 0 1-3.39.94" fill="#005a96"/></g><g style="isolation:isolate" clip-path="url(#af)"><path d="M245.47 201.35l.7-.41a7.44 7.44 0 0 1 3.39-.94l-.7.41a7.4 7.4 0 0 0-3.39.94" fill="#2189b5"/><path d="M248.86 200.41l.7-.41a11.66 11.66 0 0 1 1.94.11l-.7.41a11.78 11.78 0 0 0-1.94-.11" fill="#2085b0"/><path d="M250.8 200.52l.7-.41a13.26 13.26 0 0 1 1.56.34l-.7.41a13.26 13.26 0 0 0-1.56-.34" fill="#1f82ac"/><path d="M252.36 200.86l.7-.41c.46.12.93.28 1.4.45l-.71.41a16 16 0 0 0-1.39-.45" fill="#1e7fa7"/><path d="M253.75 201.31l.71-.41c.43.17.87.35 1.31.56l-.71.41a18.4 18.4 0 0 0-1.31-.56" fill="#1e7ba3"/><path d="M255.06 201.87l.71-.41c.41.19.83.41 1.25.64l-.7.41c-.42-.23-.84-.45-1.26-.64" fill="#1d789e"/><path d="M256.32 202.51l.7-.41.39.22-.7.41-.39-.22" fill="#1c749a"/></g><g style="isolation:isolate" clip-path="url(#ag)"><path d="M256.71 202.73l.7-.41c.28.15.55.32.82.49l-.7.41c-.28-.17-.55-.34-.82-.49" fill="#1c749a"/><path d="M257.53 203.22l.7-.41c.4.25.79.52 1.19.8l-.71.41c-.39-.28-.79-.55-1.18-.8" fill="#1b7195"/><path d="M258.71 204l.71-.41c.39.28.78.57 1.16.88l-.7.4q-.58-.45-1.17-.87" fill="#1a6d91"/><path d="M259.88 204.89l.7-.4c.39.3.78.63 1.16 1l-.7.41c-.39-.33-.77-.66-1.16-1" fill="#196a8c"/><path d="M261 205.86l.7-.41c.39.35.78.71 1.16 1.08l-.7.41c-.38-.38-.77-.73-1.16-1.08" fill="#196788"/><path d="M262.2 206.94l.7-.41c.4.39.8.79 1.19 1.21l-.71.41c-.39-.42-.78-.82-1.18-1.21" fill="#186383"/><path d="M263.38 208.15l.71-.41c.43.47.85.95 1.26 1.45l-.7.41c-.41-.5-.84-1-1.27-1.45" fill="#17607f"/><path d="M264.65 209.6l.7-.41q.75.9 1.44 1.86l-.71.41c-.46-.64-.94-1.26-1.43-1.86" fill="#165c7a"/><path d="M266.08 211.46l.71-.41a30.43 30.43 0 0 1 5.9 17.6c0 5.35-1.65 8.54-4.15 10l-.71.41c2.51-1.45 4.14-4.64 4.15-10a30.43 30.43 0 0 0-5.9-17.6" fill="#155976"/></g><path d="M256.71 202.73c7.66 4.42 15.3 14.67 15.27 26.33s-7.72 13.05-15.39 8.62-15.31-14.68-15.27-26.33 7.68-13.05 15.39-8.62z" fill="#1d7aa1"/><g style="isolation:isolate" clip-path="url(#ah)"><path d="M238.19 188.44l.7-.41a13.21 13.21 0 0 1 6.16-1.74l-.7.4a13.3 13.3 0 0 0-6.16 1.75" fill="#005a96"/><path d="M244.35 186.69l.7-.4a17.06 17.06 0 0 1 3.24.17l-.7.41a18 18 0 0 0-3.24-.18" fill="#005893"/><path d="M247.59 186.87l.7-.41a20.9 20.9 0 0 1 2.49.53l-.7.41a21.78 21.78 0 0 0-2.49-.53" fill="#00568f"/><path d="M250.08 187.4l.7-.41c.71.19 1.43.43 2.16.7l-.7.41c-.73-.27-1.45-.51-2.16-.7" fill="#00548b"/><path d="M252.24 188.1l.7-.41c.66.25 1.32.53 2 .85l-.7.4c-.67-.31-1.34-.59-2-.84" fill="#005187"/><path d="M254.23 188.94l.7-.4c.63.29 1.26.61 1.9 1l-.7.41c-.64-.35-1.27-.67-1.9-1" fill="#004f84"/><path d="M256.13 189.91l.7-.41.61.34-.71.41-.6-.34" fill="#004d80"/></g><g style="isolation:isolate" clip-path="url(#ai)"><path d="M230.58 175.36l.71-.41a18.78 18.78 0 0 1 8.69-2.47l-.7.41a18.74 18.74 0 0 0-8.7 2.47" fill="#252775"/><path d="M239.28 172.89l.7-.41a24.77 24.77 0 0 1 4.58.25l-.7.41a24.77 24.77 0 0 0-4.58-.25" fill="#242672"/><path d="M243.86 173.14l.7-.41a29 29 0 0 1 3.51.75l-.7.41a29.85 29.85 0 0 0-3.51-.75" fill="#23256f"/><path d="M247.37 173.89l.7-.41c1 .27 2 .6 3.06 1l-.71.41c-1-.39-2-.72-3-1" fill="#22246c"/><path d="M250.42 174.88l.71-.41c.92.35 1.86.75 2.8 1.19l-.7.41c-.95-.44-1.88-.84-2.81-1.19" fill="#212369"/><path d="M253.23 176.07l.7-.41c.89.42 1.79.87 2.69 1.37l-.7.41c-.91-.5-1.8-.95-2.69-1.37" fill="#202266"/><path d="M255.92 177.44l.7-.41.85.48-.7.41-.85-.48" fill="#1f2163"/></g><path d="M256.73 190.25c14.4 8.32 26 28.47 26 45s-11.73 23.22-26.17 14.91-26-28.46-26-45 11.78-23.22 26.17-14.91zm-.14 47.43c7.67 4.43 15.36 3 15.39-8.63s-7.61-21.9-15.27-26.32-15.36-3-15.39 8.62 7.61 21.91 15.27 26.33" fill="#005086"/><g style="isolation:isolate" clip-path="url(#aj)"><path d="M256.73 190.25l.71-.41 1.25.76-.69.4c-.41-.26-.83-.51-1.25-.76" fill="#004d80"/><path d="M258 191l.71-.41c.61.38 1.21.79 1.8 1.21l-.7.41c-.6-.42-1.2-.83-1.81-1.21" fill="#004b7c"/><path d="M259.79 192.22l.7-.41c.6.43 1.19.88 1.78 1.34l-.7.41c-.59-.46-1.18-.91-1.78-1.34" fill="#004878"/><path d="M261.57 193.56l.7-.41c.6.48 1.2 1 1.79 1.5l-.71.41c-.58-.52-1.18-1-1.78-1.5" fill="#004675"/><path d="M263.35 195.06l.71-.41c.62.54 1.23 1.11 1.84 1.7l-.71.41c-.6-.59-1.21-1.16-1.84-1.7" fill="#004471"/><path d="M265.19 196.76l.71-.41c.66.64 1.31 1.3 1.94 2l-.7.41c-.64-.69-1.29-1.35-1.95-2" fill="#00426d"/><path d="M267.14 198.75l.7-.41c.74.79 1.45 1.61 2.15 2.46l-.71.41c-.69-.85-1.41-1.67-2.14-2.46" fill="#003f69"/><path d="M269.28 201.21l.71-.41c.87 1.06 1.72 2.16 2.52 3.29l-.7.41a58.51 58.51 0 0 0-2.53-3.29" fill="#003d66"/><path d="M271.81 204.5l.7-.41c6.63 9.26 10.94 20.68 10.91 30.75 0 8.22-2.93 14-7.61 16.72l-.7.41c4.68-2.72 7.58-8.5 7.6-16.72 0-10.07-4.27-21.49-10.9-30.75" fill="#003b62"/></g><g style="isolation:isolate" clip-path="url(#ak)"><path d="M223 162.28l.71-.41a24.17 24.17 0 0 1 11.23-3.18l-.7.41a24.18 24.18 0 0 0-11.24 3.18" fill="#161050"/><path d="M234.22 159.1l.7-.41a30.64 30.64 0 0 1 5.91.32l-.7.41a30.68 30.68 0 0 0-5.91-.32" fill="#15104e"/><path d="M240.13 159.42l.7-.41a39.19 39.19 0 0 1 4.54 1l-.7.41a39.64 39.64 0 0 0-4.54-1" fill="#150f4c"/><path d="M244.67 160.38l.7-.41c1.29.36 2.61.78 3.94 1.29l-.7.41c-1.34-.51-2.65-.93-3.94-1.29" fill="#140f4a"/><path d="M248.61 161.67l.7-.41q1.8.68 3.63 1.53l-.71.41a52.09 52.09 0 0 0-3.62-1.53" fill="#130e48"/><path d="M252.23 163.2l.71-.41c1.14.54 2.3 1.13 3.47 1.77l-.71.41a59.84 59.84 0 0 0-3.47-1.77" fill="#130e46"/><path d="M255.7 165l.71-.41 1.1.62-.71.41-1.1-.62" fill="#120e44"/></g><g style="isolation:isolate" clip-path="url(#al)"><path d="M256.77 177.92l.7-.41c.59.34 1.18.7 1.77 1.07l-.71.41c-.58-.37-1.17-.73-1.76-1.07" fill="#1f2163"/><path d="M258.53 179l.71-.41c.86.54 1.7 1.11 2.54 1.71l-.7.41q-1.26-.9-2.55-1.71" fill="#1e2060"/><path d="M261.08 180.7l.7-.41q1.28.9 2.52 1.89l-.71.41a54.89 54.89 0 0 0-2.51-1.89" fill="#1d1f5d"/><path d="M263.59 182.59l.71-.41c.85.68 1.69 1.38 2.52 2.11l-.7.41c-.83-.73-1.68-1.43-2.53-2.11" fill="#1d1e5b"/><path d="M266.12 184.7l.7-.41c.88.77 1.75 1.57 2.6 2.4l-.71.41c-.85-.83-1.71-1.63-2.59-2.4" fill="#1c1d58"/><path d="M268.71 187.1l.71-.41c.93.91 1.84 1.85 2.74 2.82l-.7.41c-.9-1-1.82-1.91-2.75-2.82" fill="#1b1c55"/><path d="M271.46 189.92l.7-.41q1.56 1.68 3 3.47l-.7.41c-1-1.2-2-2.35-3-3.47" fill="#1a1b52"/><path d="M274.49 193.39l.7-.41q1.86 2.24 3.57 4.64l-.71.41q-1.71-2.4-3.56-4.64" fill="#191a4f"/><path d="M278.05 198l.71-.41c9.35 13.07 15.43 29.19 15.39 43.42 0 11.6-4.13 19.76-10.73 23.6l-.71.41c6.61-3.84 10.7-12 10.74-23.6 0-14.23-6-30.35-15.4-43.42" fill="#18194c"/></g><path d="M256.77 177.92c20.32 11.73 36.74 40.18 36.68 63.53s-16.6 32.77-36.92 21-36.75-40.14-36.68-63.45 16.59-32.81 36.92-21.08zm-.21 72.24c14.4 8.31 26.11 1.64 26.15-14.91s-11.58-36.68-26-45-26.1-1.63-26.15 14.9 11.59 36.7 26 45" fill="#212368"/><g style="isolation:isolate" clip-path="url(#am)"><path d="M256.8 165.59l.71-.41q1.14.66 2.28 1.38l-.7.41c-.76-.48-1.52-.94-2.29-1.38" fill="#120e44"/><path d="M259.09 167l.7-.41c1.11.7 2.2 1.44 3.29 2.21l-.71.41a75.33 75.33 0 0 0-3.28-2.21" fill="#120d42"/><path d="M262.37 169.18l.71-.41c1.09.78 2.17 1.59 3.24 2.44l-.7.41c-1.07-.85-2.15-1.66-3.25-2.44" fill="#110d40"/><path d="M265.62 171.62l.7-.41c1.1.87 2.19 1.78 3.26 2.73l-.7.41c-1.07-.95-2.16-1.86-3.26-2.73" fill="#110c3e"/><path d="M268.88 174.35l.7-.41c1.14 1 2.26 2 3.36 3.1l-.71.41a87.81 87.81 0 0 0-3.35-3.1" fill="#100c3c"/><path d="M272.23 177.45l.71-.41q1.8 1.76 3.54 3.63l-.7.41q-1.74-1.87-3.55-3.63" fill="#100c3a"/><path d="M275.78 181.08l.7-.41c1.34 1.45 2.65 2.94 3.92 4.49l-.71.41c-1.27-1.55-2.58-3-3.91-4.49" fill="#0f0b38"/><path d="M279.69 185.57l.71-.41c1.59 1.93 3.13 3.93 4.6 6l-.71.41c-1.47-2.06-3-4.06-4.6-6" fill="#0f0b36"/><path d="M284.29 191.56l.71-.41c12.08 16.89 19.94 37.71 19.88 56.08 0 15-5.33 25.54-13.86 30.49l-.71.41c8.54-4.95 13.83-15.5 13.87-30.49.05-18.37-7.8-39.19-19.89-56.08" fill="#0e0a34"/></g><path d="M256.8 165.59c26.25 15.16 47.47 51.89 47.38 82s-21.44 42.41-47.69 27.23-47.49-51.89-47.37-82.06 21.43-42.33 47.68-27.17zm-.27 96.9c20.32 11.73 36.85 2.31 36.92-21s-16.36-51.8-36.68-63.53-36.85-2.31-36.92 21 16.35 51.79 36.68 63.53" fill="#130e47"/></g></g></g></g></svg>